OpenSans-BoldItalic.ufo
<glyph name="parenleft" format="2">
  <advance width="694"/>
  <unicode hex="0028"/>
  <outline>
    <contour>
      <point x="223" y="-324" type="curve"/>
      <point x="457" y="-324" type="line"/>
      <point x="383" y="-143"/>
      <point x="340" y="61"/>
      <point x="340" y="270" type="curve"/>
      <point x="340" y="758"/>
      <point x="549" y="1145"/>
      <point x="840" y="1462" type="curve"/>
      <point x="578" y="1462" type="line"/>
      <point x="250" y="1124"/>
      <point x="74" y="754"/>
      <point x="74" y="281" type="curve"/>
      <point x="74" y="61"/>
      <point x="123" y="-147"/>
    </contour>
  </outline>
</glyph>
<glyph name="parenright" format="2">
  <advance width="694"/>
  <unicode hex="0029"/>
  <outline>
    <contour>
      <point x="-147" y="-324" type="curve"/>
      <point x="115" y="-324" type="line"/>
      <point x="442" y="14"/>
      <point x="618" y="385"/>
      <point x="618" y="858" type="curve"/>
      <point x="618" y="1077"/>
      <point x="569" y="1286"/>
      <point x="469" y="1462" type="curve"/>
      <point x="236" y="1462" type="line"/>
      <point x="309" y="1282"/>
      <point x="352" y="1077"/>
      <point x="352" y="868" type="curve"/>
      <point x="352" y="381"/>
      <point x="143" y="-6"/>
    </contour>
  </outline>
</glyph>
<glyph name="G" format="2">
  <advance width="1413"/>
  <unicode hex="0047"/>
  <anchor x="680" y="0" name="bottom"/>
  <anchor x="930" y="1462" name="top"/>
  <anchor x="1565" y="1462" name="topright"/>
  <outline>
    <contour>
      <point x="664" y="-20" type="curve" smooth="yes"/>
      <point x="887" y="-20"/>
      <point x="1022" y="14"/>
      <point x="1155" y="59" type="curve"/>
      <point x="1317" y="821" type="line"/>
      <point x="754" y="821" type="line"/>
      <point x="698" y="563" type="line"/>
      <point x="965" y="563" type="line"/>
      <point x="899" y="264" type="line"/>
      <point x="842" y="250"/>
      <point x="797" y="240"/>
      <point x="729" y="240" type="curve" smooth="yes"/>
      <point x="520" y="240"/>
      <point x="434" y="356"/>
      <point x="434" y="573" type="curve" smooth="yes"/>
      <point x="434" y="881"/>
      <point x="606" y="1223"/>
      <point x="965" y="1223" type="curve" smooth="yes"/>
      <point x="1081" y="1223"/>
      <point x="1176" y="1188"/>
      <point x="1274" y="1135" type="curve"/>
      <point x="1389" y="1386" type="line"/>
      <point x="1257" y="1454"/>
      <point x="1130" y="1485"/>
      <point x="979" y="1485" type="curve" smooth="yes"/>
      <point x="416" y="1485"/>
      <point x="123" y="1047"/>
      <point x="123" y="549" type="curve" smooth="yes"/>
      <point x="123" y="178"/>
      <point x="324" y="-20"/>
    </contour>
  </outline>
</glyph>
<glyph name="P" format="2">
  <advance width="1249"/>
  <unicode hex="0050"/>
  <anchor x="506" y="0" name="bottom"/>
  <anchor x="788" y="1462" name="top"/>
  <anchor x="1401" y="1462" name="topright"/>
  <outline>
    <contour>
      <point x="53" y="0" type="line"/>
      <point x="358" y="0" type="line"/>
      <point x="467" y="520" type="line"/>
      <point x="623" y="520" type="line" smooth="yes"/>
      <point x="985" y="520"/>
      <point x="1260" y="688"/>
      <point x="1260" y="1036" type="curve" smooth="yes"/>
      <point x="1260" y="1290"/>
      <point x="1126" y="1462"/>
      <point x="770" y="1462" type="curve" smooth="yes"/>
      <point x="362" y="1462" type="line"/>
    </contour>
    <contour>
      <point x="522" y="774" type="line"/>
      <point x="614" y="1208" type="line"/>
      <point x="758" y="1208" type="line" smooth="yes"/>
      <point x="887" y="1208"/>
      <point x="952" y="1151"/>
      <point x="952" y="1028" type="curve" smooth="yes"/>
      <point x="952" y="868"/>
      <point x="829" y="774"/>
      <point x="647" y="774" type="curve" smooth="yes"/>
    </contour>
  </outline>
</glyph>
<glyph name="Q" format="2">
  <advance width="1495"/>
  <unicode hex="0051"/>
  <anchor x="555" y="-348" name="bottom"/>
  <anchor x="940" y="1462" name="top"/>
  <anchor x="1647" y="1462" name="topright"/>
  <outline>
    <contour>
      <point x="870" y="-348" type="line"/>
      <point x="1229" y="-348" type="line"/>
      <point x="975" y="45" type="line"/>
      <point x="1286" y="190"/>
      <point x="1432" y="561"/>
      <point x="1432" y="938" type="curve" smooth="yes"/>
      <point x="1432" y="1268"/>
      <point x="1251" y="1485"/>
      <point x="897" y="1485" type="curve" smooth="yes"/>
      <point x="365" y="1485"/>
      <point x="123" y="993"/>
      <point x="123" y="537" type="curve" smooth="yes"/>
      <point x="123" y="201"/>
      <point x="311" y="-20"/>
      <point x="666" y="-20" type="curve" smooth="yes"/>
      <point x="674" y="-20"/>
      <point x="684" y="-20"/>
      <point x="692" y="-20" type="curve"/>
    </contour>
    <contour>
      <point x="688" y="240" type="curve" smooth="yes"/>
      <point x="528" y="240"/>
      <point x="434" y="342"/>
      <point x="434" y="537" type="curve" smooth="yes"/>
      <point x="434" y="911"/>
      <point x="618" y="1227"/>
      <point x="872" y="1227" type="curve" smooth="yes"/>
      <point x="1036" y="1227"/>
      <point x="1120" y="1110"/>
      <point x="1120" y="930" type="curve" smooth="yes"/>
      <point x="1120" y="510"/>
      <point x="926" y="240"/>
    </contour>
  </outline>
</glyph>
<glyph name="a" format="2">
  <advance width="1217"/>
  <unicode hex="0061"/>
  <anchor x="489" y="0" name="bottom"/>
  <anchor x="727" y="1118" name="top"/>
  <anchor x="1294" y="1118" name="topright"/>
  <outline>
    <contour>
      <point x="406" y="-20" type="curve" smooth="yes"/>
      <point x="547" y="-20"/>
      <point x="645" y="47"/>
      <point x="725" y="145" type="curve"/>
      <point x="733" y="145" type="line"/>
      <point x="719" y="0" type="line"/>
      <point x="944" y="0" type="line"/>
      <point x="1182" y="1118" type="line"/>
      <point x="950" y="1118" type="line"/>
      <point x="893" y="975" type="line"/>
      <point x="885" y="975" type="line"/>
      <point x="836" y="1073"/>
      <point x="750" y="1139"/>
      <point x="608" y="1139" type="curve" smooth="yes"/>
      <point x="293" y="1139"/>
      <point x="90" y="750"/>
      <point x="90" y="385" type="curve" smooth="yes"/>
      <point x="90" y="90"/>
      <point x="244" y="-20"/>
    </contour>
    <contour>
      <point x="524" y="223" type="curve" smooth="yes"/>
      <point x="442" y="223"/>
      <point x="395" y="283"/>
      <point x="395" y="399" type="curve" smooth="yes"/>
      <point x="395" y="635"/>
      <point x="512" y="895"/>
      <point x="659" y="895" type="curve" smooth="yes"/>
      <point x="745" y="895"/>
      <point x="799" y="825"/>
      <point x="799" y="731" type="curve" smooth="yes"/>
      <point x="799" y="668"/>
      <point x="795" y="616"/>
      <point x="784" y="563" type="curve" smooth="yes"/>
      <point x="752" y="389"/>
      <point x="647" y="223"/>
    </contour>
  </outline>
</glyph>
<glyph name="g" format="2">
  <advance width="1108"/>
  <unicode hex="0067"/>
  <note>
g
</note>
  <anchor x="402" y="-492" name="bottom"/>
  <anchor x="656" y="1118" name="top"/>
  <anchor x="1212" y="1118" name="topright"/>
  <outline>
    <contour>
      <point x="326" y="-492" type="curve" smooth="yes"/>
      <point x="712.667" y="-492"/>
      <point x="928" y="-338.333"/>
      <point x="928" y="-57" type="curve" smooth="yes"/>
      <point x="928" y="103"/>
      <point x="833" y="182"/>
      <point x="616" y="211" type="curve" smooth="yes"/>
      <point x="479" y="229" type="line" smooth="yes"/>
      <point x="400" y="239"/>
      <point x="360" y="255.667"/>
      <point x="360" y="301" type="curve" smooth="yes"/>
      <point x="360" y="335"/>
      <point x="388" y="361"/>
      <point x="444" y="379" type="curve"/>
      <point x="470.667" y="372.333"/>
      <point x="503.667" y="369"/>
      <point x="543" y="369" type="curve" smooth="yes"/>
      <point x="820.333" y="369"/>
      <point x="993" y="531"/>
      <point x="993" y="791" type="curve" smooth="yes"/>
      <point x="993" y="835"/>
      <point x="987.667" y="874.333"/>
      <point x="977" y="909" type="curve"/>
      <point x="1151" y="950" type="line"/>
      <point x="1186" y="1116" type="line"/>
      <point x="791" y="1116" type="line"/>
      <point x="735.667" y="1131.333"/>
      <point x="680.333" y="1139"/>
      <point x="625" y="1139" type="curve" smooth="yes"/>
      <point x="337" y="1139"/>
      <point x="158" y="972.333"/>
      <point x="158" y="707" type="curve" smooth="yes"/>
      <point x="158" y="587"/>
      <point x="198.333" y="507.333"/>
      <point x="285" y="442" type="curve"/>
      <point x="149" y="379.333"/>
      <point x="94" y="315.667"/>
      <point x="94" y="221" type="curve" smooth="yes"/>
      <point x="94" y="163.667"/>
      <point x="118.667" y="119.333"/>
      <point x="168" y="88" type="curve"/>
      <point x="-26.667" y="24"/>
      <point x="-115" y="-73"/>
      <point x="-115" y="-209" type="curve" smooth="yes"/>
      <point x="-115" y="-385"/>
      <point x="48.667" y="-492"/>
    </contour>
    <contour>
      <point x="344" y="-287" type="curve" smooth="yes"/>
      <point x="214.667" y="-287"/>
      <point x="150" y="-248.667"/>
      <point x="150" y="-172" type="curve" smooth="yes"/>
      <point x="150" y="-84"/>
      <point x="223.667" y="-24.667"/>
      <point x="365" y="-6" type="curve"/>
      <point x="479" y="-20" type="line" smooth="yes"/>
      <point x="577" y="-32"/>
      <point x="649" y="-47"/>
      <point x="649" y="-115" type="curve" smooth="yes"/>
      <point x="649" y="-224.333"/>
      <point x="545.333" y="-287"/>
    </contour>
    <contour>
      <point x="545" y="561" type="curve" smooth="yes"/>
      <point x="476.333" y="561"/>
      <point x="442" y="600.667"/>
      <point x="442" y="680" type="curve" smooth="yes"/>
      <point x="442" y="833.333"/>
      <point x="511.333" y="948"/>
      <point x="614" y="948" type="curve" smooth="yes"/>
      <point x="680" y="948"/>
      <point x="713" y="909"/>
      <point x="713" y="831" type="curve" smooth="yes"/>
      <point x="713" y="675"/>
      <point x="645" y="561"/>
    </contour>
  </outline>
</glyph>
<glyph name="braceright" format="2">
  <advance width="727"/>
  <unicode hex="007D"/>
  <outline>
    <contour>
      <point x="-100" y="-324" type="line"/>
      <point x="-55" y="-324" type="line" smooth="yes"/>
      <point x="203" y="-324"/>
      <point x="301" y="-219"/>
      <point x="346" y="-14" type="curve" smooth="yes"/>
      <point x="408" y="270" type="line" smooth="yes"/>
      <point x="436" y="399"/>
      <point x="530" y="451"/>
      <point x="692" y="451" type="curve"/>
      <point x="737" y="680" type="line"/>
      <point x="600" y="680"/>
      <point x="528" y="727"/>
      <point x="528" y="819" type="curve" smooth="yes"/>
      <point x="528" y="844"/>
      <point x="537" y="874"/>
      <point x="543" y="905" type="curve" smooth="yes"/>
      <point x="582" y="1090" type="line" smooth="yes"/>
      <point x="590" y="1128"/>
      <point x="596" y="1169"/>
      <point x="596" y="1214" type="curve" smooth="yes"/>
      <point x="596" y="1360"/>
      <point x="502" y="1462"/>
      <point x="256" y="1462" type="curve" smooth="yes"/>
      <point x="223" y="1462" type="line"/>
      <point x="182" y="1237" type="line"/>
      <point x="279" y="1237"/>
      <point x="328" y="1214"/>
      <point x="328" y="1143" type="curve" smooth="yes"/>
      <point x="328" y="1128"/>
      <point x="326" y="1112"/>
      <point x="322" y="1092" type="curve" smooth="yes"/>
      <point x="285" y="913" type="line" smooth="yes"/>
      <point x="276" y="870"/>
      <point x="270" y="836"/>
      <point x="270" y="801" type="curve" smooth="yes"/>
      <point x="270" y="696"/>
      <point x="326" y="618"/>
      <point x="438" y="584" type="curve"/>
      <point x="438" y="575" type="line"/>
      <point x="291" y="557"/>
      <point x="195" y="487"/>
      <point x="162" y="340" type="curve" smooth="yes"/>
      <point x="96" y="43" type="line" smooth="yes"/>
      <point x="72" y="-72"/>
      <point x="0" y="-96"/>
      <point x="-100" y="-98" type="curve"/>
    </contour>
  </outline>
</glyph>
<glyph name="dieresis" format="2">
  <advance width="1135"/>
  <unicode hex="00A8"/>
  <outline>
    <contour>
      <point x="926" y="1272" type="curve" smooth="yes"/>
      <point x="1028" y="1272"/>
      <point x="1075" y="1335"/>
      <point x="1075" y="1432" type="curve" smooth="yes"/>
      <point x="1075" y="1513"/>
      <point x="1018" y="1540"/>
      <point x="950" y="1540" type="curve" smooth="yes"/>
      <point x="854" y="1540"/>
      <point x="799" y="1485"/>
      <point x="799" y="1382" type="curve" smooth="yes"/>
      <point x="799" y="1300"/>
      <point x="852" y="1272"/>
    </contour>
    <contour>
      <point x="543" y="1272" type="curve" smooth="yes"/>
      <point x="645" y="1272"/>
      <point x="692" y="1335"/>
      <point x="692" y="1432" type="curve" smooth="yes"/>
      <point x="692" y="1513"/>
      <point x="635" y="1540"/>
      <point x="567" y="1540" type="curve" smooth="yes"/>
      <point x="471" y="1540"/>
      <point x="416" y="1485"/>
      <point x="416" y="1382" type="curve" smooth="yes"/>
      <point x="416" y="1300"/>
      <point x="469" y="1272"/>
    </contour>
  </outline>
</glyph>
<glyph name="guillemotleft" format="2">
  <advance width="1151"/>
  <unicode hex="00AB"/>
  <outline>
    <contour>
      <point x="274" y="90" type="line"/>
      <point x="520" y="193" type="line"/>
      <point x="385" y="543" type="line"/>
      <point x="664" y="877" type="line"/>
      <point x="473" y="1032" type="line"/>
      <point x="72" y="569" type="line"/>
      <point x="72" y="551" type="line"/>
    </contour>
    <contour>
      <point x="762" y="90" type="line"/>
      <point x="1008" y="193" type="line"/>
      <point x="872" y="543" type="line"/>
      <point x="1151" y="877" type="line"/>
      <point x="961" y="1032" type="line"/>
      <point x="559" y="569" type="line"/>
      <point x="559" y="551" type="line"/>
    </contour>
  </outline>
</glyph>
<glyph name="registered" format="2">
  <advance width="1704"/>
  <unicode hex="00AE"/>
  <outline>
    <contour>
      <point x="561" y="283" type="line"/>
      <point x="727" y="283" type="line"/>
      <point x="727" y="627" type="line"/>
      <point x="854" y="627" type="line"/>
      <point x="1049" y="283" type="line"/>
      <point x="1235" y="283" type="line"/>
      <point x="997" y="680" type="line"/>
      <point x="1079" y="713"/>
      <point x="1157" y="784"/>
      <point x="1157" y="913" type="curve" smooth="yes"/>
      <point x="1157" y="1090"/>
      <point x="1057" y="1188"/>
      <point x="834" y="1188" type="curve" smooth="yes"/>
      <point x="561" y="1188" type="line"/>
    </contour>
    <contour>
      <point x="727" y="764" type="line"/>
      <point x="727" y="1047" type="line"/>
      <point x="827" y="1047" type="line" smooth="yes"/>
      <point x="946" y="1047"/>
      <point x="989" y="1006"/>
      <point x="989" y="909" type="curve" smooth="yes"/>
      <point x="989" y="823"/>
      <point x="936" y="764"/>
      <point x="829" y="764" type="curve" smooth="yes"/>
    </contour>
    <contour>
      <point x="852" y="-20" type="curve" smooth="yes"/>
      <point x="1288" y="-20"/>
      <point x="1604" y="295"/>
      <point x="1604" y="731" type="curve" smooth="yes"/>
      <point x="1604" y="1167"/>
      <point x="1268" y="1483"/>
      <point x="852" y="1483" type="curve" smooth="yes"/>
      <point x="424" y="1483"/>
      <point x="100" y="1147"/>
      <point x="100" y="731" type="curve" smooth="yes"/>
      <point x="100" y="295"/>
      <point x="416" y="-20"/>
    </contour>
    <contour>
      <point x="852" y="111" type="curve" smooth="yes"/>
      <point x="494" y="111"/>
      <point x="240" y="369"/>
      <point x="240" y="731" type="curve" smooth="yes"/>
      <point x="240" y="1094"/>
      <point x="502" y="1354"/>
      <point x="852" y="1354" type="curve" smooth="yes"/>
      <point x="1198" y="1354"/>
      <point x="1460" y="1073"/>
      <point x="1460" y="731" type="curve" smooth="yes"/>
      <point x="1460" y="369"/>
      <point x="1188" y="111"/>
    </contour>
  </outline>
</glyph>
<glyph name="cedilla" format="2">
  <advance width="420"/>
  <unicode hex="00B8"/>
  <outline>
    <contour>
      <point x="-55" y="-492" type="curve" smooth="yes"/>
      <point x="168" y="-492"/>
      <point x="262" y="-387"/>
      <point x="262" y="-250" type="curve" smooth="yes"/>
      <point x="262" y="-150"/>
      <point x="199" y="-98"/>
      <point x="121" y="-72" type="curve"/>
      <point x="160" y="0" type="line"/>
      <point x="-25" y="0" type="line"/>
      <point x="-121" y="-154" type="line"/>
      <point x="-16" y="-166"/>
      <point x="20" y="-197"/>
      <point x="20" y="-242" type="curve" smooth="yes"/>
      <point x="20" y="-295"/>
      <point x="-14" y="-324"/>
      <point x="-82" y="-324" type="curve" smooth="yes"/>
      <point x="-129" y="-324"/>
      <point x="-178" y="-311"/>
      <point x="-207" y="-301" type="curve"/>
      <point x="-207" y="-469" type="line"/>
      <point x="-176" y="-479"/>
      <point x="-119" y="-492"/>
    </contour>
  </outline>
</glyph>
<glyph name="eogonek" format="2">
  <advance width="1141"/>
  <unicode hex="0119"/>
  <anchor x="397" y="-492" name="bottom"/>
  <anchor x="702" y="1118" name="top"/>
  <outline>
    <contour>
      <point x="627" y="-492" type="curve" smooth="yes"/>
      <point x="692" y="-492"/>
      <point x="741" y="-481"/>
      <point x="791" y="-467" type="curve"/>
      <point x="791" y="-291" type="line"/>
      <point x="756" y="-301"/>
      <point x="725" y="-309"/>
      <point x="688" y="-309" type="curve" smooth="yes"/>
      <point x="651" y="-309"/>
      <point x="629" y="-287"/>
      <point x="629" y="-250" type="curve" smooth="yes"/>
      <point x="629" y="-154"/>
      <point x="725" y="-61"/>
      <point x="868" y="49" type="curve"/>
      <point x="621" y="0" type="line"/>
      <point x="496" y="-80"/>
      <point x="406" y="-164"/>
      <point x="406" y="-297" type="curve" smooth="yes"/>
      <point x="406" y="-414"/>
      <point x="489" y="-492"/>
    </contour>
    <component base="e"/>
  </outline>
</glyph>
<glyph name="hbar" format="2">
  <advance width="1237"/>
  <unicode hex="0127"/>
  <anchor x="500" y="0" name="bottom"/>
  <anchor x="829" y="1556" name="top"/>
  <outline>
    <contour>
      <point x="37" y="0" type="line"/>
      <point x="338" y="0" type="line"/>
      <point x="424" y="401" type="line" smooth="yes"/>
      <point x="475" y="639"/>
      <point x="573" y="834"/>
      <point x="711" y="834" type="curve" smooth="yes"/>
      <point x="782" y="834"/>
      <point x="817" y="795"/>
      <point x="817" y="711" type="curve" smooth="yes"/>
      <point x="817" y="678"/>
      <point x="811" y="637"/>
      <point x="801" y="592" type="curve"/>
      <point x="676" y="0" type="line"/>
      <point x="977" y="0" type="line"/>
      <point x="1098" y="575" type="line"/>
      <point x="1112" y="643"/>
      <point x="1120" y="707"/>
      <point x="1120" y="756" type="curve" smooth="yes"/>
      <point x="1120" y="952"/>
      <point x="1024" y="1077"/>
      <point x="831" y="1077" type="curve" smooth="yes"/>
      <point x="698" y="1077"/>
      <point x="602" y="1010"/>
      <point x="520" y="907" type="curve"/>
      <point x="512" y="907" type="line"/>
      <point x="530" y="963"/>
      <point x="563" y="1071"/>
      <point x="592" y="1196" type="curve"/>
      <point x="891" y="1196" type="line"/>
      <point x="934" y="1395" type="line"/>
      <point x="635" y="1395" type="line"/>
      <point x="668" y="1556" type="line"/>
      <point x="367" y="1556" type="line"/>
      <point x="332" y="1395" type="line"/>
      <point x="172" y="1395" type="line"/>
      <point x="129" y="1196" type="line"/>
      <point x="291" y="1196" type="line"/>
    </contour>
  </outline>
</glyph>
<glyph name="idotless" format="2">
  <advance width="608"/>
  <unicode hex="0131"/>
  <anchor x="186" y="0" name="bottom"/>
  <anchor x="424" y="1118" name="top"/>
  <outline>
    <contour>
      <point x="37" y="0" type="line"/>
      <point x="338" y="0" type="line"/>
      <point x="575" y="1118" type="line"/>
      <point x="274" y="1118" type="line"/>
    </contour>
  </outline>
</glyph>
<glyph name="kgreenlandic" format="2">
  <advance width="1163"/>
  <unicode hex="0138"/>
  <anchor x="463" y="0" name="bottom"/>
  <anchor x="700" y="1118" name="top"/>
  <outline>
    <contour>
      <point x="37" y="0" type="line"/>
      <point x="338" y="0" type="line"/>
      <point x="412" y="348" type="line"/>
      <point x="532" y="420" type="line"/>
      <point x="715" y="0" type="line"/>
      <point x="1051" y="0" type="line"/>
      <point x="766" y="614" type="line"/>
      <point x="1264" y="1118" type="line"/>
      <point x="920" y="1118" type="line"/>
      <point x="463" y="637" type="line"/>
      <point x="455" y="637" type="line"/>
      <point x="477" y="709"/>
      <point x="504" y="801"/>
      <point x="520" y="872" type="curve" smooth="yes"/>
      <point x="575" y="1118" type="line"/>
      <point x="274" y="1118" type="line"/>
    </contour>
  </outline>
</glyph>
<glyph name="Lslash" format="2">
  <advance width="1061"/>
  <unicode hex="0141"/>
  <anchor x="412" y="0" name="bottom"/>
  <anchor x="723" y="1462" name="top"/>
  <outline>
    <contour>
      <point x="55" y="0" type="line"/>
      <point x="870" y="0" type="line"/>
      <point x="924" y="256" type="line"/>
      <point x="412" y="256" type="line"/>
      <point x="498" y="664" type="line"/>
      <point x="809" y="831" type="line"/>
      <point x="702" y="1034" type="line"/>
      <point x="561" y="956" type="line"/>
      <point x="668" y="1462" type="line"/>
      <point x="365" y="1462" type="line"/>
      <point x="219" y="772" type="line"/>
      <point x="-2" y="653" type="line"/>
      <point x="100" y="451" type="line"/>
      <point x="158" y="481" type="line"/>
    </contour>
  </outline>
</glyph>
<glyph name="Eng" format="2">
  <advance width="1546"/>
  <unicode hex="014A"/>
  <anchor x="563" y="-430" name="bottom"/>
  <anchor x="967" y="1462" name="top"/>
  <outline>
    <contour>
      <point x="727" y="-430" type="curve" smooth="yes"/>
      <point x="995" y="-430"/>
      <point x="1184" y="-297"/>
      <point x="1247" y="0" type="curve" smooth="yes"/>
      <point x="1556" y="1462" type="line"/>
      <point x="1282" y="1462" type="line"/>
      <point x="1151" y="874" type="line" smooth="yes"/>
      <point x="1122" y="745"/>
      <point x="1096" y="563"/>
      <point x="1083" y="477" type="curve"/>
      <point x="1073" y="477" type="line"/>
      <point x="692" y="1462" type="line"/>
      <point x="362" y="1462" type="line"/>
      <point x="53" y="0" type="line"/>
      <point x="328" y="0" type="line"/>
      <point x="473" y="688" type="line" smooth="yes"/>
      <point x="502" y="827"/>
      <point x="537" y="1075"/>
      <point x="541" y="1106" type="curve"/>
      <point x="549" y="1106" type="line"/>
      <point x="967" y="0" type="line"/>
      <point x="924" y="-133"/>
      <point x="846" y="-186"/>
      <point x="698" y="-186" type="curve" smooth="yes"/>
      <point x="641" y="-186"/>
      <point x="586" y="-176"/>
      <point x="537" y="-164" type="curve"/>
      <point x="537" y="-406" type="line"/>
      <point x="580" y="-420"/>
      <point x="643" y="-430"/>
    </contour>
  </outline>
</glyph>
<glyph name="OE" format="2">
  <advance width="1845"/>
  <unicode hex="0152"/>
  <anchor x="805" y="0" name="bottom"/>
  <anchor x="1116" y="1462" name="top"/>
  <outline>
    <contour>
      <point x="666" y="-20" type="curve" smooth="yes"/>
      <point x="729" y="-20"/>
      <point x="791" y="-12"/>
      <point x="846" y="0" type="curve"/>
      <point x="1606" y="0" type="line"/>
      <point x="1659" y="256" type="line"/>
      <point x="1147" y="256" type="line"/>
      <point x="1227" y="633" type="line"/>
      <point x="1704" y="633" type="line"/>
      <point x="1759" y="887" type="line"/>
      <point x="1282" y="887" type="line"/>
      <point x="1350" y="1208" type="line"/>
      <point x="1862" y="1208" type="line"/>
      <point x="1915" y="1462" type="line"/>
      <point x="1106" y="1462" type="line"/>
      <point x="1049" y="1481"/>
      <point x="993" y="1485"/>
      <point x="897" y="1485" type="curve" smooth="yes"/>
      <point x="365" y="1485"/>
      <point x="123" y="993"/>
      <point x="123" y="537" type="curve" smooth="yes"/>
      <point x="123" y="201"/>
      <point x="311" y="-20"/>
    </contour>
    <contour>
      <point x="688" y="240" type="curve" smooth="yes"/>
      <point x="528" y="240"/>
      <point x="434" y="342"/>
      <point x="434" y="537" type="curve" smooth="yes"/>
      <point x="434" y="911"/>
      <point x="618" y="1227"/>
      <point x="872" y="1227" type="curve" smooth="yes"/>
      <point x="938" y="1227"/>
      <point x="997" y="1214"/>
      <point x="1040" y="1188" type="curve"/>
      <point x="846" y="272" type="line"/>
      <point x="797" y="250"/>
      <point x="741" y="240"/>
    </contour>
  </outline>
</glyph>
<glyph name="longs" format="2">
  <advance width="733"/>
  <unicode hex="017F"/>
  <anchor x="143" y="-492" name="bottom"/>
  <anchor x="582" y="1567" name="top"/>
  <outline>
    <contour>
      <point x="-72" y="-492" type="curve" smooth="yes"/>
      <point x="180" y="-492"/>
      <point x="289" y="-326"/>
      <point x="332" y="-121" type="curve" smooth="yes"/>
      <point x="608" y="1180" type="line" smooth="yes"/>
      <point x="627" y="1266"/>
      <point x="672" y="1325"/>
      <point x="748" y="1325" type="curve" smooth="yes"/>
      <point x="801" y="1325"/>
      <point x="842" y="1311"/>
      <point x="881" y="1294" type="curve"/>
      <point x="961" y="1518" type="line"/>
      <point x="895" y="1548"/>
      <point x="817" y="1567"/>
      <point x="725" y="1567" type="curve" smooth="yes"/>
      <point x="506" y="1567"/>
      <point x="371" y="1473"/>
      <point x="313" y="1202" type="curve" smooth="yes"/>
      <point x="41" y="-76" type="line" smooth="yes"/>
      <point x="16" y="-195"/>
      <point x="-49" y="-246"/>
      <point x="-131" y="-246" type="curve" smooth="yes"/>
      <point x="-170" y="-246"/>
      <point x="-203" y="-240"/>
      <point x="-246" y="-225" type="curve"/>
      <point x="-246" y="-467" type="line"/>
      <point x="-205" y="-481"/>
      <point x="-135" y="-492"/>
    </contour>
  </outline>
</glyph>
<glyph name="uni0180" format="2">
  <advance width="1219"/>
  <unicode hex="0180"/>
  <anchor x="492" y="0" name="bottom"/>
  <anchor x="821" y="1556" name="top"/>
  <outline>
    <contour>
      <point x="610" y="-20" type="curve" smooth="yes"/>
      <point x="926" y="-20"/>
      <point x="1128" y="369"/>
      <point x="1128" y="733" type="curve" smooth="yes"/>
      <point x="1128" y="1008"/>
      <point x="975" y="1118"/>
      <point x="813" y="1118" type="curve" smooth="yes"/>
      <point x="684" y="1118"/>
      <point x="602" y="1051"/>
      <point x="530" y="969" type="curve"/>
      <point x="522" y="969" type="line"/>
      <point x="543" y="1028"/>
      <point x="569" y="1116"/>
      <point x="590" y="1196" type="curve"/>
      <point x="883" y="1196" type="line"/>
      <point x="924" y="1395" type="line"/>
      <point x="633" y="1395" type="line"/>
      <point x="668" y="1556" type="line"/>
      <point x="367" y="1556" type="line"/>
      <point x="332" y="1395" type="line"/>
      <point x="188" y="1395" type="line"/>
      <point x="147" y="1196" type="line"/>
      <point x="291" y="1196" type="line"/>
      <point x="37" y="0" type="line"/>
      <point x="268" y="0" type="line"/>
      <point x="326" y="143" type="line"/>
      <point x="334" y="143" type="line"/>
      <point x="383" y="45"/>
      <point x="469" y="-20"/>
    </contour>
    <contour>
      <point x="559" y="223" type="curve" smooth="yes"/>
      <point x="473" y="223"/>
      <point x="420" y="293"/>
      <point x="420" y="399" type="curve" smooth="yes"/>
      <point x="420" y="559"/>
      <point x="498" y="874"/>
      <point x="692" y="874" type="curve" smooth="yes"/>
      <point x="780" y="874"/>
      <point x="823" y="825"/>
      <point x="823" y="719" type="curve" smooth="yes"/>
      <point x="823" y="483"/>
      <point x="707" y="223"/>
    </contour>
  </outline>
</glyph>
<glyph name="uni0187" format="2">
  <advance width="1253"/>
  <unicode hex="0187"/>
  <anchor x="508" y="0" name="bottom"/>
  <anchor x="819" y="1462" name="top"/>
  <outline>
    <contour>
      <point x="659" y="-20" type="curve" smooth="yes"/>
      <point x="838" y="-20"/>
      <point x="977" y="25"/>
      <point x="1059" y="57" type="curve"/>
      <point x="1059" y="317" type="line"/>
      <point x="946" y="272"/>
      <point x="831" y="240"/>
      <point x="721" y="240" type="curve" smooth="yes"/>
      <point x="522" y="240"/>
      <point x="434" y="348"/>
      <point x="434" y="569" type="curve" smooth="yes"/>
      <point x="434" y="856"/>
      <point x="575" y="1227"/>
      <point x="905" y="1227" type="curve" smooth="yes"/>
      <point x="1028" y="1227"/>
      <point x="1159" y="1182"/>
      <point x="1268" y="1124" type="curve"/>
      <point x="1343" y="1419" type="line" smooth="yes"/>
      <point x="1368" y="1518"/>
      <point x="1407" y="1556"/>
      <point x="1466" y="1556" type="curve" smooth="yes"/>
      <point x="1509" y="1556"/>
      <point x="1540" y="1548"/>
      <point x="1571" y="1538" type="curve"/>
      <point x="1571" y="1772" type="line"/>
      <point x="1542" y="1784"/>
      <point x="1497" y="1800"/>
      <point x="1432" y="1800" type="curve" smooth="yes"/>
      <point x="1276" y="1800"/>
      <point x="1174" y="1720"/>
      <point x="1116" y="1503" type="curve" smooth="yes"/>
      <point x="1106" y="1464" type="line"/>
      <point x="1047" y="1477"/>
      <point x="987" y="1485"/>
      <point x="905" y="1485" type="curve" smooth="yes"/>
      <point x="362" y="1485"/>
      <point x="123" y="983"/>
      <point x="123" y="553" type="curve" smooth="yes"/>
      <point x="123" y="203"/>
      <point x="305" y="-20"/>
    </contour>
  </outline>
</glyph>
<glyph name="uni019B" format="2">
  <advance width="1171"/>
  <unicode hex="019B"/>
  <anchor x="467" y="0" name="bottom"/>
  <anchor x="801" y="1567" name="top"/>
  <outline>
    <contour>
      <point x="889" y="-20" type="curve" smooth="yes"/>
      <point x="975" y="-20"/>
      <point x="1036" y="-6"/>
      <point x="1079" y="12" type="curve"/>
      <point x="1079" y="246" type="line"/>
      <point x="1051" y="238"/>
      <point x="1030" y="236"/>
      <point x="1012" y="236" type="curve" smooth="yes"/>
      <point x="950" y="236"/>
      <point x="918" y="279"/>
      <point x="897" y="438" type="curve" smooth="yes"/>
      <point x="795" y="1200" type="line"/>
      <point x="956" y="1249" type="line"/>
      <point x="911" y="1411" type="line"/>
      <point x="756" y="1362" type="line"/>
      <point x="702" y="1495"/>
      <point x="602" y="1567"/>
      <point x="432" y="1567" type="curve" smooth="yes"/>
      <point x="362" y="1567"/>
      <point x="297" y="1559"/>
      <point x="240" y="1544" type="curve"/>
      <point x="276" y="1298" type="line"/>
      <point x="305" y="1305"/>
      <point x="342" y="1311"/>
      <point x="377" y="1311" type="curve" smooth="yes"/>
      <point x="418" y="1311"/>
      <point x="449" y="1300"/>
      <point x="471" y="1274" type="curve"/>
      <point x="279" y="1217" type="line"/>
      <point x="326" y="1057" type="line"/>
      <point x="514" y="1114" type="line"/>
      <point x="520" y="1061" type="line"/>
      <point x="-92" y="0" type="line"/>
      <point x="236" y="0" type="line"/>
      <point x="481" y="459" type="line" smooth="yes"/>
      <point x="524" y="539"/>
      <point x="555" y="629"/>
      <point x="586" y="692" type="curve"/>
      <point x="590" y="631"/>
      <point x="594" y="524"/>
      <point x="604" y="453" type="curve" smooth="yes"/>
      <point x="633" y="252" type="line" smooth="yes"/>
      <point x="659" y="72"/>
      <point x="731" y="-20"/>
    </contour>
  </outline>
</glyph>
<glyph name="uni01A4" format="2">
  <advance width="1475"/>
  <unicode hex="01A4"/>
  <anchor x="618" y="0" name="bottom"/>
  <anchor x="930" y="1462" name="top"/>
  <outline>
    <contour>
      <point x="279" y="0" type="line"/>
      <point x="584" y="0" type="line"/>
      <point x="692" y="520" type="line"/>
      <point x="848" y="520" type="line" smooth="yes"/>
      <point x="1210" y="520"/>
      <point x="1485" y="688"/>
      <point x="1485" y="1036" type="curve" smooth="yes"/>
      <point x="1485" y="1290"/>
      <point x="1352" y="1462"/>
      <point x="995" y="1462" type="curve" smooth="yes"/>
      <point x="532" y="1462" type="line" smooth="yes"/>
      <point x="246" y="1462"/>
      <point x="102" y="1303"/>
      <point x="102" y="1073" type="curve" smooth="yes"/>
      <point x="102" y="1047"/>
      <point x="104" y="1016"/>
      <point x="111" y="995" type="curve"/>
      <point x="338" y="995" type="line"/>
      <point x="336" y="1006"/>
      <point x="332" y="1026"/>
      <point x="332" y="1047" type="curve" smooth="yes"/>
      <point x="332" y="1143"/>
      <point x="393" y="1208"/>
      <point x="483" y="1208" type="curve" smooth="yes"/>
      <point x="535" y="1208" type="line"/>
    </contour>
    <contour>
      <point x="748" y="774" type="line"/>
      <point x="840" y="1208" type="line"/>
      <point x="983" y="1208" type="line" smooth="yes"/>
      <point x="1112" y="1208"/>
      <point x="1178" y="1151"/>
      <point x="1178" y="1028" type="curve" smooth="yes"/>
      <point x="1178" y="868"/>
      <point x="1055" y="774"/>
      <point x="872" y="774" type="curve" smooth="yes"/>
    </contour>
  </outline>
</glyph>
<glyph name="uni01AC" format="2">
  <advance width="1180"/>
  <unicode hex="01AC"/>
  <anchor x="471" y="0" name="bottom"/>
  <anchor x="782" y="1462" name="top"/>
  <outline>
    <contour>
      <point x="358" y="0" type="line"/>
      <point x="664" y="0" type="line"/>
      <point x="918" y="1204" type="line"/>
      <point x="1270" y="1204" type="line"/>
      <point x="1325" y="1462" type="line"/>
      <point x="532" y="1462" type="line" smooth="yes"/>
      <point x="246" y="1462"/>
      <point x="102" y="1303"/>
      <point x="102" y="1073" type="curve" smooth="yes"/>
      <point x="102" y="1047"/>
      <point x="104" y="1016"/>
      <point x="111" y="995" type="curve"/>
      <point x="338" y="995" type="line"/>
      <point x="336" y="1006"/>
      <point x="332" y="1026"/>
      <point x="332" y="1047" type="curve" smooth="yes"/>
      <point x="332" y="1143"/>
      <point x="389" y="1204"/>
      <point x="483" y="1204" type="curve" smooth="yes"/>
      <point x="612" y="1204" type="line"/>
    </contour>
  </outline>
</glyph>
<glyph name="uni01AD" format="2">
  <advance width="840"/>
  <unicode hex="01AD"/>
  <anchor x="301" y="0" name="bottom"/>
  <anchor x="635" y="1567" name="top"/>
  <outline>
    <contour>
      <point x="410" y="-20" type="curve" smooth="yes"/>
      <point x="520" y="-20"/>
      <point x="612" y="2"/>
      <point x="676" y="33" type="curve"/>
      <point x="676" y="258" type="line"/>
      <point x="614" y="236"/>
      <point x="569" y="223"/>
      <point x="514" y="223" type="curve" smooth="yes"/>
      <point x="461" y="223"/>
      <point x="426" y="244"/>
      <point x="426" y="297" type="curve" smooth="yes"/>
      <point x="426" y="309"/>
      <point x="428" y="330"/>
      <point x="432" y="350" type="curve" smooth="yes"/>
      <point x="547" y="889" type="line"/>
      <point x="829" y="889" type="line"/>
      <point x="879" y="1118" type="line"/>
      <point x="596" y="1118" type="line"/>
      <point x="614" y="1206" type="line" smooth="yes"/>
      <point x="631" y="1286"/>
      <point x="674" y="1325"/>
      <point x="752" y="1325" type="curve" smooth="yes"/>
      <point x="809" y="1325"/>
      <point x="864" y="1311"/>
      <point x="893" y="1300" type="curve"/>
      <point x="893" y="1534" type="line"/>
      <point x="858" y="1548"/>
      <point x="793" y="1567"/>
      <point x="709" y="1567" type="curve" smooth="yes"/>
      <point x="498" y="1567"/>
      <point x="379" y="1464"/>
      <point x="324" y="1217" type="curve" smooth="yes"/>
      <point x="299" y="1112" type="line"/>
      <point x="123" y="1036" type="line"/>
      <point x="94" y="889" type="line"/>
      <point x="246" y="889" type="line"/>
      <point x="131" y="350" type="line" smooth="yes"/>
      <point x="123" y="309"/>
      <point x="119" y="270"/>
      <point x="119" y="238" type="curve" smooth="yes"/>
      <point x="119" y="43"/>
      <point x="233" y="-20"/>
    </contour>
  </outline>
</glyph>
<glyph name="uhorn" format="2">
  <advance width="1456"/>
  <unicode hex="01B0"/>
  <anchor x="610" y="0" name="bottom"/>
  <anchor x="721" y="1118" name="top"/>
  <outline>
    <contour>
      <point x="395" y="-20" type="curve"/>
      <point x="551" y="-20"/>
      <point x="664" y="74"/>
      <point x="750" y="207" type="curve"/>
      <point x="758" y="207" type="line"/>
      <point x="737" y="0" type="line"/>
      <point x="965" y="0" type="line"/>
      <point x="1139" y="817" type="line"/>
      <point x="1450" y="842"/>
      <point x="1606" y="1032"/>
      <point x="1673" y="1260" type="curve"/>
      <point x="1663" y="1284" type="line"/>
      <point x="1360" y="1284" type="line"/>
      <point x="1337" y="1153"/>
      <point x="1305" y="1038"/>
      <point x="1178" y="1006" type="curve"/>
      <point x="1202" y="1118" type="line"/>
      <point x="901" y="1118" type="line"/>
      <point x="803" y="655" type="line" smooth="yes"/>
      <point x="752" y="418"/>
      <point x="655" y="223"/>
      <point x="518" y="223" type="curve"/>
      <point x="446" y="223"/>
      <point x="410" y="262"/>
      <point x="410" y="346" type="curve"/>
      <point x="410" y="379"/>
      <point x="416" y="420"/>
      <point x="426" y="465" type="curve"/>
      <point x="563" y="1118" type="line"/>
      <point x="262" y="1118" type="line"/>
      <point x="135" y="514" type="line" smooth="yes"/>
      <point x="119" y="434"/>
      <point x="106" y="350"/>
      <point x="106" y="301" type="curve"/>
      <point x="106" y="104"/>
      <point x="203" y="-20"/>
    </contour>
  </outline>
</glyph>
<glyph name="uni01B1" format="2">
  <advance width="1483"/>
  <unicode hex="01B1"/>
  <anchor x="623" y="0" name="bottom"/>
  <anchor x="934" y="1462" name="top"/>
  <outline>
    <contour>
      <point x="657" y="-23" type="curve" smooth="yes"/>
      <point x="1155" y="-23"/>
      <point x="1386" y="352"/>
      <point x="1386" y="743" type="curve" smooth="yes"/>
      <point x="1386" y="969"/>
      <point x="1288" y="1126"/>
      <point x="1167" y="1202" type="curve"/>
      <point x="1540" y="1202" type="line"/>
      <point x="1593" y="1462" type="line"/>
      <point x="983" y="1462" type="line"/>
      <point x="924" y="1186" type="line"/>
      <point x="1024" y="1090"/>
      <point x="1079" y="967"/>
      <point x="1079" y="752" type="curve" smooth="yes"/>
      <point x="1079" y="530"/>
      <point x="958" y="236"/>
      <point x="680" y="236" type="curve" smooth="yes"/>
      <point x="506" y="236"/>
      <point x="422" y="350"/>
      <point x="422" y="535" type="curve" smooth="yes"/>
      <point x="422" y="827"/>
      <point x="563" y="1042"/>
      <point x="809" y="1186" type="curve"/>
      <point x="868" y="1462" type="line"/>
      <point x="219" y="1462" type="line"/>
      <point x="164" y="1202" type="line"/>
      <point x="528" y="1202" type="line"/>
      <point x="348" y="1114"/>
      <point x="111" y="913"/>
      <point x="111" y="498" type="curve" smooth="yes"/>
      <point x="111" y="201"/>
      <point x="289" y="-23"/>
    </contour>
  </outline>
</glyph>
<glyph name="uni01BC" format="2">
  <advance width="1143"/>
  <unicode hex="01BC"/>
  <anchor x="453" y="0" name="bottom"/>
  <anchor x="764" y="1462" name="top"/>
  <outline>
    <contour>
      <point x="383" y="-20" type="curve" smooth="yes"/>
      <point x="772" y="-20"/>
      <point x="1047" y="135"/>
      <point x="1047" y="526" type="curve" smooth="yes"/>
      <point x="1047" y="772"/>
      <point x="885" y="934"/>
      <point x="612" y="934" type="curve" smooth="yes"/>
      <point x="590" y="934" type="line"/>
      <point x="655" y="1204" type="line"/>
      <point x="1149" y="1204" type="line"/>
      <point x="1204" y="1462" type="line"/>
      <point x="254" y="1462" type="line"/>
      <point x="199" y="1204" type="line"/>
      <point x="360" y="1204" type="line"/>
      <point x="242" y="676" type="line"/>
      <point x="471" y="676" type="line" smooth="yes"/>
      <point x="651" y="676"/>
      <point x="735" y="623"/>
      <point x="735" y="502" type="curve" smooth="yes"/>
      <point x="735" y="303"/>
      <point x="561" y="231"/>
      <point x="369" y="231" type="curve" smooth="yes"/>
      <point x="248" y="231"/>
      <point x="90" y="272"/>
      <point x="0" y="326" type="curve"/>
      <point x="0" y="63" type="line"/>
      <point x="88" y="8"/>
      <point x="236" y="-20"/>
    </contour>
  </outline>
</glyph>
<glyph name="uni01BD" format="2">
  <advance width="1096"/>
  <unicode hex="01BD"/>
  <anchor x="430" y="0" name="bottom"/>
  <anchor x="668" y="1118" name="top"/>
  <outline>
    <contour>
      <point x="385" y="-20" type="curve" smooth="yes"/>
      <point x="788" y="-20"/>
      <point x="971" y="131"/>
      <point x="971" y="395" type="curve" smooth="yes"/>
      <point x="971" y="588"/>
      <point x="815" y="690"/>
      <point x="565" y="690" type="curve" smooth="yes"/>
      <point x="535" y="690" type="line"/>
      <point x="580" y="889" type="line"/>
      <point x="1038" y="889" type="line"/>
      <point x="1087" y="1118" type="line"/>
      <point x="186" y="1118" type="line"/>
      <point x="137" y="889" type="line"/>
      <point x="305" y="889" type="line"/>
      <point x="215" y="477" type="line"/>
      <point x="401" y="477" type="line" smooth="yes"/>
      <point x="580" y="477"/>
      <point x="666" y="446"/>
      <point x="666" y="369" type="curve" smooth="yes"/>
      <point x="666" y="260"/>
      <point x="545" y="215"/>
      <point x="354" y="215" type="curve" smooth="yes"/>
      <point x="229" y="215"/>
      <point x="80" y="258"/>
      <point x="0" y="301" type="curve"/>
      <point x="0" y="55" type="line"/>
      <point x="82" y="10"/>
      <point x="240" y="-20"/>
    </contour>
  </outline>
</glyph>
<glyph name="uni01BE" format="2">
  <advance width="967"/>
  <unicode hex="01BE"/>
  <anchor x="365" y="0" name="bottom"/>
  <anchor x="653" y="1356" name="top"/>
  <outline>
    <contour>
      <point x="354" y="-20" type="curve" smooth="yes"/>
      <point x="698" y="-20"/>
      <point x="836" y="139"/>
      <point x="836" y="350" type="curve" smooth="yes"/>
      <point x="836" y="498"/>
      <point x="733" y="573"/>
      <point x="621" y="653" type="curve" smooth="yes"/>
      <point x="578" y="684"/>
      <point x="553" y="717"/>
      <point x="553" y="766" type="curve" smooth="yes"/>
      <point x="553" y="782"/>
      <point x="555" y="799"/>
      <point x="559" y="817" type="curve" smooth="yes"/>
      <point x="575" y="889" type="line"/>
      <point x="850" y="889" type="line"/>
      <point x="899" y="1118" type="line"/>
      <point x="616" y="1118" type="line"/>
      <point x="666" y="1356" type="line"/>
      <point x="471" y="1356" type="line"/>
      <point x="340" y="1120" type="line"/>
      <point x="143" y="1036" type="line"/>
      <point x="115" y="889" type="line"/>
      <point x="303" y="889" type="line"/>
      <point x="295" y="852" type="line" smooth="yes"/>
      <point x="281" y="791"/>
      <point x="276" y="750"/>
      <point x="276" y="721" type="curve" smooth="yes"/>
      <point x="276" y="592"/>
      <point x="344" y="528"/>
      <point x="412" y="475" type="curve" smooth="yes"/>
      <point x="479" y="422"/>
      <point x="543" y="389"/>
      <point x="543" y="334" type="curve" smooth="yes"/>
      <point x="543" y="246"/>
      <point x="469" y="203"/>
      <point x="319" y="203" type="curve" smooth="yes"/>
      <point x="205" y="203"/>
      <point x="80" y="246"/>
      <point x="0" y="291" type="curve"/>
      <point x="0" y="49" type="line"/>
      <point x="74" y="6"/>
      <point x="221" y="-20"/>
    </contour>
  </outline>
</glyph>
<glyph name="uni01E4" format="2">
  <advance width="1413"/>
  <unicode hex="01E4"/>
  <anchor x="588" y="0" name="bottom"/>
  <anchor x="899" y="1462" name="top"/>
  <outline>
    <contour>
      <point x="664" y="-20" type="curve" smooth="yes"/>
      <point x="887" y="-20"/>
      <point x="1022" y="14"/>
      <point x="1155" y="59" type="curve"/>
      <point x="1212" y="328" type="line"/>
      <point x="1341" y="328" type="line"/>
      <point x="1382" y="526" type="line"/>
      <point x="1255" y="526" type="line"/>
      <point x="1331" y="883" type="line"/>
      <point x="768" y="883" type="line"/>
      <point x="713" y="625" type="line"/>
      <point x="979" y="625" type="line"/>
      <point x="958" y="526" type="line"/>
      <point x="711" y="526" type="line"/>
      <point x="670" y="328" type="line"/>
      <point x="913" y="328" type="line"/>
      <point x="895" y="244" type="line"/>
      <point x="848" y="229"/>
      <point x="793" y="219"/>
      <point x="737" y="219" type="curve" smooth="yes"/>
      <point x="549" y="219"/>
      <point x="434" y="319"/>
      <point x="434" y="573" type="curve" smooth="yes"/>
      <point x="434" y="881"/>
      <point x="606" y="1223"/>
      <point x="965" y="1223" type="curve" smooth="yes"/>
      <point x="1081" y="1223"/>
      <point x="1176" y="1188"/>
      <point x="1274" y="1135" type="curve"/>
      <point x="1389" y="1386" type="line"/>
      <point x="1257" y="1454"/>
      <point x="1130" y="1485"/>
      <point x="979" y="1485" type="curve" smooth="yes"/>
      <point x="416" y="1485"/>
      <point x="123" y="1047"/>
      <point x="123" y="549" type="curve" smooth="yes"/>
      <point x="123" y="180"/>
      <point x="324" y="-20"/>
    </contour>
  </outline>
</glyph>
<glyph name="uni01E5" format="2">
  <advance width="1217"/>
  <unicode hex="01E5"/>
  <anchor x="385" y="-492" name="bottom"/>
  <anchor x="727" y="1118" name="top"/>
  <outline>
    <contour>
      <point x="391" y="-492" type="curve" smooth="yes"/>
      <point x="621" y="-492"/>
      <point x="795" y="-414"/>
      <point x="889" y="-186" type="curve"/>
      <point x="1051" y="-186" type="line"/>
      <point x="1083" y="-29" type="line"/>
      <point x="938" y="-29" type="line"/>
      <point x="1182" y="1118" type="line"/>
      <point x="950" y="1118" type="line"/>
      <point x="893" y="975" type="line"/>
      <point x="885" y="975" type="line"/>
      <point x="819" y="1075"/>
      <point x="748" y="1139"/>
      <point x="602" y="1139" type="curve" smooth="yes"/>
      <point x="297" y="1139"/>
      <point x="90" y="770"/>
      <point x="90" y="426" type="curve" smooth="yes"/>
      <point x="90" y="158"/>
      <point x="229" y="55"/>
      <point x="391" y="55" type="curve" smooth="yes"/>
      <point x="530" y="55"/>
      <point x="635" y="119"/>
      <point x="707" y="211" type="curve"/>
      <point x="715" y="211" type="line"/>
      <point x="700" y="168"/>
      <point x="672" y="92"/>
      <point x="659" y="47" type="curve" smooth="yes"/>
      <point x="643" y="-29" type="line"/>
      <point x="365" y="-29" type="line"/>
      <point x="332" y="-186" type="line"/>
      <point x="569" y="-186" type="line"/>
      <point x="522" y="-244"/>
      <point x="459" y="-279"/>
      <point x="375" y="-279" type="curve" smooth="yes"/>
      <point x="246" y="-279"/>
      <point x="131" y="-248"/>
      <point x="27" y="-193" type="curve"/>
      <point x="27" y="-420" type="line"/>
      <point x="127" y="-465"/>
      <point x="223" y="-492"/>
    </contour>
    <contour>
      <point x="537" y="285" type="curve" smooth="yes"/>
      <point x="449" y="285"/>
      <point x="395" y="338"/>
      <point x="395" y="444" type="curve" smooth="yes"/>
      <point x="395" y="659"/>
      <point x="510" y="895"/>
      <point x="662" y="895" type="curve" smooth="yes"/>
      <point x="745" y="895"/>
      <point x="799" y="831"/>
      <point x="799" y="735" type="curve" smooth="yes"/>
      <point x="799" y="551"/>
      <point x="705" y="285"/>
    </contour>
  </outline>
</glyph>
<glyph name="uni01F6" format="2">
  <advance width="2064"/>
  <unicode hex="01F6"/>
  <anchor x="913" y="0" name="bottom"/>
  <anchor x="1225" y="1462" name="top"/>
  <outline>
    <contour>
      <point x="1327" y="-20" type="curve" smooth="yes"/>
      <point x="1663" y="-20"/>
      <point x="1808" y="156"/>
      <point x="1880" y="498" type="curve" smooth="yes"/>
      <point x="2009" y="1118" type="line"/>
      <point x="1706" y="1118" type="line"/>
      <point x="1575" y="502" type="line" smooth="yes"/>
      <point x="1534" y="311"/>
      <point x="1475" y="229"/>
      <point x="1346" y="229" type="curve" smooth="yes"/>
      <point x="1247" y="229"/>
      <point x="1200" y="274"/>
      <point x="1200" y="360" type="curve" smooth="yes"/>
      <point x="1200" y="391"/>
      <point x="1204" y="430"/>
      <point x="1214" y="475" type="curve" smooth="yes"/>
      <point x="1423" y="1462" type="line"/>
      <point x="1118" y="1462" type="line"/>
      <point x="997" y="889" type="line"/>
      <point x="547" y="889" type="line"/>
      <point x="668" y="1462" type="line"/>
      <point x="362" y="1462" type="line"/>
      <point x="53" y="0" type="line"/>
      <point x="358" y="0" type="line"/>
      <point x="492" y="631" type="line"/>
      <point x="942" y="631" type="line"/>
      <point x="905" y="455" type="line" smooth="yes"/>
      <point x="895" y="410"/>
      <point x="891" y="369"/>
      <point x="891" y="330" type="curve" smooth="yes"/>
      <point x="891" y="102"/>
      <point x="1051" y="-20"/>
    </contour>
  </outline>
</glyph>
<glyph name="Aringacute" format="2">
  <advance width="1286"/>
  <unicode hex="01FA"/>
  <anchor x="524" y="0" name="bottom"/>
  <anchor x="942" y="1962" name="top"/>
  <outline>
    <contour>
      <point x="-123" y="0" type="line"/>
      <point x="197" y="0" type="line"/>
      <point x="367" y="330" type="line"/>
      <point x="836" y="330" type="line"/>
      <point x="866" y="0" type="line"/>
      <point x="1163" y="0" type="line"/>
      <point x="1008" y="1282" type="line"/>
      <point x="1055" y="1323"/>
      <point x="1085" y="1384"/>
      <point x="1085" y="1462" type="curve" smooth="yes"/>
      <point x="1085" y="1608"/>
      <point x="973" y="1698"/>
      <point x="831" y="1698" type="curve" smooth="yes"/>
      <point x="684" y="1698"/>
      <point x="584" y="1608"/>
      <point x="584" y="1460" type="curve" smooth="yes"/>
      <point x="584" y="1417"/>
      <point x="592" y="1378"/>
      <point x="608" y="1346" type="curve"/>
    </contour>
    <contour>
      <point x="498" y="590" type="line"/>
      <point x="672" y="932" type="line" smooth="yes"/>
      <point x="696" y="979"/>
      <point x="737" y="1067"/>
      <point x="768" y="1149" type="curve"/>
      <point x="780" y="1149" type="line"/>
      <point x="782" y="1061"/>
      <point x="791" y="944"/>
      <point x="795" y="899" type="curve" smooth="yes"/>
      <point x="821" y="590" type="line"/>
    </contour>
    <contour>
      <point x="831" y="1364" type="curve" smooth="yes"/>
      <point x="768" y="1364"/>
      <point x="735" y="1401"/>
      <point x="735" y="1460" type="curve" smooth="yes"/>
      <point x="735" y="1520"/>
      <point x="776" y="1556"/>
      <point x="831" y="1556" type="curve" smooth="yes"/>
      <point x="887" y="1556"/>
      <point x="928" y="1520"/>
      <point x="928" y="1460" type="curve" smooth="yes"/>
      <point x="928" y="1401"/>
      <point x="887" y="1364"/>
    </contour>
    <contour>
      <point x="768" y="1753" type="line"/>
      <point x="983" y="1753" type="line"/>
      <point x="1079" y="1796"/>
      <point x="1239" y="1882"/>
      <point x="1321" y="1952" type="curve"/>
      <point x="1321" y="1962" type="line"/>
      <point x="979" y="1962" type="line"/>
      <point x="926" y="1903"/>
      <point x="834" y="1819"/>
      <point x="768" y="1767" type="curve"/>
    </contour>
  </outline>
</glyph>
<glyph name="uni0221" format="2">
  <advance width="1483"/>
  <unicode hex="0221"/>
  <anchor x="592" y="-147" name="bottom"/>
  <anchor x="952" y="1556" name="top"/>
  <outline>
    <contour>
      <point x="1049" y="-147" type="line"/>
      <point x="1063" y="-102"/>
      <point x="1079" y="-59"/>
      <point x="1094" y="-14" type="curve"/>
      <point x="1141" y="-18"/>
      <point x="1188" y="-20"/>
      <point x="1233" y="-20" type="curve" smooth="yes"/>
      <point x="1503" y="-20"/>
      <point x="1659" y="66"/>
      <point x="1659" y="262" type="curve" smooth="yes"/>
      <point x="1659" y="397"/>
      <point x="1577" y="483"/>
      <point x="1407" y="483" type="curve" smooth="yes"/>
      <point x="1231" y="483"/>
      <point x="1118" y="395"/>
      <point x="1032" y="248" type="curve"/>
      <point x="1026" y="264"/>
      <point x="1024" y="283"/>
      <point x="1024" y="303" type="curve" smooth="yes"/>
      <point x="1024" y="338"/>
      <point x="1030" y="385"/>
      <point x="1038" y="434" type="curve"/>
      <point x="1274" y="1556" type="line"/>
      <point x="973" y="1556" type="line"/>
      <point x="897" y="1198" type="line" smooth="yes"/>
      <point x="879" y="1114"/>
      <point x="870" y="1018"/>
      <point x="870" y="975" type="curve"/>
      <point x="862" y="975" type="line"/>
      <point x="809" y="1067"/>
      <point x="741" y="1139"/>
      <point x="608" y="1139" type="curve" smooth="yes"/>
      <point x="293" y="1139"/>
      <point x="90" y="750"/>
      <point x="90" y="387" type="curve" smooth="yes"/>
      <point x="90" y="90"/>
      <point x="244" y="-20"/>
      <point x="406" y="-20" type="curve" smooth="yes"/>
      <point x="549" y="-20"/>
      <point x="651" y="49"/>
      <point x="766" y="190" type="curve"/>
      <point x="774" y="190" type="line"/>
      <point x="801" y="106"/>
      <point x="860" y="55"/>
      <point x="934" y="25" type="curve"/>
      <point x="920" y="-20"/>
      <point x="905" y="-63"/>
      <point x="891" y="-109" type="curve"/>
    </contour>
    <contour>
      <point x="532" y="223" type="curve" smooth="yes"/>
      <point x="444" y="223"/>
      <point x="395" y="283"/>
      <point x="395" y="399" type="curve" smooth="yes"/>
      <point x="395" y="635"/>
      <point x="512" y="895"/>
      <point x="659" y="895" type="curve" smooth="yes"/>
      <point x="745" y="895"/>
      <point x="799" y="825"/>
      <point x="799" y="719" type="curve" smooth="yes"/>
      <point x="799" y="561"/>
      <point x="721" y="223"/>
    </contour>
    <contour>
      <point x="1278" y="150" type="curve" smooth="yes"/>
      <point x="1237" y="150"/>
      <point x="1200" y="152"/>
      <point x="1167" y="158" type="curve"/>
      <point x="1219" y="256"/>
      <point x="1280" y="311"/>
      <point x="1368" y="311" type="curve" smooth="yes"/>
      <point x="1423" y="311"/>
      <point x="1454" y="289"/>
      <point x="1454" y="244" type="curve" smooth="yes"/>
      <point x="1454" y="180"/>
      <point x="1382" y="150"/>
    </contour>
  </outline>
</glyph>
<glyph name="jdotless" format="2">
  <advance width="608"/>
  <unicode hex="0237"/>
  <anchor x="82" y="-492" name="bottom"/>
  <anchor x="424" y="1118" name="top"/>
  <outline>
    <contour>
      <point x="-88" y="-492" type="curve" smooth="yes"/>
      <point x="164" y="-492"/>
      <point x="272" y="-326"/>
      <point x="315" y="-121" type="curve" smooth="yes"/>
      <point x="580" y="1118" type="line"/>
      <point x="279" y="1118" type="line"/>
      <point x="25" y="-76" type="line" smooth="yes"/>
      <point x="0" y="-195"/>
      <point x="-66" y="-246"/>
      <point x="-147" y="-246" type="curve" smooth="yes"/>
      <point x="-186" y="-246"/>
      <point x="-219" y="-240"/>
      <point x="-262" y="-225" type="curve"/>
      <point x="-262" y="-467" type="line"/>
      <point x="-221" y="-481"/>
      <point x="-152" y="-492"/>
    </contour>
  </outline>
</glyph>
<glyph name="uni023C" format="2">
  <advance width="989"/>
  <unicode hex="023C"/>
  <anchor x="397" y="-317" name="bottom"/>
  <anchor x="729" y="1393" name="top"/>
  <outline>
    <contour>
      <point x="82" y="-317" type="line"/>
      <point x="274" y="-317" type="line"/>
      <point x="1100" y="1393" type="line"/>
      <point x="911" y="1393" type="line"/>
    </contour>
    <component base="c"/>
  </outline>
</glyph>
<glyph name="uni0240" format="2">
  <advance width="932"/>
  <unicode hex="0240"/>
  <anchor x="244" y="-492" name="bottom"/>
  <anchor x="586" y="1118" name="top"/>
  <outline>
    <contour>
      <point x="575" y="-492" type="curve" smooth="yes"/>
      <point x="647" y="-492"/>
      <point x="713" y="-481"/>
      <point x="758" y="-463" type="curve"/>
      <point x="758" y="-231" type="line"/>
      <point x="717" y="-244"/>
      <point x="680" y="-250"/>
      <point x="643" y="-250" type="curve" smooth="yes"/>
      <point x="561" y="-250"/>
      <point x="539" y="-190"/>
      <point x="479" y="-45" type="curve" smooth="yes"/>
      <point x="430" y="76"/>
      <point x="381" y="141"/>
      <point x="307" y="174" type="curve"/>
      <point x="924" y="918" type="line"/>
      <point x="967" y="1118" type="line"/>
      <point x="217" y="1118" type="line"/>
      <point x="166" y="885" type="line"/>
      <point x="563" y="885" type="line"/>
      <point x="-12" y="180" type="line"/>
      <point x="-47" y="0" type="line"/>
      <point x="25" y="0" type="line"/>
      <point x="154" y="0"/>
      <point x="182" y="-63"/>
      <point x="223" y="-180" type="curve" smooth="yes"/>
      <point x="299" y="-393"/>
      <point x="383" y="-492"/>
    </contour>
  </outline>
</glyph>
<glyph name="uni024E" format="2">
  <advance width="1155"/>
  <unicode hex="024E"/>
  <anchor x="459" y="0" name="bottom"/>
  <anchor x="770" y="1462" name="top"/>
  <outline>
    <contour>
      <point x="303" y="0" type="line"/>
      <point x="606" y="0" type="line"/>
      <point x="725" y="559" type="line"/>
      <point x="1073" y="1069" type="line"/>
      <point x="1272" y="1069" type="line"/>
      <point x="1315" y="1268" type="line"/>
      <point x="1210" y="1268" type="line"/>
      <point x="1343" y="1462" type="line"/>
      <point x="1001" y="1462" type="line"/>
      <point x="879" y="1268" type="line"/>
      <point x="539" y="1268" type="line"/>
      <point x="498" y="1462" type="line"/>
      <point x="186" y="1462" type="line"/>
      <point x="238" y="1268" type="line"/>
      <point x="137" y="1268" type="line"/>
      <point x="94" y="1069" type="line"/>
      <point x="289" y="1069" type="line"/>
      <point x="422" y="559" type="line"/>
    </contour>
    <contour>
      <point x="627" y="870" type="line"/>
      <point x="582" y="1069" type="line"/>
      <point x="752" y="1069" type="line"/>
    </contour>
  </outline>
</glyph>
<glyph name="uni025F" format="2">
  <advance width="608"/>
  <unicode hex="025F"/>
  <anchor x="82" y="-492" name="bottom"/>
  <anchor x="424" y="1118" name="top"/>
  <anchor x="637" y="1118" name="topright"/>
  <outline>
    <contour>
      <point x="-90" y="-492" type="curve" smooth="yes"/>
      <point x="162" y="-492"/>
      <point x="270" y="-326"/>
      <point x="313" y="-121" type="curve" smooth="yes"/>
      <point x="438" y="471" type="line"/>
      <point x="592" y="471" type="line"/>
      <point x="635" y="670" type="line"/>
      <point x="481" y="670" type="line"/>
      <point x="578" y="1118" type="line"/>
      <point x="276" y="1118" type="line"/>
      <point x="180" y="670" type="line"/>
      <point x="27" y="670" type="line"/>
      <point x="-16" y="471" type="line"/>
      <point x="139" y="471" type="line"/>
      <point x="23" y="-76" type="line" smooth="yes"/>
      <point x="-2" y="-195"/>
      <point x="-68" y="-246"/>
      <point x="-150" y="-246" type="curve" smooth="yes"/>
      <point x="-188" y="-246"/>
      <point x="-221" y="-240"/>
      <point x="-264" y="-225" type="curve"/>
      <point x="-264" y="-467" type="line"/>
      <point x="-223" y="-481"/>
      <point x="-154" y="-492"/>
    </contour>
  </outline>
</glyph>
<glyph name="uni0260" format="2">
  <advance width="1217"/>
  <unicode hex="0260"/>
  <anchor x="385" y="-492" name="bottom"/>
  <anchor x="823" y="1571" name="top"/>
  <outline>
    <contour>
      <point x="391" y="-492" type="curve" smooth="yes"/>
      <point x="668" y="-492"/>
      <point x="862" y="-379"/>
      <point x="938" y="-27" type="curve" smooth="yes"/>
      <point x="1200" y="1210" type="line" smooth="yes"/>
      <point x="1219" y="1292"/>
      <point x="1266" y="1327"/>
      <point x="1329" y="1327" type="curve" smooth="yes"/>
      <point x="1372" y="1327"/>
      <point x="1409" y="1315"/>
      <point x="1430" y="1307" type="curve"/>
      <point x="1430" y="1540" type="line"/>
      <point x="1405" y="1552"/>
      <point x="1348" y="1571"/>
      <point x="1274" y="1571" type="curve" smooth="yes"/>
      <point x="1061" y="1571"/>
      <point x="946" y="1440"/>
      <point x="903" y="1227" type="curve" smooth="yes"/>
      <point x="897" y="1196" type="line" smooth="yes"/>
      <point x="883" y="1126"/>
      <point x="874" y="1028"/>
      <point x="870" y="975" type="curve"/>
      <point x="862" y="975" type="line"/>
      <point x="801" y="1077"/>
      <point x="741" y="1139"/>
      <point x="594" y="1139" type="curve" smooth="yes"/>
      <point x="299" y="1139"/>
      <point x="90" y="750"/>
      <point x="90" y="385" type="curve" smooth="yes"/>
      <point x="90" y="102"/>
      <point x="229" y="-20"/>
      <point x="391" y="-20" type="curve" smooth="yes"/>
      <point x="530" y="-20"/>
      <point x="616" y="57"/>
      <point x="688" y="150" type="curve"/>
      <point x="696" y="150" type="line"/>
      <point x="686" y="117"/>
      <point x="666" y="49"/>
      <point x="647" y="-14" type="curve" smooth="yes"/>
      <point x="639" y="-45" type="line" smooth="yes"/>
      <point x="604" y="-180"/>
      <point x="514" y="-244"/>
      <point x="375" y="-244" type="curve" smooth="yes"/>
      <point x="246" y="-244"/>
      <point x="131" y="-213"/>
      <point x="27" y="-158" type="curve"/>
      <point x="27" y="-420" type="line"/>
      <point x="127" y="-465"/>
      <point x="223" y="-492"/>
    </contour>
    <contour>
      <point x="537" y="223" type="curve" smooth="yes"/>
      <point x="449" y="223"/>
      <point x="395" y="283"/>
      <point x="395" y="399" type="curve" smooth="yes"/>
      <point x="395" y="635"/>
      <point x="510" y="895"/>
      <point x="662" y="895" type="curve" smooth="yes"/>
      <point x="745" y="895"/>
      <point x="799" y="825"/>
      <point x="799" y="719" type="curve" smooth="yes"/>
      <point x="799" y="506"/>
      <point x="700" y="223"/>
    </contour>
  </outline>
</glyph>
<glyph name="uni026B" format="2">
  <advance width="850"/>
  <unicode hex="026B"/>
  <anchor x="307" y="0" name="bottom"/>
  <anchor x="637" y="1556" name="top"/>
  <outline>
    <contour>
      <point x="152" y="0" type="line"/>
      <point x="453" y="0" type="line"/>
      <point x="582" y="618" type="line"/>
      <point x="596" y="614"/>
      <point x="614" y="612"/>
      <point x="633" y="612" type="curve" smooth="yes"/>
      <point x="766" y="612"/>
      <point x="883" y="698"/>
      <point x="932" y="922" type="curve"/>
      <point x="780" y="922" type="line"/>
      <point x="754" y="846"/>
      <point x="721" y="813"/>
      <point x="674" y="813" type="curve" smooth="yes"/>
      <point x="657" y="813"/>
      <point x="639" y="817"/>
      <point x="627" y="821" type="curve"/>
      <point x="782" y="1556" type="line"/>
      <point x="481" y="1556" type="line"/>
      <point x="346" y="913" type="line"/>
      <point x="336" y="915"/>
      <point x="317" y="918"/>
      <point x="303" y="918" type="curve" smooth="yes"/>
      <point x="168" y="918"/>
      <point x="49" y="834"/>
      <point x="0" y="610" type="curve"/>
      <point x="152" y="610" type="line"/>
      <point x="172" y="676"/>
      <point x="205" y="717"/>
      <point x="256" y="717" type="curve" smooth="yes"/>
      <point x="272" y="717"/>
      <point x="289" y="715"/>
      <point x="303" y="711" type="curve"/>
    </contour>
  </outline>
</glyph>
<glyph name="eshsquatreversed" format="2">
  <advance width="625"/>
  <unicode hex="0285"/>
  <anchor x="90" y="-492" name="bottom"/>
  <anchor x="432" y="1118" name="top"/>
  <outline>
    <contour>
      <point x="326" y="-492" type="curve" smooth="yes"/>
      <point x="393" y="-492"/>
      <point x="471" y="-479"/>
      <point x="516" y="-461" type="curve"/>
      <point x="516" y="-229" type="line"/>
      <point x="481" y="-242"/>
      <point x="451" y="-248"/>
      <point x="412" y="-248" type="curve" smooth="yes"/>
      <point x="358" y="-248"/>
      <point x="330" y="-227"/>
      <point x="330" y="-176" type="curve" smooth="yes"/>
      <point x="330" y="-160"/>
      <point x="334" y="-131"/>
      <point x="342" y="-92" type="curve" smooth="yes"/>
      <point x="514" y="717" type="line"/>
      <point x="524" y="766"/>
      <point x="528" y="811"/>
      <point x="528" y="850" type="curve" smooth="yes"/>
      <point x="528" y="1034"/>
      <point x="420" y="1143"/>
      <point x="250" y="1143" type="curve" smooth="yes"/>
      <point x="164" y="1143"/>
      <point x="109" y="1128"/>
      <point x="43" y="1106" type="curve"/>
      <point x="43" y="862" type="line"/>
      <point x="74" y="874"/>
      <point x="104" y="883"/>
      <point x="139" y="883" type="curve" smooth="yes"/>
      <point x="193" y="883"/>
      <point x="219" y="842"/>
      <point x="219" y="778" type="curve" smooth="yes"/>
      <point x="219" y="760"/>
      <point x="217" y="737"/>
      <point x="213" y="719" type="curve" smooth="yes"/>
      <point x="45" y="-72" type="line" smooth="yes"/>
      <point x="29" y="-145"/>
      <point x="25" y="-201"/>
      <point x="25" y="-233" type="curve" smooth="yes"/>
      <point x="25" y="-403"/>
      <point x="133" y="-492"/>
    </contour>
  </outline>
</glyph>
<glyph name="uni028B" format="2">
  <advance width="1331"/>
  <unicode hex="028B"/>
  <anchor x="547" y="0" name="bottom"/>
  <anchor x="784" y="1118" name="top"/>
  <outline>
    <contour>
      <point x="578" y="-20" type="curve" smooth="yes"/>
      <point x="969" y="-20"/>
      <point x="1110" y="193"/>
      <point x="1171" y="485" type="curve" smooth="yes"/>
      <point x="1229" y="756" type="line"/>
      <point x="1235" y="791"/>
      <point x="1239" y="825"/>
      <point x="1239" y="858" type="curve" smooth="yes"/>
      <point x="1239" y="1008"/>
      <point x="1163" y="1139"/>
      <point x="958" y="1139" type="curve" smooth="yes"/>
      <point x="891" y="1139"/>
      <point x="815" y="1126"/>
      <point x="750" y="1106" type="curve"/>
      <point x="750" y="877" type="line"/>
      <point x="786" y="889"/>
      <point x="815" y="895"/>
      <point x="854" y="895" type="curve" smooth="yes"/>
      <point x="903" y="895"/>
      <point x="934" y="862"/>
      <point x="934" y="807" type="curve" smooth="yes"/>
      <point x="934" y="795"/>
      <point x="932" y="784"/>
      <point x="930" y="770" type="curve" smooth="yes"/>
      <point x="872" y="500" type="line" smooth="yes"/>
      <point x="834" y="317"/>
      <point x="750" y="225"/>
      <point x="608" y="225" type="curve" smooth="yes"/>
      <point x="483" y="225"/>
      <point x="424" y="281"/>
      <point x="424" y="395" type="curve" smooth="yes"/>
      <point x="424" y="426"/>
      <point x="428" y="461"/>
      <point x="436" y="500" type="curve" smooth="yes"/>
      <point x="565" y="1118" type="line"/>
      <point x="264" y="1118" type="line"/>
      <point x="135" y="506" type="line" smooth="yes"/>
      <point x="125" y="459"/>
      <point x="119" y="412"/>
      <point x="119" y="367" type="curve" smooth="yes"/>
      <point x="119" y="145"/>
      <point x="254" y="-20"/>
    </contour>
  </outline>
</glyph>
<glyph name="uni029B" format="2">
  <advance width="1206"/>
  <unicode hex="029B"/>
  <anchor x="485" y="0" name="bottom"/>
  <anchor x="819" y="1567" name="top"/>
  <outline>
    <contour>
      <point x="575" y="-20" type="curve" smooth="yes"/>
      <point x="737" y="-20"/>
      <point x="862" y="12"/>
      <point x="987" y="68" type="curve"/>
      <point x="1106" y="633" type="line"/>
      <point x="608" y="633" type="line"/>
      <point x="565" y="430" type="line"/>
      <point x="774" y="430" type="line"/>
      <point x="735" y="242" type="line"/>
      <point x="692" y="231"/>
      <point x="651" y="223"/>
      <point x="610" y="223" type="curve" smooth="yes"/>
      <point x="465" y="223"/>
      <point x="395" y="311"/>
      <point x="395" y="457" type="curve" smooth="yes"/>
      <point x="395" y="774"/>
      <point x="569" y="895"/>
      <point x="754" y="895" type="curve" smooth="yes"/>
      <point x="860" y="895"/>
      <point x="958" y="866"/>
      <point x="1038" y="829" type="curve"/>
      <point x="1133" y="1057" type="line"/>
      <point x="1165" y="1208" type="line" smooth="yes"/>
      <point x="1184" y="1290"/>
      <point x="1227" y="1323"/>
      <point x="1288" y="1323" type="curve" smooth="yes"/>
      <point x="1333" y="1323"/>
      <point x="1370" y="1313"/>
      <point x="1391" y="1305" type="curve"/>
      <point x="1391" y="1538" type="line"/>
      <point x="1360" y="1552"/>
      <point x="1313" y="1567"/>
      <point x="1255" y="1567" type="curve" smooth="yes"/>
      <point x="1079" y="1567"/>
      <point x="983" y="1468"/>
      <point x="942" y="1294" type="curve" smooth="yes"/>
      <point x="903" y="1128" type="line"/>
      <point x="862" y="1135"/>
      <point x="795" y="1139"/>
      <point x="750" y="1139" type="curve" smooth="yes"/>
      <point x="295" y="1139"/>
      <point x="90" y="840"/>
      <point x="90" y="436" type="curve" smooth="yes"/>
      <point x="90" y="152"/>
      <point x="266" y="-20"/>
    </contour>
  </outline>
</glyph>
<glyph name="caron" format="2">
  <advance width="979"/>
  <unicode hex="02C7"/>
  <outline>
    <contour>
      <point x="473" y="1241" type="curve"/>
      <point x="811" y="1241" type="line"/>
      <point x="883" y="1331"/>
      <point x="1024" y="1468"/>
      <point x="1106" y="1544" type="curve"/>
      <point x="1106" y="1569" type="line"/>
      <point x="889" y="1569" type="line"/>
      <point x="809" y="1518"/>
      <point x="737" y="1466"/>
      <point x="657" y="1401" type="curve"/>
      <point x="610" y="1458"/>
      <point x="543" y="1528"/>
      <point x="496" y="1569" type="curve"/>
      <point x="297" y="1569" type="line"/>
      <point x="297" y="1544" type="line"/>
      <point x="352" y="1464"/>
      <point x="432" y="1337"/>
    </contour>
  </outline>
</glyph>
<glyph name="dotaccent" format="2">
  <advance width="496"/>
  <unicode hex="02D9"/>
  <outline>
    <contour>
      <point x="414" y="1257" type="curve" smooth="yes"/>
      <point x="537" y="1257"/>
      <point x="594" y="1329"/>
      <point x="594" y="1436" type="curve" smooth="yes"/>
      <point x="594" y="1526"/>
      <point x="524" y="1556"/>
      <point x="444" y="1556" type="curve" smooth="yes"/>
      <point x="330" y="1556"/>
      <point x="262" y="1495"/>
      <point x="262" y="1380" type="curve" smooth="yes"/>
      <point x="262" y="1290"/>
      <point x="328" y="1257"/>
    </contour>
  </outline>
</glyph>
<glyph name="rhotichookmod" format="2">
  <advance width="508"/>
  <unicode hex="02DE"/>
  <outline>
    <contour>
      <point x="266" y="336" type="curve" smooth="yes"/>
      <point x="362" y="336"/>
      <point x="442" y="371"/>
      <point x="512" y="420" type="curve"/>
      <point x="434" y="590" type="line"/>
      <point x="399" y="565"/>
      <point x="362" y="545"/>
      <point x="313" y="545" type="curve" smooth="yes"/>
      <point x="252" y="545"/>
      <point x="223" y="594"/>
      <point x="223" y="719" type="curve" smooth="yes"/>
      <point x="223" y="823" type="line"/>
      <point x="-215" y="713" type="line"/>
      <point x="-207" y="520" type="line"/>
      <point x="25" y="575" type="line"/>
      <point x="45" y="408"/>
      <point x="137" y="336"/>
    </contour>
  </outline>
</glyph>
<glyph name="uni02F3" format="2">
  <advance width="682"/>
  <unicode hex="02F3"/>
  <outline>
    <contour>
      <point x="145" y="-600" type="curve" smooth="yes"/>
      <point x="289" y="-600"/>
      <point x="399" y="-510"/>
      <point x="399" y="-360" type="curve" smooth="yes"/>
      <point x="399" y="-215"/>
      <point x="287" y="-125"/>
      <point x="145" y="-125" type="curve" smooth="yes"/>
      <point x="-2" y="-125"/>
      <point x="-102" y="-215"/>
      <point x="-102" y="-362" type="curve" smooth="yes"/>
      <point x="-102" y="-510"/>
      <point x="-2" y="-600"/>
    </contour>
    <contour>
      <point x="145" y="-459" type="curve" smooth="yes"/>
      <point x="82" y="-459"/>
      <point x="49" y="-422"/>
      <point x="49" y="-362" type="curve" smooth="yes"/>
      <point x="49" y="-303"/>
      <point x="90" y="-266"/>
      <point x="145" y="-266" type="curve" smooth="yes"/>
      <point x="201" y="-266"/>
      <point x="242" y="-303"/>
      <point x="242" y="-362" type="curve" smooth="yes"/>
      <point x="242" y="-422"/>
      <point x="201" y="-459"/>
    </contour>
  </outline>
</glyph>
<glyph name="hookpalatalizedbelowcomb" format="2">
  <unicode hex="0321"/>
  <anchor x="-92" y="0" name="_bottom"/>
  <anchor x="-197" y="-492" name="bottom"/>
  <outline>
    <contour>
      <point x="-244" y="-492" type="curve" smooth="yes"/>
      <point x="-70" y="-492"/>
      <point x="23" y="-399"/>
      <point x="76" y="-154" type="curve" smooth="yes"/>
      <point x="131" y="106" type="line"/>
      <point x="-123" y="106" type="line"/>
      <point x="-178" y="-152" type="line" smooth="yes"/>
      <point x="-195" y="-231"/>
      <point x="-231" y="-270"/>
      <point x="-297" y="-270" type="curve" smooth="yes"/>
      <point x="-330" y="-270"/>
      <point x="-371" y="-262"/>
      <point x="-395" y="-252" type="curve"/>
      <point x="-395" y="-465" type="line"/>
      <point x="-356" y="-481"/>
      <point x="-305" y="-492"/>
    </contour>
  </outline>
</glyph>
<glyph name="dotbelowcomb" format="2">
  <unicode hex="0323"/>
  <anchor x="-700" y="0" name="_bottom"/>
  <anchor x="-756" y="-430" name="bottom"/>
  <outline>
    <contour>
      <point x="-774" y="-430" type="curve" smooth="yes"/>
      <point x="-651" y="-430"/>
      <point x="-594" y="-358"/>
      <point x="-594" y="-252" type="curve" smooth="yes"/>
      <point x="-594" y="-162"/>
      <point x="-664" y="-131"/>
      <point x="-743" y="-131" type="curve" smooth="yes"/>
      <point x="-858" y="-131"/>
      <point x="-926" y="-193"/>
      <point x="-926" y="-307" type="curve" smooth="yes"/>
      <point x="-926" y="-397"/>
      <point x="-860" y="-430"/>
    </contour>
  </outline>
</glyph>
<glyph name="lowlinecomb" format="2">
  <unicode hex="0332"/>
  <anchor x="-96" y="0" name="_bottom"/>
  <anchor x="-145" y="-324" name="bottom"/>
  <outline>
    <contour>
      <point x="-623" y="-324" type="line"/>
      <point x="295" y="-324" type="line"/>
      <point x="324" y="-184" type="line"/>
      <point x="-594" y="-184" type="line"/>
    </contour>
  </outline>
</glyph>
<glyph name="breveinverteddoublecomb" format="2">
  <unicode hex="0361"/>
  <anchor x="-342" y="1270" name="_top"/>
  <anchor x="221" y="1759" name="top"/>
  <outline>
    <contour>
      <point x="-559" y="1354" type="curve"/>
      <point x="-354" y="1354" type="line"/>
      <point x="-211" y="1489"/>
      <point x="10" y="1556"/>
      <point x="264" y="1556" type="curve" smooth="yes"/>
      <point x="561" y="1556"/>
      <point x="723" y="1473"/>
      <point x="805" y="1354" type="curve"/>
      <point x="993" y="1354" type="line"/>
      <point x="926" y="1618"/>
      <point x="678" y="1759"/>
      <point x="276" y="1759" type="curve" smooth="yes"/>
      <point x="-84" y="1759"/>
      <point x="-367" y="1638"/>
    </contour>
  </outline>
</glyph>
<glyph name="Gamma" format="2">
  <advance width="1030"/>
  <unicode hex="0393"/>
  <anchor x="397" y="0" name="bottom"/>
  <anchor x="782" y="1462" name="top"/>
  <outline>
    <contour>
      <point x="53" y="0" type="line"/>
      <point x="354" y="0" type="line"/>
      <point x="610" y="1208" type="line"/>
      <point x="1122" y="1208" type="line"/>
      <point x="1176" y="1462" type="line"/>
      <point x="362" y="1462" type="line"/>
    </contour>
  </outline>
</glyph>
<glyph name="Xi" format="2">
  <advance width="1067"/>
  <unicode hex="039E"/>
  <anchor x="416" y="0" name="bottom"/>
  <anchor x="727" y="1462" name="top"/>
  <outline>
    <contour>
      <point x="-43" y="0" type="line"/>
      <point x="858" y="0" type="line"/>
      <point x="911" y="256" type="line"/>
      <point x="8" y="256" type="line"/>
    </contour>
    <contour>
      <point x="207" y="633" type="line"/>
      <point x="874" y="633" type="line"/>
      <point x="930" y="887" type="line"/>
      <point x="262" y="887" type="line"/>
    </contour>
    <contour>
      <point x="252" y="1208" type="line"/>
      <point x="1075" y="1208" type="line"/>
      <point x="1128" y="1462" type="line"/>
      <point x="305" y="1462" type="line"/>
    </contour>
  </outline>
</glyph>
<glyph name="Pi" format="2">
  <advance width="1423"/>
  <unicode hex="03A0"/>
  <anchor x="594" y="0" name="bottom"/>
  <anchor x="905" y="1462" name="top"/>
  <outline>
    <contour>
      <point x="53" y="0" type="line"/>
      <point x="358" y="0" type="line"/>
      <point x="614" y="1204" type="line"/>
      <point x="1075" y="1204" type="line"/>
      <point x="819" y="0" type="line"/>
      <point x="1124" y="0" type="line"/>
      <point x="1434" y="1462" type="line"/>
      <point x="362" y="1462" type="line"/>
    </contour>
  </outline>
</glyph>
<glyph name="Phi" format="2">
  <advance width="1671"/>
  <unicode hex="03A6"/>
  <anchor x="717" y="0" name="bottom"/>
  <anchor x="1028" y="1462" name="top"/>
  <outline>
    <contour>
      <point x="557" y="-20" type="line"/>
      <point x="842" y="-20" type="line"/>
      <point x="891" y="205" type="line"/>
      <point x="1346" y="211"/>
      <point x="1608" y="440"/>
      <point x="1608" y="821" type="curve" smooth="yes"/>
      <point x="1608" y="1067"/>
      <point x="1470" y="1274"/>
      <point x="1124" y="1303" type="curve"/>
      <point x="1161" y="1483" type="line"/>
      <point x="877" y="1483" type="line"/>
      <point x="840" y="1303" type="line"/>
      <point x="426" y="1288"/>
      <point x="123" y="1100"/>
      <point x="123" y="690" type="curve" smooth="yes"/>
      <point x="123" y="459"/>
      <point x="242" y="231"/>
      <point x="606" y="203" type="curve"/>
    </contour>
    <contour>
      <point x="657" y="444" type="line"/>
      <point x="498" y="449"/>
      <point x="428" y="551"/>
      <point x="428" y="688" type="curve" smooth="yes"/>
      <point x="428" y="920"/>
      <point x="571" y="1047"/>
      <point x="788" y="1061" type="curve"/>
    </contour>
    <contour>
      <point x="942" y="444" type="curve"/>
      <point x="1073" y="1061" type="line"/>
      <point x="1231" y="1057"/>
      <point x="1303" y="954"/>
      <point x="1303" y="821" type="curve" smooth="yes"/>
      <point x="1303" y="598"/>
      <point x="1174" y="459"/>
    </contour>
  </outline>
</glyph>
<glyph name="gamma" format="2">
  <advance width="1049"/>
  <unicode hex="03B3"/>
  <anchor x="301" y="-492" name="bottom"/>
  <anchor x="643" y="1118" name="top"/>
  <anchor x="1126" y="1118" name="topright"/>
  <outline>
    <contour>
      <point x="59" y="-492" type="curve"/>
      <point x="381" y="-492" type="line"/>
      <point x="420" y="-309"/>
      <point x="485" y="-133"/>
      <point x="616" y="106" type="curve" smooth="yes"/>
      <point x="1167" y="1118" type="line"/>
      <point x="844" y="1118" type="line"/>
      <point x="596" y="623" type="line" smooth="yes"/>
      <point x="545" y="520"/>
      <point x="487" y="399"/>
      <point x="453" y="303" type="curve"/>
      <point x="444" y="303" type="line" smooth="yes"/>
      <point x="444" y="399"/>
      <point x="444" y="512"/>
      <point x="436" y="618" type="curve" smooth="yes"/>
      <point x="397" y="1118" type="line"/>
      <point x="102" y="1118" type="line"/>
      <point x="242" y="14" type="line"/>
      <point x="152" y="-156"/>
      <point x="92" y="-324"/>
    </contour>
  </outline>
</glyph>
<glyph name="iota" format="2">
  <advance width="752"/>
  <unicode hex="03B9"/>
  <anchor x="258" y="0" name="bottom"/>
  <anchor x="440" y="1118" name="top"/>
  <anchor x="160" y="1118" name="topleft"/>
  <outline>
    <contour>
      <point x="387" y="-20" type="curve" smooth="yes"/>
      <point x="498" y="-20"/>
      <point x="590" y="2"/>
      <point x="653" y="33" type="curve"/>
      <point x="653" y="258" type="line"/>
      <point x="592" y="236"/>
      <point x="547" y="223"/>
      <point x="492" y="223" type="curve" smooth="yes"/>
      <point x="438" y="223"/>
      <point x="406" y="246"/>
      <point x="406" y="295" type="curve" smooth="yes"/>
      <point x="406" y="311"/>
      <point x="410" y="338"/>
      <point x="418" y="377" type="curve" smooth="yes"/>
      <point x="573" y="1118" type="line"/>
      <point x="272" y="1118" type="line"/>
      <point x="119" y="395" type="line" smooth="yes"/>
      <point x="100" y="309"/>
      <point x="96" y="270"/>
      <point x="96" y="238" type="curve" smooth="yes"/>
      <point x="96" y="43"/>
      <point x="211" y="-20"/>
    </contour>
  </outline>
</glyph>
<glyph name="sigma1" format="2">
  <advance width="948"/>
  <unicode hex="03C2"/>
  <anchor x="276" y="-379" name="bottom"/>
  <anchor x="594" y="1118" name="top"/>
  <outline>
    <contour>
      <point x="324" y="-379" type="curve"/>
      <point x="639" y="-379" type="line"/>
      <point x="756" y="-270"/>
      <point x="825" y="-170"/>
      <point x="825" y="-37" type="curve" smooth="yes"/>
      <point x="825" y="123"/>
      <point x="715" y="190"/>
      <point x="573" y="256" type="curve" smooth="yes"/>
      <point x="467" y="305"/>
      <point x="395" y="356"/>
      <point x="395" y="487" type="curve" smooth="yes"/>
      <point x="395" y="680"/>
      <point x="508" y="895"/>
      <point x="694" y="895" type="curve" smooth="yes"/>
      <point x="772" y="895"/>
      <point x="848" y="870"/>
      <point x="918" y="838" type="curve"/>
      <point x="1010" y="1067" type="line"/>
      <point x="924" y="1108"/>
      <point x="825" y="1139"/>
      <point x="690" y="1139" type="curve" smooth="yes"/>
      <point x="283" y="1139"/>
      <point x="90" y="762"/>
      <point x="90" y="446" type="curve" smooth="yes"/>
      <point x="90" y="225"/>
      <point x="201" y="111"/>
      <point x="383" y="29" type="curve" smooth="yes"/>
      <point x="502" y="-25"/>
      <point x="516" y="-57"/>
      <point x="516" y="-98" type="curve" smooth="yes"/>
      <point x="516" y="-180"/>
      <point x="428" y="-274"/>
    </contour>
  </outline>
</glyph>
<glyph name="chi" format="2">
  <advance width="1130"/>
  <unicode hex="03C7"/>
  <anchor x="342" y="-492" name="bottom"/>
  <anchor x="684" y="1118" name="top"/>
  <anchor x="1208" y="1118" name="topright"/>
  <outline>
    <contour>
      <point x="-260" y="-492" type="line"/>
      <point x="68" y="-492" type="line"/>
      <point x="453" y="88" type="line"/>
      <point x="494" y="-193" type="line" smooth="yes"/>
      <point x="524" y="-401"/>
      <point x="602" y="-492"/>
      <point x="774" y="-492" type="curve" smooth="yes"/>
      <point x="854" y="-492"/>
      <point x="911" y="-479"/>
      <point x="969" y="-459" type="curve"/>
      <point x="969" y="-221" type="line"/>
      <point x="922" y="-233"/>
      <point x="893" y="-236"/>
      <point x="866" y="-236" type="curve" smooth="yes"/>
      <point x="809" y="-236"/>
      <point x="774" y="-209"/>
      <point x="760" y="-119" type="curve" smooth="yes"/>
      <point x="686" y="344" type="line"/>
      <point x="1260" y="1118" type="line"/>
      <point x="928" y="1118" type="line"/>
      <point x="608" y="653" type="line"/>
      <point x="582" y="836" type="line" smooth="yes"/>
      <point x="551" y="1051"/>
      <point x="473" y="1139"/>
      <point x="307" y="1139" type="curve" smooth="yes"/>
      <point x="236" y="1139"/>
      <point x="162" y="1122"/>
      <point x="104" y="1100" type="curve"/>
      <point x="156" y="862" type="line"/>
      <point x="184" y="872"/>
      <point x="203" y="877"/>
      <point x="229" y="877" type="curve" smooth="yes"/>
      <point x="285" y="877"/>
      <point x="309" y="838"/>
      <point x="326" y="735" type="curve" smooth="yes"/>
      <point x="379" y="401" type="line"/>
    </contour>
  </outline>
</glyph>
<glyph name="omega" format="2">
  <advance width="1679"/>
  <unicode hex="03C9"/>
  <anchor x="745" y="0" name="bottom"/>
  <anchor x="952" y="1118" name="top"/>
  <outline>
    <contour>
      <point x="438" y="-20" type="curve" smooth="yes"/>
      <point x="602" y="-20"/>
      <point x="698" y="59"/>
      <point x="772" y="182" type="curve"/>
      <point x="807" y="59"/>
      <point x="885" y="-20"/>
      <point x="1047" y="-20" type="curve" smooth="yes"/>
      <point x="1413" y="-20"/>
      <point x="1589" y="354"/>
      <point x="1589" y="854" type="curve" smooth="yes"/>
      <point x="1589" y="944"/>
      <point x="1575" y="1051"/>
      <point x="1559" y="1118" type="curve"/>
      <point x="1274" y="1118" type="line"/>
      <point x="1294" y="1030"/>
      <point x="1305" y="940"/>
      <point x="1305" y="831" type="curve" smooth="yes"/>
      <point x="1305" y="541"/>
      <point x="1208" y="217"/>
      <point x="1040" y="217" type="curve" smooth="yes"/>
      <point x="971" y="217"/>
      <point x="940" y="260"/>
      <point x="940" y="332" type="curve" smooth="yes"/>
      <point x="940" y="369"/>
      <point x="948" y="416"/>
      <point x="958" y="467" type="curve" smooth="yes"/>
      <point x="1022" y="762" type="line"/>
      <point x="737" y="762" type="line"/>
      <point x="674" y="467" type="line" smooth="yes"/>
      <point x="639" y="307"/>
      <point x="594" y="217"/>
      <point x="492" y="217" type="curve" smooth="yes"/>
      <point x="412" y="217"/>
      <point x="379" y="283"/>
      <point x="379" y="389" type="curve" smooth="yes"/>
      <point x="379" y="627"/>
      <point x="492" y="901"/>
      <point x="639" y="1118" type="curve"/>
      <point x="336" y="1118" type="line"/>
      <point x="201" y="903"/>
      <point x="90" y="651"/>
      <point x="90" y="381" type="curve" smooth="yes"/>
      <point x="90" y="143"/>
      <point x="205" y="-20"/>
    </contour>
  </outline>
</glyph>
<glyph name="uni03DC" format="2">
  <advance width="1087"/>
  <unicode hex="03DC"/>
  <anchor x="426" y="0" name="bottom"/>
  <anchor x="737" y="1462" name="top"/>
  <outline>
    <contour>
      <point x="53" y="0" type="line"/>
      <point x="358" y="0" type="line"/>
      <point x="479" y="578" type="line"/>
      <point x="702" y="578" type="line"/>
      <point x="651" y="338" type="line"/>
      <point x="907" y="338" type="line"/>
      <point x="1012" y="831" type="line"/>
      <point x="535" y="831" type="line"/>
      <point x="614" y="1208" type="line"/>
      <point x="1122" y="1208" type="line"/>
      <point x="1176" y="1462" type="line"/>
      <point x="362" y="1462" type="line"/>
    </contour>
  </outline>
</glyph>
<glyph name="uni03F0" format="2">
  <advance width="1280"/>
  <unicode hex="03F0"/>
  <anchor x="522" y="0" name="bottom"/>
  <anchor x="760" y="1118" name="top"/>
  <outline>
    <contour>
      <point x="1028" y="-20" type="curve" smooth="yes"/>
      <point x="1079" y="-20"/>
      <point x="1143" y="-10"/>
      <point x="1182" y="4" type="curve"/>
      <point x="1182" y="219" type="line"/>
      <point x="1161" y="211"/>
      <point x="1126" y="203"/>
      <point x="1094" y="203" type="curve" smooth="yes"/>
      <point x="1018" y="203"/>
      <point x="973" y="236"/>
      <point x="973" y="324" type="curve" smooth="yes"/>
      <point x="973" y="573"/>
      <point x="1190" y="942"/>
      <point x="1323" y="1118" type="curve"/>
      <point x="1055" y="1118" type="line"/>
      <point x="469" y="530" type="line"/>
      <point x="496" y="598"/>
      <point x="532" y="684"/>
      <point x="532" y="817" type="curve" smooth="yes"/>
      <point x="532" y="1040"/>
      <point x="395" y="1118"/>
      <point x="227" y="1118" type="curve" smooth="yes"/>
      <point x="166" y="1118"/>
      <point x="98" y="1106"/>
      <point x="57" y="1090" type="curve"/>
      <point x="92" y="881" type="line"/>
      <point x="113" y="889"/>
      <point x="139" y="897"/>
      <point x="174" y="897" type="curve" smooth="yes"/>
      <point x="231" y="897"/>
      <point x="268" y="854"/>
      <point x="268" y="764" type="curve" smooth="yes"/>
      <point x="268" y="551"/>
      <point x="100" y="197"/>
      <point x="-41" y="0" type="curve"/>
      <point x="225" y="0" type="line"/>
      <point x="786" y="578" type="line"/>
      <point x="739" y="485"/>
      <point x="707" y="385"/>
      <point x="707" y="272" type="curve" smooth="yes"/>
      <point x="707" y="57"/>
      <point x="848" y="-20"/>
    </contour>
  </outline>
</glyph>
<glyph name="afii10058" format="2">
  <advance width="1960"/>
  <unicode hex="0409"/>
  <anchor x="862" y="0" name="bottom"/>
  <anchor x="1174" y="1462" name="top"/>
  <outline>
    <contour>
      <point x="82" y="-20" type="curve" smooth="yes"/>
      <point x="311" y="-20"/>
      <point x="434" y="66"/>
      <point x="569" y="416" type="curve" smooth="yes"/>
      <point x="637" y="590"/>
      <point x="725" y="891"/>
      <point x="803" y="1204" type="curve"/>
      <point x="1057" y="1204" type="line"/>
      <point x="803" y="0" type="line"/>
      <point x="1241" y="0" type="line"/>
      <point x="1622" y="0"/>
      <point x="1855" y="164"/>
      <point x="1855" y="502" type="curve" smooth="yes"/>
      <point x="1855" y="735"/>
      <point x="1710" y="901"/>
      <point x="1366" y="901" type="curve" smooth="yes"/>
      <point x="1298" y="901" type="line"/>
      <point x="1417" y="1462" type="line"/>
      <point x="573" y="1462" type="line"/>
      <point x="453" y="997"/>
      <point x="360" y="686"/>
      <point x="287" y="500" type="curve" smooth="yes"/>
      <point x="199" y="274"/>
      <point x="127" y="238"/>
      <point x="39" y="238" type="curve" smooth="yes"/>
      <point x="0" y="238"/>
      <point x="-29" y="246"/>
      <point x="-61" y="258" type="curve"/>
      <point x="-61" y="4" type="line"/>
      <point x="-23" y="-10"/>
      <point x="27" y="-20"/>
    </contour>
    <contour>
      <point x="1161" y="254" type="line"/>
      <point x="1245" y="647" type="line"/>
      <point x="1354" y="647" type="line" smooth="yes"/>
      <point x="1483" y="647"/>
      <point x="1546" y="590"/>
      <point x="1546" y="492" type="curve" smooth="yes"/>
      <point x="1546" y="358"/>
      <point x="1475" y="254"/>
      <point x="1280" y="254" type="curve" smooth="yes"/>
    </contour>
  </outline>
</glyph>
<glyph name="afii10060" format="2">
  <advance width="1520"/>
  <unicode hex="040B"/>
  <anchor x="641" y="0" name="bottom"/>
  <anchor x="952" y="1462" name="top"/>
  <outline>
    <contour>
      <point x="264" y="0" type="line"/>
      <point x="569" y="0" type="line"/>
      <point x="713" y="674" type="line"/>
      <point x="930" y="674" type="line" smooth="yes"/>
      <point x="1055" y="674"/>
      <point x="1079" y="621"/>
      <point x="1079" y="551" type="curve" smooth="yes"/>
      <point x="1079" y="537"/>
      <point x="1075" y="504"/>
      <point x="1069" y="471" type="curve" smooth="yes"/>
      <point x="969" y="0" type="line"/>
      <point x="1278" y="0" type="line"/>
      <point x="1362" y="418" type="line" smooth="yes"/>
      <point x="1376" y="492"/>
      <point x="1384" y="555"/>
      <point x="1384" y="592" type="curve" smooth="yes"/>
      <point x="1384" y="805"/>
      <point x="1253" y="932"/>
      <point x="993" y="932" type="curve" smooth="yes"/>
      <point x="768" y="932" type="line"/>
      <point x="825" y="1204" type="line"/>
      <point x="1229" y="1204" type="line"/>
      <point x="1284" y="1462" type="line"/>
      <point x="223" y="1462" type="line"/>
      <point x="168" y="1204" type="line"/>
      <point x="520" y="1204" type="line"/>
    </contour>
  </outline>
</glyph>
<glyph name="afii10028" format="2">
  <advance width="1219"/>
  <unicode hex="041A"/>
  <anchor x="492" y="0" name="bottom"/>
  <anchor x="842" y="1462" name="top"/>
  <outline>
    <contour>
      <point x="53" y="0" type="line"/>
      <point x="358" y="0" type="line"/>
      <point x="510" y="719" type="line"/>
      <point x="782" y="0" type="line"/>
      <point x="1120" y="0" type="line"/>
      <point x="825" y="739" type="line"/>
      <point x="1407" y="1462" type="line"/>
      <point x="1063" y="1462" type="line"/>
      <point x="522" y="778" type="line"/>
      <point x="668" y="1462" type="line"/>
      <point x="362" y="1462" type="line"/>
    </contour>
  </outline>
</glyph>
<glyph name="afii10042" format="2">
  <advance width="2056"/>
  <unicode hex="0428"/>
  <anchor x="909" y="0" name="bottom"/>
  <anchor x="1221" y="1462" name="top"/>
  <outline>
    <contour>
      <point x="53" y="0" type="line"/>
      <point x="1757" y="0" type="line"/>
      <point x="2066" y="1462" type="line"/>
      <point x="1753" y="1462" type="line"/>
      <point x="1497" y="258" type="line"/>
      <point x="1116" y="258" type="line"/>
      <point x="1372" y="1462" type="line"/>
      <point x="1057" y="1462" type="line"/>
      <point x="801" y="258" type="line"/>
      <point x="420" y="258" type="line"/>
      <point x="676" y="1462" type="line"/>
      <point x="362" y="1462" type="line"/>
    </contour>
  </outline>
</glyph>
<glyph name="afii10043" format="2">
  <advance width="2134"/>
  <unicode hex="0429"/>
  <anchor x="948" y="0" name="bottom"/>
  <anchor x="1260" y="1462" name="top"/>
  <outline>
    <contour>
      <point x="1571" y="-426" type="line"/>
      <point x="1874" y="-426" type="line"/>
      <point x="2017" y="246" type="line"/>
      <point x="1808" y="246" type="line"/>
      <point x="2066" y="1462" type="line"/>
      <point x="1753" y="1462" type="line"/>
      <point x="1497" y="258" type="line"/>
      <point x="1116" y="258" type="line"/>
      <point x="1372" y="1462" type="line"/>
      <point x="1057" y="1462" type="line"/>
      <point x="801" y="258" type="line"/>
      <point x="420" y="258" type="line"/>
      <point x="676" y="1462" type="line"/>
      <point x="362" y="1462" type="line"/>
      <point x="53" y="0" type="line"/>
      <point x="1663" y="0" type="line"/>
    </contour>
  </outline>
</glyph>
<glyph name="afii10046" format="2">
  <advance width="1212"/>
  <unicode hex="042C"/>
  <anchor x="487" y="0" name="bottom"/>
  <anchor x="799" y="1462" name="top"/>
  <outline>
    <contour>
      <point x="53" y="0" type="line"/>
      <point x="492" y="0" type="line"/>
      <point x="872" y="0"/>
      <point x="1106" y="164"/>
      <point x="1106" y="492" type="curve" smooth="yes"/>
      <point x="1106" y="735"/>
      <point x="961" y="901"/>
      <point x="616" y="901" type="curve" smooth="yes"/>
      <point x="549" y="901" type="line"/>
      <point x="668" y="1462" type="line"/>
      <point x="362" y="1462" type="line"/>
    </contour>
    <contour>
      <point x="412" y="254" type="line"/>
      <point x="496" y="647" type="line"/>
      <point x="604" y="647" type="line" smooth="yes"/>
      <point x="733" y="647"/>
      <point x="797" y="590"/>
      <point x="797" y="477" type="curve" smooth="yes"/>
      <point x="797" y="358"/>
      <point x="725" y="254"/>
      <point x="512" y="254" type="curve" smooth="yes"/>
    </contour>
  </outline>
</glyph>
<glyph name="afii10047" format="2">
  <advance width="1255"/>
  <unicode hex="042D"/>
  <anchor x="508" y="0" name="bottom"/>
  <anchor x="819" y="1462" name="top"/>
  <outline>
    <contour>
      <point x="424" y="-20" type="curve" smooth="yes"/>
      <point x="967" y="-20"/>
      <point x="1190" y="481"/>
      <point x="1190" y="920" type="curve" smooth="yes"/>
      <point x="1190" y="1278"/>
      <point x="1008" y="1485"/>
      <point x="659" y="1485" type="curve" smooth="yes"/>
      <point x="500" y="1485"/>
      <point x="348" y="1450"/>
      <point x="219" y="1395" type="curve"/>
      <point x="299" y="1149" type="line"/>
      <point x="422" y="1198"/>
      <point x="502" y="1227"/>
      <point x="621" y="1227" type="curve" smooth="yes"/>
      <point x="793" y="1227"/>
      <point x="879" y="1120"/>
      <point x="879" y="915" type="curve" smooth="yes"/>
      <point x="879" y="897"/>
      <point x="879" y="881"/>
      <point x="877" y="864" type="curve"/>
      <point x="350" y="864" type="line"/>
      <point x="297" y="610" type="line"/>
      <point x="836" y="610" type="line"/>
      <point x="758" y="365"/>
      <point x="621" y="238"/>
      <point x="389" y="238" type="curve" smooth="yes"/>
      <point x="285" y="238"/>
      <point x="164" y="258"/>
      <point x="27" y="334" type="curve"/>
      <point x="27" y="63" type="line"/>
      <point x="137" y="2"/>
      <point x="264" y="-20"/>
    </contour>
  </outline>
</glyph>
<glyph name="afii10066" format="2">
  <advance width="1198"/>
  <unicode hex="0431"/>
  <anchor x="481" y="0" name="bottom"/>
  <anchor x="815" y="1567" name="top"/>
  <outline>
    <contour>
      <point x="522" y="-20" type="curve" smooth="yes"/>
      <point x="924" y="-20"/>
      <point x="1106" y="334"/>
      <point x="1106" y="674" type="curve" smooth="yes"/>
      <point x="1106" y="903"/>
      <point x="1006" y="1042"/>
      <point x="809" y="1042" type="curve" smooth="yes"/>
      <point x="657" y="1042"/>
      <point x="547" y="958"/>
      <point x="477" y="870" type="curve"/>
      <point x="471" y="872" type="line"/>
      <point x="535" y="1120"/>
      <point x="651" y="1206"/>
      <point x="838" y="1243" type="curve" smooth="yes"/>
      <point x="952" y="1266"/>
      <point x="1139" y="1290"/>
      <point x="1268" y="1309" type="curve"/>
      <point x="1237" y="1567" type="line"/>
      <point x="1036" y="1542"/>
      <point x="745" y="1507"/>
      <point x="598" y="1442" type="curve" smooth="yes"/>
      <point x="270" y="1296"/>
      <point x="109" y="858"/>
      <point x="109" y="461" type="curve" smooth="yes"/>
      <point x="109" y="129"/>
      <point x="270" y="-20"/>
    </contour>
    <contour>
      <point x="551" y="227" type="curve" smooth="yes"/>
      <point x="453" y="227"/>
      <point x="414" y="315"/>
      <point x="414" y="451" type="curve" smooth="yes"/>
      <point x="414" y="512"/>
      <point x="426" y="588"/>
      <point x="438" y="645" type="curve"/>
      <point x="489" y="715"/>
      <point x="590" y="817"/>
      <point x="688" y="817" type="curve" smooth="yes"/>
      <point x="768" y="817"/>
      <point x="803" y="760"/>
      <point x="803" y="664" type="curve" smooth="yes"/>
      <point x="803" y="457"/>
      <point x="696" y="227"/>
    </contour>
  </outline>
</glyph>
<glyph name="afii10078" format="2">
  <advance width="1581"/>
  <unicode hex="043C"/>
  <anchor x="672" y="0" name="bottom"/>
  <anchor x="909" y="1118" name="top"/>
  <outline>
    <contour>
      <point x="45" y="0" type="line"/>
      <point x="322" y="0" type="line"/>
      <point x="430" y="541" type="line" smooth="yes"/>
      <point x="449" y="627"/>
      <point x="465" y="711"/>
      <point x="479" y="821" type="curve"/>
      <point x="483" y="821" type="line"/>
      <point x="528" y="0" type="line"/>
      <point x="817" y="0" type="line"/>
      <point x="1241" y="821" type="line"/>
      <point x="1247" y="821" type="line"/>
      <point x="1229" y="760"/>
      <point x="1202" y="657"/>
      <point x="1180" y="553" type="curve" smooth="yes"/>
      <point x="1057" y="0" type="line"/>
      <point x="1335" y="0" type="line"/>
      <point x="1575" y="1118" type="line"/>
      <point x="1147" y="1118" type="line"/>
      <point x="745" y="338" type="line"/>
      <point x="739" y="338" type="line"/>
      <point x="696" y="1118" type="line"/>
      <point x="281" y="1118" type="line"/>
    </contour>
  </outline>
</glyph>
<glyph name="afii10089" format="2">
  <advance width="1219"/>
  <unicode hex="0447"/>
  <anchor x="492" y="0" name="bottom"/>
  <anchor x="705" y="1118" name="top"/>
  <outline>
    <contour>
      <point x="645" y="0" type="line"/>
      <point x="946" y="0" type="line"/>
      <point x="1184" y="1118" type="line"/>
      <point x="883" y="1118" type="line"/>
      <point x="856" y="991" type="line" smooth="yes"/>
      <point x="799" y="721"/>
      <point x="723" y="582"/>
      <point x="586" y="582" type="curve" smooth="yes"/>
      <point x="510" y="582"/>
      <point x="467" y="625"/>
      <point x="467" y="709" type="curve" smooth="yes"/>
      <point x="467" y="741"/>
      <point x="473" y="782"/>
      <point x="483" y="827" type="curve" smooth="yes"/>
      <point x="545" y="1118" type="line"/>
      <point x="244" y="1118" type="line"/>
      <point x="193" y="877" type="line" smooth="yes"/>
      <point x="176" y="797"/>
      <point x="164" y="713"/>
      <point x="164" y="664" type="curve" smooth="yes"/>
      <point x="164" y="467"/>
      <point x="270" y="342"/>
      <point x="453" y="342" type="curve" smooth="yes"/>
      <point x="573" y="342"/>
      <point x="666" y="395"/>
      <point x="745" y="483" type="curve"/>
      <point x="754" y="483" type="line"/>
      <point x="737" y="426"/>
      <point x="721" y="365"/>
      <point x="709" y="303" type="curve" smooth="yes"/>
    </contour>
  </outline>
</glyph>
<glyph name="afii10107" format="2">
  <advance width="1774"/>
  <unicode hex="045A"/>
  <anchor x="766" y="0" name="bottom"/>
  <anchor x="1004" y="1118" name="top"/>
  <outline>
    <contour>
      <point x="1124" y="-20" type="curve" smooth="yes"/>
      <point x="1522" y="-20"/>
      <point x="1659" y="186"/>
      <point x="1659" y="383" type="curve" smooth="yes"/>
      <point x="1659" y="555"/>
      <point x="1538" y="686"/>
      <point x="1305" y="686" type="curve" smooth="yes"/>
      <point x="1214" y="686"/>
      <point x="1143" y="674"/>
      <point x="1087" y="664" type="curve"/>
      <point x="1186" y="1118" type="line"/>
      <point x="885" y="1118" type="line"/>
      <point x="795" y="688" type="line"/>
      <point x="500" y="688" type="line"/>
      <point x="592" y="1118" type="line"/>
      <point x="289" y="1118" type="line"/>
      <point x="49" y="0" type="line"/>
      <point x="352" y="0" type="line"/>
      <point x="451" y="461" type="line"/>
      <point x="745" y="461" type="line"/>
      <point x="733" y="406"/>
      <point x="725" y="356"/>
      <point x="725" y="307" type="curve" smooth="yes"/>
      <point x="725" y="121"/>
      <point x="831" y="-20"/>
    </contour>
    <contour>
      <point x="1167" y="190" type="curve" smooth="yes"/>
      <point x="1063" y="190"/>
      <point x="1024" y="250"/>
      <point x="1024" y="317" type="curve" smooth="yes"/>
      <point x="1024" y="356"/>
      <point x="1030" y="385"/>
      <point x="1047" y="457" type="curve"/>
      <point x="1106" y="469"/>
      <point x="1163" y="475"/>
      <point x="1206" y="475" type="curve" smooth="yes"/>
      <point x="1317" y="475"/>
      <point x="1356" y="426"/>
      <point x="1356" y="352" type="curve" smooth="yes"/>
      <point x="1356" y="264"/>
      <point x="1292" y="190"/>
    </contour>
  </outline>
</glyph>
<glyph name="uni0465" format="2">
  <advance width="1536"/>
  <unicode hex="0465"/>
  <anchor x="649" y="0" name="bottom"/>
  <anchor x="887" y="1118" name="top"/>
  <outline>
    <contour>
      <point x="1053" y="-20" type="curve" smooth="yes"/>
      <point x="1192" y="-20"/>
      <point x="1294" y="10"/>
      <point x="1389" y="59" type="curve"/>
      <point x="1389" y="305" type="line"/>
      <point x="1296" y="258"/>
      <point x="1214" y="223"/>
      <point x="1114" y="223" type="curve" smooth="yes"/>
      <point x="1006" y="223"/>
      <point x="940" y="289"/>
      <point x="940" y="416" type="curve" smooth="yes"/>
      <point x="940" y="430"/>
      <point x="940" y="446"/>
      <point x="942" y="463" type="curve"/>
      <point x="1300" y="463" type="line"/>
      <point x="1348" y="688" type="line"/>
      <point x="989" y="688" type="line"/>
      <point x="1038" y="809"/>
      <point x="1126" y="895"/>
      <point x="1241" y="895" type="curve" smooth="yes"/>
      <point x="1329" y="895"/>
      <point x="1393" y="868"/>
      <point x="1464" y="838" type="curve"/>
      <point x="1556" y="1067" type="line"/>
      <point x="1464" y="1112"/>
      <point x="1362" y="1139"/>
      <point x="1229" y="1139" type="curve" smooth="yes"/>
      <point x="948" y="1139"/>
      <point x="758" y="948"/>
      <point x="678" y="688" type="curve"/>
      <point x="487" y="688" type="line"/>
      <point x="580" y="1118" type="line"/>
      <point x="276" y="1118" type="line"/>
      <point x="37" y="0" type="line"/>
      <point x="340" y="0" type="line"/>
      <point x="438" y="463" type="line"/>
      <point x="641" y="463" type="line"/>
      <point x="639" y="442"/>
      <point x="637" y="416"/>
      <point x="637" y="393" type="curve" smooth="yes"/>
      <point x="637" y="98"/>
      <point x="821" y="-20"/>
    </contour>
  </outline>
</glyph>
<glyph name="uni0466" format="2">
  <advance width="1370"/>
  <unicode hex="0466"/>
  <anchor x="567" y="0" name="bottom"/>
  <anchor x="879" y="1462" name="top"/>
  <outline>
    <contour>
      <point x="-123" y="0" type="line"/>
      <point x="199" y="0" type="line"/>
      <point x="528" y="631" type="line"/>
      <point x="575" y="631" type="line"/>
      <point x="440" y="0" type="line"/>
      <point x="721" y="0" type="line"/>
      <point x="848" y="631" type="line"/>
      <point x="897" y="631" type="line"/>
      <point x="965" y="0" type="line"/>
      <point x="1247" y="0" type="line"/>
      <point x="1059" y="1468" type="line"/>
      <point x="686" y="1468" type="line"/>
    </contour>
    <contour>
      <point x="659" y="868" type="line"/>
      <point x="707" y="963" type="line" smooth="yes"/>
      <point x="735" y="1020"/>
      <point x="795" y="1145"/>
      <point x="836" y="1237" type="curve"/>
      <point x="842" y="1141"/>
      <point x="852" y="1026"/>
      <point x="860" y="958" type="curve" smooth="yes"/>
      <point x="870" y="868" type="line"/>
    </contour>
  </outline>
</glyph>
<glyph name="uni046B" format="2">
  <advance width="1186"/>
  <unicode hex="046B"/>
  <anchor x="475" y="0" name="bottom"/>
  <anchor x="713" y="1118" name="top"/>
  <outline>
    <contour>
      <point x="-102" y="0" type="line"/>
      <point x="168" y="0" type="line"/>
      <point x="328" y="340" type="line" smooth="yes"/>
      <point x="362" y="414"/>
      <point x="395" y="451"/>
      <point x="457" y="455" type="curve"/>
      <point x="354" y="0" type="line"/>
      <point x="621" y="0" type="line"/>
      <point x="713" y="451" type="line"/>
      <point x="754" y="442"/>
      <point x="776" y="406"/>
      <point x="784" y="307" type="curve" smooth="yes"/>
      <point x="807" y="0" type="line"/>
      <point x="1061" y="0" type="line"/>
      <point x="1024" y="319" type="line" smooth="yes"/>
      <point x="1004" y="492"/>
      <point x="967" y="598"/>
      <point x="842" y="645" type="curve"/>
      <point x="1196" y="1014" type="line"/>
      <point x="1217" y="1118" type="line"/>
      <point x="229" y="1118" type="line"/>
      <point x="207" y="1014" type="line"/>
      <point x="403" y="649" type="line"/>
      <point x="254" y="618"/>
      <point x="174" y="557"/>
      <point x="82" y="371" type="curve" smooth="yes"/>
    </contour>
    <contour>
      <point x="621" y="680" type="line"/>
      <point x="516" y="911" type="line"/>
      <point x="807" y="911" type="line"/>
    </contour>
  </outline>
</glyph>
<glyph name="uni046E" format="2">
  <advance width="1221"/>
  <unicode hex="046E"/>
  <anchor x="393" y="-465" name="bottom"/>
  <anchor x="870" y="1776" name="top"/>
  <outline>
    <contour>
      <point x="793" y="-465" type="curve"/>
      <point x="793" y="-236" type="line"/>
      <point x="774" y="-211"/>
      <point x="731" y="-195"/>
      <point x="641" y="-195" type="curve" smooth="yes"/>
      <point x="537" y="-195"/>
      <point x="467" y="-205"/>
      <point x="340" y="-205" type="curve" smooth="yes"/>
      <point x="258" y="-205"/>
      <point x="221" y="-180"/>
      <point x="221" y="-131" type="curve" smooth="yes"/>
      <point x="221" y="-61"/>
      <point x="293" y="-41"/>
      <point x="487" y="-18" type="curve" smooth="yes"/>
      <point x="821" y="20"/>
      <point x="1094" y="115"/>
      <point x="1094" y="446" type="curve" smooth="yes"/>
      <point x="1094" y="616"/>
      <point x="987" y="733"/>
      <point x="784" y="758" type="curve"/>
      <point x="784" y="766" type="line"/>
      <point x="1028" y="782"/>
      <point x="1200" y="903"/>
      <point x="1200" y="1143" type="curve" smooth="yes"/>
      <point x="1200" y="1290"/>
      <point x="1096" y="1421"/>
      <point x="915" y="1466" type="curve"/>
      <point x="1022" y="1581"/>
      <point x="1077" y="1620"/>
      <point x="1128" y="1620" type="curve" smooth="yes"/>
      <point x="1157" y="1620"/>
      <point x="1178" y="1616"/>
      <point x="1200" y="1610" type="curve"/>
      <point x="1200" y="1759" type="line"/>
      <point x="1174" y="1769"/>
      <point x="1141" y="1776"/>
      <point x="1098" y="1776" type="curve" smooth="yes"/>
      <point x="958" y="1776"/>
      <point x="868" y="1686"/>
      <point x="766" y="1573" type="curve"/>
      <point x="719" y="1636"/>
      <point x="676" y="1681"/>
      <point x="612" y="1747" type="curve"/>
      <point x="446" y="1747" type="line"/>
      <point x="446" y="1722" type="line"/>
      <point x="516" y="1620"/>
      <point x="563" y="1542"/>
      <point x="598" y="1470" type="curve"/>
      <point x="451" y="1448"/>
      <point x="340" y="1395"/>
      <point x="225" y="1321" type="curve"/>
      <point x="334" y="1112" type="line"/>
      <point x="451" y="1188"/>
      <point x="569" y="1235"/>
      <point x="694" y="1235" type="curve" smooth="yes"/>
      <point x="819" y="1235"/>
      <point x="883" y="1176"/>
      <point x="883" y="1081" type="curve" smooth="yes"/>
      <point x="883" y="920"/>
      <point x="694" y="881"/>
      <point x="500" y="881" type="curve" smooth="yes"/>
      <point x="373" y="881" type="line"/>
      <point x="322" y="639" type="line"/>
      <point x="463" y="639" type="line" smooth="yes"/>
      <point x="664" y="639"/>
      <point x="782" y="598"/>
      <point x="782" y="465" type="curve" smooth="yes"/>
      <point x="782" y="356"/>
      <point x="729" y="276"/>
      <point x="449" y="236" type="curve" smooth="yes"/>
      <point x="72" y="180"/>
      <point x="-80" y="100"/>
      <point x="-80" y="-147" type="curve" smooth="yes"/>
      <point x="-80" y="-305"/>
      <point x="31" y="-432"/>
      <point x="274" y="-432" type="curve" smooth="yes"/>
      <point x="375" y="-432"/>
      <point x="539" y="-424"/>
      <point x="647" y="-424" type="curve" smooth="yes"/>
      <point x="721" y="-424"/>
      <point x="772" y="-444"/>
    </contour>
  </outline>
</glyph>
<glyph name="uni046F" format="2">
  <advance width="1073"/>
  <unicode hex="046F"/>
  <anchor x="319" y="-465" name="bottom"/>
  <anchor x="711" y="1380" name="top"/>
  <outline>
    <contour>
      <point x="727" y="-465" type="curve"/>
      <point x="727" y="-236" type="line"/>
      <point x="707" y="-209"/>
      <point x="668" y="-195"/>
      <point x="578" y="-195" type="curve" smooth="yes"/>
      <point x="492" y="-195"/>
      <point x="393" y="-205"/>
      <point x="301" y="-205" type="curve" smooth="yes"/>
      <point x="219" y="-205"/>
      <point x="168" y="-186"/>
      <point x="168" y="-129" type="curve" smooth="yes"/>
      <point x="168" y="-63"/>
      <point x="236" y="-43"/>
      <point x="365" y="-29" type="curve" smooth="yes"/>
      <point x="698" y="8"/>
      <point x="950" y="72"/>
      <point x="950" y="352" type="curve" smooth="yes"/>
      <point x="950" y="479"/>
      <point x="870" y="547"/>
      <point x="760" y="578" type="curve"/>
      <point x="760" y="588" type="line"/>
      <point x="907" y="627"/>
      <point x="1020" y="700"/>
      <point x="1020" y="862" type="curve" smooth="yes"/>
      <point x="1020" y="1001"/>
      <point x="936" y="1077"/>
      <point x="817" y="1114" type="curve"/>
      <point x="899" y="1198"/>
      <point x="948" y="1225"/>
      <point x="993" y="1225" type="curve"/>
      <point x="1022" y="1225"/>
      <point x="1042" y="1221"/>
      <point x="1065" y="1214" type="curve"/>
      <point x="1065" y="1364" type="line"/>
      <point x="1038" y="1374"/>
      <point x="1006" y="1380"/>
      <point x="963" y="1380" type="curve"/>
      <point x="823" y="1380"/>
      <point x="733" y="1290"/>
      <point x="631" y="1178" type="curve"/>
      <point x="584" y="1241"/>
      <point x="541" y="1286"/>
      <point x="477" y="1352" type="curve"/>
      <point x="311" y="1352" type="line"/>
      <point x="311" y="1327" type="line"/>
      <point x="365" y="1247"/>
      <point x="406" y="1184"/>
      <point x="436" y="1124" type="curve"/>
      <point x="344" y="1110"/>
      <point x="260" y="1083"/>
      <point x="178" y="1053" type="curve"/>
      <point x="250" y="834" type="line"/>
      <point x="358" y="881"/>
      <point x="475" y="913"/>
      <point x="565" y="913" type="curve" smooth="yes"/>
      <point x="680" y="913"/>
      <point x="719" y="877"/>
      <point x="719" y="815" type="curve" smooth="yes"/>
      <point x="719" y="713"/>
      <point x="633" y="688"/>
      <point x="469" y="688" type="curve" smooth="yes"/>
      <point x="338" y="688" type="line"/>
      <point x="293" y="477" type="line"/>
      <point x="469" y="477" type="line" smooth="yes"/>
      <point x="586" y="477"/>
      <point x="645" y="436"/>
      <point x="645" y="367" type="curve" smooth="yes"/>
      <point x="645" y="256"/>
      <point x="555" y="231"/>
      <point x="338" y="207" type="curve" smooth="yes"/>
      <point x="41" y="174"/>
      <point x="-92" y="61"/>
      <point x="-92" y="-141" type="curve" smooth="yes"/>
      <point x="-92" y="-322"/>
      <point x="20" y="-432"/>
      <point x="238" y="-432" type="curve" smooth="yes"/>
      <point x="362" y="-432"/>
      <point x="467" y="-424"/>
      <point x="582" y="-424" type="curve" smooth="yes"/>
      <point x="651" y="-424"/>
      <point x="705" y="-442"/>
    </contour>
  </outline>
</glyph>
<glyph name="uni0472" format="2">
  <advance width="1495"/>
  <unicode hex="0472"/>
  <anchor x="629" y="0" name="bottom"/>
  <anchor x="940" y="1462" name="top"/>
  <outline>
    <contour>
      <point x="666" y="-20" type="curve" smooth="yes"/>
      <point x="1200" y="-20"/>
      <point x="1432" y="461"/>
      <point x="1432" y="938" type="curve" smooth="yes"/>
      <point x="1432" y="1268"/>
      <point x="1251" y="1485"/>
      <point x="897" y="1485" type="curve" smooth="yes"/>
      <point x="365" y="1485"/>
      <point x="123" y="993"/>
      <point x="123" y="537" type="curve" smooth="yes"/>
      <point x="123" y="201"/>
      <point x="311" y="-20"/>
    </contour>
    <contour>
      <point x="688" y="240" type="curve" smooth="yes"/>
      <point x="528" y="240"/>
      <point x="432" y="342"/>
      <point x="432" y="537" type="curve" smooth="yes"/>
      <point x="432" y="565"/>
      <point x="434" y="602"/>
      <point x="436" y="621" type="curve"/>
      <point x="1081" y="621" type="line"/>
      <point x="1012" y="381"/>
      <point x="860" y="240"/>
    </contour>
    <contour>
      <point x="487" y="879" type="line"/>
      <point x="561" y="1085"/>
      <point x="702" y="1227"/>
      <point x="872" y="1227" type="curve" smooth="yes"/>
      <point x="1036" y="1227"/>
      <point x="1122" y="1110"/>
      <point x="1122" y="930" type="curve" smooth="yes"/>
      <point x="1122" y="907"/>
      <point x="1120" y="887"/>
      <point x="1120" y="879" type="curve"/>
    </contour>
  </outline>
</glyph>
<glyph name="uni047C" format="2">
  <advance width="2073"/>
  <unicode hex="047C"/>
  <outline>
    <contour>
      <point x="938" y="1864" type="curve"/>
      <point x="1073" y="1864" type="line"/>
      <point x="1092" y="1942"/>
      <point x="1139" y="1978"/>
      <point x="1200" y="1978" type="curve" smooth="yes"/>
      <point x="1346" y="1978"/>
      <point x="1434" y="1864"/>
      <point x="1645" y="1864" type="curve" smooth="yes"/>
      <point x="1663" y="1864" type="line"/>
      <point x="1690" y="1993" type="line"/>
      <point x="1665" y="1993" type="line"/>
      <point x="1493" y="1993"/>
      <point x="1376" y="2107"/>
      <point x="1214" y="2107" type="curve" smooth="yes"/>
      <point x="1071" y="2107"/>
      <point x="971" y="2032"/>
    </contour>
    <contour>
      <point x="1126" y="1546" type="line"/>
      <point x="1294" y="1589"/>
      <point x="1380" y="1667"/>
      <point x="1380" y="1769" type="curve" smooth="yes"/>
      <point x="1380" y="1847"/>
      <point x="1331" y="1894"/>
      <point x="1255" y="1894" type="curve" smooth="yes"/>
      <point x="1194" y="1894"/>
      <point x="1159" y="1870"/>
      <point x="1159" y="1821" type="curve" smooth="yes"/>
      <point x="1159" y="1778"/>
      <point x="1192" y="1765"/>
      <point x="1221" y="1753" type="curve" smooth="yes"/>
      <point x="1241" y="1745"/>
      <point x="1257" y="1737"/>
      <point x="1257" y="1714" type="curve" smooth="yes"/>
      <point x="1257" y="1683"/>
      <point x="1221" y="1653"/>
      <point x="1141" y="1622" type="curve"/>
    </contour>
    <component base="uniA64C"/>
  </outline>
</glyph>
<glyph name="uni048E" format="2">
  <advance width="1249"/>
  <unicode hex="048E"/>
  <anchor x="506" y="0" name="bottom"/>
  <anchor x="817" y="1462" name="top"/>
  <outline>
    <contour>
      <point x="53" y="0" type="line"/>
      <point x="358" y="0" type="line"/>
      <point x="467" y="520" type="line"/>
      <point x="623" y="520" type="line" smooth="yes"/>
      <point x="690" y="520"/>
      <point x="754" y="526"/>
      <point x="813" y="537" type="curve"/>
      <point x="879" y="399" type="line"/>
      <point x="1053" y="481" type="line"/>
      <point x="997" y="598" type="line"/>
      <point x="1157" y="678"/>
      <point x="1260" y="823"/>
      <point x="1260" y="1036" type="curve" smooth="yes"/>
      <point x="1260" y="1290"/>
      <point x="1126" y="1462"/>
      <point x="770" y="1462" type="curve" smooth="yes"/>
      <point x="362" y="1462" type="line"/>
    </contour>
    <contour>
      <point x="522" y="774" type="line"/>
      <point x="614" y="1208" type="line"/>
      <point x="758" y="1208" type="line" smooth="yes"/>
      <point x="887" y="1208"/>
      <point x="952" y="1151"/>
      <point x="952" y="1028" type="curve" smooth="yes"/>
      <point x="952" y="952"/>
      <point x="926" y="893"/>
      <point x="879" y="850" type="curve"/>
      <point x="819" y="975" type="line"/>
      <point x="649" y="893" type="line"/>
      <point x="702" y="776" type="line"/>
      <point x="684" y="774"/>
      <point x="666" y="774"/>
      <point x="647" y="774" type="curve" smooth="yes"/>
    </contour>
  </outline>
</glyph>
<glyph name="uni049D" format="2">
  <advance width="1204"/>
  <unicode hex="049D"/>
  <anchor x="483" y="0" name="bottom"/>
  <anchor x="721" y="1118" name="top"/>
  <outline>
    <contour>
      <point x="90" y="0" type="line"/>
      <point x="391" y="0" type="line"/>
      <point x="508" y="547" type="line"/>
      <point x="772" y="0" type="line"/>
      <point x="1102" y="0" type="line"/>
      <point x="821" y="557" type="line"/>
      <point x="1305" y="1118" type="line"/>
      <point x="969" y="1118" type="line"/>
      <point x="520" y="598" type="line"/>
      <point x="631" y="1118" type="line"/>
      <point x="330" y="1118" type="line"/>
    </contour>
    <contour>
      <point x="479" y="90" type="line"/>
      <point x="612" y="90" type="line"/>
      <point x="807" y="1014" type="line"/>
      <point x="674" y="1014" type="line"/>
    </contour>
  </outline>
</glyph>
<glyph name="uni04A6" format="2">
  <advance width="2114"/>
  <unicode hex="04A6"/>
  <anchor x="829" y="-512" name="bottom"/>
  <anchor x="1249" y="1462" name="top"/>
  <outline>
    <contour>
      <point x="1290" y="-512" type="curve" smooth="yes"/>
      <point x="1724" y="-512"/>
      <point x="1939" y="-141"/>
      <point x="1939" y="256" type="curve" smooth="yes"/>
      <point x="1939" y="666"/>
      <point x="1679" y="819"/>
      <point x="1442" y="819" type="curve" smooth="yes"/>
      <point x="1380" y="819"/>
      <point x="1313" y="809"/>
      <point x="1274" y="799" type="curve"/>
      <point x="1413" y="1462" type="line"/>
      <point x="362" y="1462" type="line"/>
      <point x="53" y="0" type="line"/>
      <point x="358" y="0" type="line"/>
      <point x="614" y="1204" type="line"/>
      <point x="1057" y="1204" type="line"/>
      <point x="801" y="0" type="line"/>
      <point x="1104" y="0" type="line"/>
      <point x="1221" y="547" type="line"/>
      <point x="1249" y="553"/>
      <point x="1290" y="559"/>
      <point x="1348" y="559" type="curve" smooth="yes"/>
      <point x="1516" y="559"/>
      <point x="1628" y="453"/>
      <point x="1628" y="223" type="curve" smooth="yes"/>
      <point x="1628" y="-47"/>
      <point x="1489" y="-254"/>
      <point x="1266" y="-254" type="curve" smooth="yes"/>
      <point x="1165" y="-254"/>
      <point x="1079" y="-236"/>
      <point x="995" y="-203" type="curve"/>
      <point x="995" y="-463" type="line"/>
      <point x="1081" y="-498"/>
      <point x="1176" y="-512"/>
    </contour>
  </outline>
</glyph>
<glyph name="uni04A8" format="2">
  <advance width="1495"/>
  <unicode hex="04A8"/>
  <anchor x="629" y="0" name="bottom"/>
  <anchor x="940" y="1462" name="top"/>
  <outline>
    <contour>
      <point x="1159" y="-84" type="curve" smooth="yes"/>
      <point x="1210" y="-84"/>
      <point x="1292" y="-76"/>
      <point x="1337" y="-57" type="curve"/>
      <point x="1337" y="186" type="line"/>
      <point x="1290" y="170"/>
      <point x="1243" y="160"/>
      <point x="1198" y="160" type="curve" smooth="yes"/>
      <point x="1159" y="160"/>
      <point x="1145" y="162"/>
      <point x="1124" y="172" type="curve"/>
      <point x="1305" y="322"/>
      <point x="1413" y="553"/>
      <point x="1413" y="786" type="curve" smooth="yes"/>
      <point x="1413" y="1012"/>
      <point x="1290" y="1135"/>
      <point x="1085" y="1135" type="curve" smooth="yes"/>
      <point x="840" y="1135"/>
      <point x="635" y="930"/>
      <point x="635" y="532" type="curve" smooth="yes"/>
      <point x="635" y="412"/>
      <point x="657" y="311"/>
      <point x="698" y="233" type="curve"/>
      <point x="676" y="227"/>
      <point x="655" y="225"/>
      <point x="635" y="225" type="curve" smooth="yes"/>
      <point x="496" y="231"/>
      <point x="434" y="379"/>
      <point x="434" y="547" type="curve" smooth="yes"/>
      <point x="434" y="868"/>
      <point x="588" y="1231"/>
      <point x="893" y="1231" type="curve" smooth="yes"/>
      <point x="961" y="1231"/>
      <point x="1014" y="1217"/>
      <point x="1059" y="1200" type="curve"/>
      <point x="1143" y="1440" type="line"/>
      <point x="1065" y="1470"/>
      <point x="991" y="1485"/>
      <point x="893" y="1485" type="curve" smooth="yes"/>
      <point x="367" y="1485"/>
      <point x="123" y="999"/>
      <point x="123" y="541" type="curve" smooth="yes"/>
      <point x="123" y="182"/>
      <point x="332" y="-20"/>
      <point x="666" y="-20" type="curve" smooth="yes"/>
      <point x="743" y="-20"/>
      <point x="817" y="-10"/>
      <point x="885" y="12" type="curve"/>
      <point x="956" y="-49"/>
      <point x="1051" y="-84"/>
    </contour>
    <contour>
      <point x="944" y="328" type="curve"/>
      <point x="928" y="367"/>
      <point x="911" y="432"/>
      <point x="911" y="506" type="curve" smooth="yes"/>
      <point x="911" y="739"/>
      <point x="983" y="903"/>
      <point x="1075" y="903" type="curve" smooth="yes"/>
      <point x="1116" y="903"/>
      <point x="1137" y="864"/>
      <point x="1137" y="801" type="curve" smooth="yes"/>
      <point x="1137" y="633"/>
      <point x="1057" y="430"/>
    </contour>
  </outline>
</glyph>
<glyph name="uni04BE" format="2">
  <advance width="1595"/>
  <unicode hex="04BE"/>
  <anchor x="590" y="-426" name="bottom"/>
  <anchor x="991" y="1462" name="top"/>
  <outline>
    <contour>
      <point x="645" y="-426" type="line"/>
      <point x="948" y="-426" type="line"/>
      <point x="1034" y="-16" type="line"/>
      <point x="1157" y="-8"/>
      <point x="1262" y="16"/>
      <point x="1352" y="57" type="curve"/>
      <point x="1352" y="315" type="line"/>
      <point x="1241" y="272"/>
      <point x="1124" y="240"/>
      <point x="993" y="240" type="curve" smooth="yes"/>
      <point x="788" y="240"/>
      <point x="707" y="360"/>
      <point x="707" y="569" type="curve" smooth="yes"/>
      <point x="707" y="590"/>
      <point x="707" y="602"/>
      <point x="709" y="618" type="curve"/>
      <point x="815" y="618" type="line" smooth="yes"/>
      <point x="1358" y="618"/>
      <point x="1595" y="803"/>
      <point x="1595" y="1108" type="curve" smooth="yes"/>
      <point x="1595" y="1335"/>
      <point x="1456" y="1485"/>
      <point x="1178" y="1485" type="curve" smooth="yes"/>
      <point x="799" y="1485"/>
      <point x="551" y="1243"/>
      <point x="434" y="868" type="curve"/>
      <point x="424" y="868" type="line" smooth="yes"/>
      <point x="358" y="868"/>
      <point x="334" y="909"/>
      <point x="334" y="954" type="curve" smooth="yes"/>
      <point x="334" y="1004"/>
      <point x="362" y="1057"/>
      <point x="387" y="1096" type="curve"/>
      <point x="135" y="1096" type="line"/>
      <point x="90" y="1036"/>
      <point x="61" y="961"/>
      <point x="61" y="881" type="curve" smooth="yes"/>
      <point x="61" y="727"/>
      <point x="188" y="641"/>
      <point x="399" y="631" type="curve"/>
      <point x="397" y="600"/>
      <point x="395" y="573"/>
      <point x="395" y="545" type="curve" smooth="yes"/>
      <point x="395" y="295"/>
      <point x="492" y="80"/>
      <point x="739" y="6" type="curve"/>
    </contour>
    <contour>
      <point x="758" y="868" type="line"/>
      <point x="821" y="1079"/>
      <point x="981" y="1227"/>
      <point x="1151" y="1227" type="curve" smooth="yes"/>
      <point x="1241" y="1227"/>
      <point x="1288" y="1178"/>
      <point x="1288" y="1100" type="curve" smooth="yes"/>
      <point x="1288" y="920"/>
      <point x="1085" y="868"/>
      <point x="850" y="868" type="curve" smooth="yes"/>
    </contour>
  </outline>
</glyph>
<glyph name="uni04C3" format="2">
  <advance width="1417"/>
  <unicode hex="04C3"/>
  <anchor x="481" y="-512" name="bottom"/>
  <anchor x="901" y="1462" name="top"/>
  <outline>
    <contour>
      <point x="590" y="-512" type="curve" smooth="yes"/>
      <point x="1057" y="-512"/>
      <point x="1243" y="-106"/>
      <point x="1243" y="248" type="curve" smooth="yes"/>
      <point x="1243" y="582"/>
      <point x="1049" y="741"/>
      <point x="852" y="776" type="curve"/>
      <point x="1407" y="1462" type="line"/>
      <point x="1063" y="1462" type="line"/>
      <point x="522" y="778" type="line"/>
      <point x="668" y="1462" type="line"/>
      <point x="362" y="1462" type="line"/>
      <point x="53" y="0" type="line"/>
      <point x="358" y="0" type="line"/>
      <point x="467" y="520" type="line"/>
      <point x="512" y="535"/>
      <point x="567" y="545"/>
      <point x="627" y="545" type="curve" smooth="yes"/>
      <point x="838" y="545"/>
      <point x="932" y="430"/>
      <point x="932" y="223" type="curve" smooth="yes"/>
      <point x="932" y="-53"/>
      <point x="791" y="-254"/>
      <point x="569" y="-254" type="curve" smooth="yes"/>
      <point x="459" y="-254"/>
      <point x="379" y="-236"/>
      <point x="299" y="-203" type="curve"/>
      <point x="299" y="-463" type="line"/>
      <point x="385" y="-498"/>
      <point x="489" y="-512"/>
    </contour>
  </outline>
</glyph>
<glyph name="uni04C5" format="2">
  <advance width="1556"/>
  <unicode hex="04C5"/>
  <anchor x="569" y="-426" name="bottom"/>
  <anchor x="971" y="1462" name="top"/>
  <outline>
    <contour>
      <point x="825" y="-426" type="line"/>
      <point x="1171" y="-426" type="line"/>
      <point x="1483" y="266" type="line"/>
      <point x="1178" y="266" type="line"/>
      <point x="1434" y="1462" type="line"/>
      <point x="573" y="1462" type="line"/>
      <point x="453" y="997"/>
      <point x="360" y="686"/>
      <point x="287" y="500" type="curve" smooth="yes"/>
      <point x="199" y="274"/>
      <point x="127" y="238"/>
      <point x="39" y="238" type="curve" smooth="yes"/>
      <point x="0" y="238"/>
      <point x="-29" y="246"/>
      <point x="-61" y="258" type="curve"/>
      <point x="-61" y="4" type="line"/>
      <point x="-23" y="-10"/>
      <point x="27" y="-20"/>
      <point x="82" y="-20" type="curve" smooth="yes"/>
      <point x="311" y="-20"/>
      <point x="434" y="66"/>
      <point x="569" y="416" type="curve" smooth="yes"/>
      <point x="637" y="590"/>
      <point x="725" y="891"/>
      <point x="803" y="1204" type="curve"/>
      <point x="1075" y="1204" type="line"/>
      <point x="819" y="0" type="line"/>
      <point x="1087" y="0" type="line"/>
    </contour>
  </outline>
</glyph>
<glyph name="uni04CB" format="2">
  <advance width="1378"/>
  <unicode hex="04CB"/>
  <anchor x="481" y="-426" name="bottom"/>
  <anchor x="883" y="1462" name="top"/>
  <outline>
    <contour>
      <point x="399" y="-426" type="line"/>
      <point x="702" y="-426" type="line"/>
      <point x="793" y="0" type="line"/>
      <point x="1079" y="0" type="line"/>
      <point x="1389" y="1462" type="line"/>
      <point x="1083" y="1462" type="line"/>
      <point x="944" y="807" type="line"/>
      <point x="850" y="764"/>
      <point x="754" y="733"/>
      <point x="649" y="733" type="curve" smooth="yes"/>
      <point x="551" y="733"/>
      <point x="496" y="778"/>
      <point x="496" y="864" type="curve" smooth="yes"/>
      <point x="496" y="889"/>
      <point x="500" y="915"/>
      <point x="506" y="946" type="curve" smooth="yes"/>
      <point x="614" y="1462" type="line"/>
      <point x="309" y="1462" type="line"/>
      <point x="197" y="913" type="line" smooth="yes"/>
      <point x="188" y="870"/>
      <point x="184" y="831"/>
      <point x="184" y="797" type="curve" smooth="yes"/>
      <point x="184" y="559"/>
      <point x="365" y="475"/>
      <point x="545" y="475" type="curve" smooth="yes"/>
      <point x="668" y="475"/>
      <point x="795" y="516"/>
      <point x="893" y="561" type="curve"/>
      <point x="825" y="246" type="line"/>
      <point x="547" y="246" type="line"/>
    </contour>
  </outline>
</glyph>
<glyph name="uni04CC" format="2">
  <advance width="1219"/>
  <unicode hex="04CC"/>
  <anchor x="406" y="-401" name="bottom"/>
  <anchor x="729" y="1118" name="top"/>
  <outline>
    <contour>
      <point x="301" y="-401" type="line"/>
      <point x="580" y="-401" type="line"/>
      <point x="664" y="0" type="line"/>
      <point x="946" y="0" type="line"/>
      <point x="1184" y="1118" type="line"/>
      <point x="883" y="1118" type="line"/>
      <point x="856" y="991" type="line" smooth="yes"/>
      <point x="799" y="721"/>
      <point x="723" y="582"/>
      <point x="586" y="582" type="curve"/>
      <point x="510" y="582"/>
      <point x="467" y="625"/>
      <point x="467" y="709" type="curve"/>
      <point x="467" y="741"/>
      <point x="473" y="782"/>
      <point x="483" y="827" type="curve" smooth="yes"/>
      <point x="545" y="1118" type="line"/>
      <point x="244" y="1118" type="line"/>
      <point x="193" y="877" type="line" smooth="yes"/>
      <point x="176" y="797"/>
      <point x="164" y="713"/>
      <point x="164" y="664" type="curve"/>
      <point x="164" y="467"/>
      <point x="270" y="342"/>
      <point x="453" y="342" type="curve" smooth="yes"/>
      <point x="573" y="342"/>
      <point x="664" y="395"/>
      <point x="743" y="483" type="curve"/>
      <point x="752" y="483" type="line"/>
      <point x="739" y="442"/>
      <point x="721" y="365"/>
      <point x="709" y="305" type="curve" smooth="yes"/>
      <point x="696" y="250" type="line"/>
      <point x="453" y="250" type="line"/>
    </contour>
  </outline>
</glyph>
<glyph name="uni04D8" format="2">
  <advance width="1352"/>
  <unicode hex="04D8"/>
  <anchor x="557" y="0" name="bottom"/>
  <anchor x="868" y="1462" name="top"/>
  <outline>
    <contour>
      <point x="512" y="-20" type="curve" smooth="yes"/>
      <point x="1053" y="-20"/>
      <point x="1288" y="485"/>
      <point x="1288" y="911" type="curve" smooth="yes"/>
      <point x="1288" y="1237"/>
      <point x="1128" y="1485"/>
      <point x="731" y="1485" type="curve" smooth="yes"/>
      <point x="565" y="1485"/>
      <point x="434" y="1456"/>
      <point x="322" y="1407" type="curve"/>
      <point x="322" y="1149" type="line"/>
      <point x="432" y="1192"/>
      <point x="549" y="1225"/>
      <point x="694" y="1225" type="curve" smooth="yes"/>
      <point x="885" y="1225"/>
      <point x="979" y="1108"/>
      <point x="979" y="911" type="curve" smooth="yes"/>
      <point x="979" y="887"/>
      <point x="977" y="862"/>
      <point x="975" y="846" type="curve"/>
      <point x="868" y="846" type="line" smooth="yes"/>
      <point x="254" y="846"/>
      <point x="68" y="627"/>
      <point x="68" y="356" type="curve" smooth="yes"/>
      <point x="68" y="129"/>
      <point x="213" y="-20"/>
    </contour>
    <contour>
      <point x="514" y="238" type="curve" smooth="yes"/>
      <point x="440" y="238"/>
      <point x="375" y="279"/>
      <point x="375" y="367" type="curve" smooth="yes"/>
      <point x="375" y="500"/>
      <point x="494" y="596"/>
      <point x="774" y="596" type="curve" smooth="yes"/>
      <point x="928" y="596" type="line"/>
      <point x="852" y="383"/>
      <point x="717" y="238"/>
    </contour>
  </outline>
</glyph>
<glyph name="uni04FE" format="2">
  <advance width="1241"/>
  <unicode hex="04FE"/>
  <anchor x="502" y="0" name="bottom"/>
  <anchor x="813" y="1462" name="top"/>
  <outline>
    <contour>
      <point x="-117" y="0" type="line"/>
      <point x="225" y="0" type="line"/>
      <point x="621" y="543" type="line"/>
      <point x="793" y="0" type="line"/>
      <point x="1124" y="0" type="line"/>
      <point x="897" y="618" type="line"/>
      <point x="1147" y="618" type="line"/>
      <point x="1200" y="872" type="line"/>
      <point x="954" y="872" type="line"/>
      <point x="1401" y="1462" type="line"/>
      <point x="1057" y="1462" type="line"/>
      <point x="694" y="944" type="line"/>
      <point x="541" y="1462" type="line"/>
      <point x="221" y="1462" type="line"/>
      <point x="424" y="872" type="line"/>
      <point x="174" y="872" type="line"/>
      <point x="121" y="618" type="line"/>
      <point x="350" y="618" type="line"/>
    </contour>
  </outline>
</glyph>
<glyph name="uni0509" format="2">
  <advance width="1835"/>
  <unicode hex="0509"/>
  <anchor x="799" y="0" name="bottom"/>
  <anchor x="1036" y="1118" name="top"/>
  <outline>
    <contour>
      <point x="1171" y="-20" type="curve" smooth="yes"/>
      <point x="1438" y="-20"/>
      <point x="1593" y="100"/>
      <point x="1653" y="381" type="curve" smooth="yes"/>
      <point x="1720" y="700" type="line"/>
      <point x="1415" y="700" type="line"/>
      <point x="1362" y="451" type="line" smooth="yes"/>
      <point x="1327" y="287"/>
      <point x="1288" y="223"/>
      <point x="1182" y="223" type="curve" smooth="yes"/>
      <point x="1114" y="223"/>
      <point x="1067" y="266"/>
      <point x="1067" y="340" type="curve" smooth="yes"/>
      <point x="1067" y="365"/>
      <point x="1071" y="393"/>
      <point x="1077" y="426" type="curve" smooth="yes"/>
      <point x="1214" y="1081" type="line"/>
      <point x="1137" y="1110"/>
      <point x="1006" y="1139"/>
      <point x="868" y="1139" type="curve" smooth="yes"/>
      <point x="463" y="1139"/>
      <point x="371" y="963"/>
      <point x="238" y="586" type="curve" smooth="yes"/>
      <point x="172" y="397"/>
      <point x="129" y="236"/>
      <point x="25" y="236" type="curve" smooth="yes"/>
      <point x="-6" y="236"/>
      <point x="-31" y="240"/>
      <point x="-59" y="252" type="curve"/>
      <point x="-59" y="4" type="line"/>
      <point x="-12" y="-14"/>
      <point x="29" y="-20"/>
      <point x="90" y="-20" type="curve" smooth="yes"/>
      <point x="346" y="-20"/>
      <point x="416" y="203"/>
      <point x="508" y="477" type="curve" smooth="yes"/>
      <point x="600" y="750"/>
      <point x="647" y="893"/>
      <point x="811" y="893" type="curve" smooth="yes"/>
      <point x="834" y="893"/>
      <point x="854" y="889"/>
      <point x="874" y="885" type="curve"/>
      <point x="776" y="426" type="line" smooth="yes"/>
      <point x="768" y="387"/>
      <point x="764" y="350"/>
      <point x="764" y="313" type="curve" smooth="yes"/>
      <point x="764" y="117"/>
      <point x="893" y="-20"/>
    </contour>
  </outline>
</glyph>
<glyph name="uni0522" format="2">
  <advance width="2140"/>
  <unicode hex="0522"/>
  <anchor x="844" y="-512" name="bottom"/>
  <anchor x="1264" y="1462" name="top"/>
  <outline>
    <contour>
      <point x="1313" y="-512" type="curve" smooth="yes"/>
      <point x="1763" y="-512"/>
      <point x="1966" y="-127"/>
      <point x="1966" y="256" type="curve" smooth="yes"/>
      <point x="1966" y="666"/>
      <point x="1710" y="819"/>
      <point x="1468" y="819" type="curve" smooth="yes"/>
      <point x="1409" y="819"/>
      <point x="1343" y="809"/>
      <point x="1300" y="799" type="curve"/>
      <point x="1444" y="1462" type="line"/>
      <point x="1139" y="1462" type="line"/>
      <point x="1018" y="889" type="line"/>
      <point x="547" y="889" type="line"/>
      <point x="668" y="1462" type="line"/>
      <point x="362" y="1462" type="line"/>
      <point x="53" y="0" type="line"/>
      <point x="358" y="0" type="line"/>
      <point x="492" y="631" type="line"/>
      <point x="963" y="631" type="line"/>
      <point x="829" y="0" type="line"/>
      <point x="1130" y="0" type="line"/>
      <point x="1247" y="547" type="line"/>
      <point x="1272" y="553"/>
      <point x="1327" y="559"/>
      <point x="1374" y="559" type="curve" smooth="yes"/>
      <point x="1554" y="559"/>
      <point x="1655" y="442"/>
      <point x="1655" y="223" type="curve" smooth="yes"/>
      <point x="1655" y="-51"/>
      <point x="1516" y="-254"/>
      <point x="1292" y="-254" type="curve" smooth="yes"/>
      <point x="1192" y="-254"/>
      <point x="1106" y="-236"/>
      <point x="1022" y="-203" type="curve"/>
      <point x="1022" y="-463" type="line"/>
      <point x="1096" y="-492"/>
      <point x="1198" y="-512"/>
    </contour>
  </outline>
</glyph>
<glyph name="uni0524" format="2">
  <advance width="1559"/>
  <unicode hex="0524"/>
  <anchor x="571" y="-426" name="bottom"/>
  <anchor x="973" y="1462" name="top"/>
  <outline>
    <contour>
      <point x="1014" y="-426" type="line"/>
      <point x="1317" y="-426" type="line"/>
      <point x="1460" y="246" type="line"/>
      <point x="1176" y="246" type="line"/>
      <point x="1434" y="1462" type="line"/>
      <point x="362" y="1462" type="line"/>
      <point x="53" y="0" type="line"/>
      <point x="358" y="0" type="line"/>
      <point x="614" y="1204" type="line"/>
      <point x="1075" y="1204" type="line"/>
      <point x="819" y="0" type="line"/>
      <point x="1106" y="0" type="line"/>
    </contour>
  </outline>
</glyph>
<glyph name="uni0527" format="2">
  <advance width="1339"/>
  <unicode hex="0527"/>
  <anchor x="465" y="-401" name="bottom"/>
  <anchor x="881" y="1556" name="top"/>
  <outline>
    <contour>
      <point x="840" y="-401" type="line"/>
      <point x="1118" y="-401" type="line"/>
      <point x="1255" y="250" type="line"/>
      <point x="1030" y="250" type="line"/>
      <point x="1110" y="637" type="line" smooth="yes"/>
      <point x="1124" y="705"/>
      <point x="1133" y="768"/>
      <point x="1133" y="817" type="curve" smooth="yes"/>
      <point x="1133" y="1014"/>
      <point x="1036" y="1139"/>
      <point x="844" y="1139" type="curve" smooth="yes"/>
      <point x="711" y="1139"/>
      <point x="612" y="1071"/>
      <point x="530" y="969" type="curve"/>
      <point x="522" y="969" type="line"/>
      <point x="549" y="1051"/>
      <point x="592" y="1194"/>
      <point x="610" y="1286" type="curve" smooth="yes"/>
      <point x="668" y="1556" type="line"/>
      <point x="367" y="1556" type="line"/>
      <point x="37" y="0" type="line"/>
      <point x="338" y="0" type="line"/>
      <point x="436" y="463" type="line" smooth="yes"/>
      <point x="487" y="700"/>
      <point x="584" y="895"/>
      <point x="721" y="895" type="curve" smooth="yes"/>
      <point x="793" y="895"/>
      <point x="829" y="856"/>
      <point x="829" y="772" type="curve" smooth="yes"/>
      <point x="829" y="739"/>
      <point x="823" y="698"/>
      <point x="813" y="653" type="curve" smooth="yes"/>
      <point x="676" y="0" type="line"/>
      <point x="934" y="0" type="line"/>
    </contour>
  </outline>
</glyph>
<glyph name="uni052A" format="2">
  <advance width="2746"/>
  <unicode hex="052A"/>
  <anchor x="1165" y="-426" name="bottom"/>
  <anchor x="1567" y="1462" name="top"/>
  <outline>
    <contour>
      <point x="1176" y="637" type="line"/>
      <point x="1792" y="637" type="line"/>
      <point x="1841" y="874" type="line"/>
      <point x="1225" y="874" type="line"/>
    </contour>
    <component base="afii10021"/>
    <component base="afii10028" xOffset="1528"/>
  </outline>
</glyph>
<glyph name="sheva-hb" format="2">
  <unicode hex="05B0"/>
  <note>
afii57799
</note>
  <anchor x="-135.3" y="-74.7" name="_bottom"/>
  <outline>
    <contour>
      <point x="-175.1" y="-260.8" type="curve" smooth="yes"/>
      <point x="-118.3" y="-260.8"/>
      <point x="-70.4" y="-222.2"/>
      <point x="-70.4" y="-150.0" type="curve" smooth="yes"/>
      <point x="-70.4" y="-123.3"/>
      <point x="-88.8" y="-94.7"/>
      <point x="-139.6" y="-94.7" type="curve" smooth="yes"/>
      <point x="-202.4" y="-94.7"/>
      <point x="-244.4" y="-140.1"/>
      <point x="-244.4" y="-207.8" type="curve" smooth="yes"/>
      <point x="-244.4" y="-233.2"/>
      <point x="-225.6" y="-260.8"/>
    </contour>
    <contour>
      <point x="-227.6" y="-508.7" type="curve" smooth="yes"/>
      <point x="-170.5" y="-508.7"/>
      <point x="-122.6" y="-469.5"/>
      <point x="-122.6" y="-396.6" type="curve" smooth="yes"/>
      <point x="-122.6" y="-370.9"/>
      <point x="-141.0" y="-342.3"/>
      <point x="-192.1" y="-342.3" type="curve" smooth="yes"/>
      <point x="-253.5" y="-342.3"/>
      <point x="-296.9" y="-388.0"/>
      <point x="-296.9" y="-455.0" type="curve" smooth="yes"/>
      <point x="-296.9" y="-481.1"/>
      <point x="-278.1" y="-508.7"/>
    </contour>
  </outline>
</glyph>
<glyph name="hatafsegol-hb" format="2">
  <unicode hex="05B1"/>
  <note>
afii57801
</note>
  <anchor x="124.0" y="-85.2" name="_bottom"/>
  <outline>
    <contour>
      <point x="-220.39999999999998" y="-271.3" type="curve" smooth="yes"/>
      <point x="-164.29999999999995" y="-271.3"/>
      <point x="-115.29999999999995" y="-233.4"/>
      <point x="-115.29999999999995" y="-160.2" type="curve" smooth="yes"/>
      <point x="-115.29999999999995" y="-133.8"/>
      <point x="-135.0999999999999" y="-105.2"/>
      <point x="-184.89999999999998" y="-105.2" type="curve" smooth="yes"/>
      <point x="-247.0" y="-105.2"/>
      <point x="-289.0" y="-151.3"/>
      <point x="-289.0" y="-218.3" type="curve" smooth="yes"/>
      <point x="-289.0" y="-243.7"/>
      <point x="-270.19999999999993" y="-271.3"/>
    </contour>
    <contour>
      <point x="72.90000000000009" y="-271.3" type="curve" smooth="yes"/>
      <point x="130.4000000000001" y="-271.3"/>
      <point x="179.4000000000001" y="-233.4"/>
      <point x="179.4000000000001" y="-160.9" type="curve" smooth="yes"/>
      <point x="179.4000000000001" y="-134.5"/>
      <point x="159.60000000000002" y="-105.2"/>
      <point x="109.10000000000002" y="-105.2" type="curve" smooth="yes"/>
      <point x="45.60000000000002" y="-105.2"/>
      <point x="4.300000000000068" y="-150.6"/>
      <point x="4.300000000000068" y="-219.0" type="curve" smooth="yes"/>
      <point x="4.300000000000068" y="-244.4"/>
      <point x="21.700000000000045" y="-271.3"/>
    </contour>
    <contour>
      <point x="336.0" y="-271.3" type="curve" smooth="yes"/>
      <point x="392.80000000000007" y="-271.3"/>
      <point x="440.70000000000005" y="-232.7"/>
      <point x="440.70000000000005" y="-160.5" type="curve" smooth="yes"/>
      <point x="440.70000000000005" y="-133.8"/>
      <point x="422.30000000000007" y="-105.2"/>
      <point x="371.5" y="-105.2" type="curve" smooth="yes"/>
      <point x="309.4000000000001" y="-105.2"/>
      <point x="267.0" y="-151.6"/>
      <point x="267.0" y="-218.6" type="curve" smooth="yes"/>
      <point x="267.0" y="-243.7"/>
      <point x="285.80000000000007" y="-271.3"/>
    </contour>
    <contour>
      <point x="-123.89999999999998" y="-519.2" type="curve" smooth="yes"/>
      <point x="-66.79999999999995" y="-519.2"/>
      <point x="-18.899999999999977" y="-480.0"/>
      <point x="-18.899999999999977" y="-407.1" type="curve" smooth="yes"/>
      <point x="-18.899999999999977" y="-381.4"/>
      <point x="-38.0" y="-352.8"/>
      <point x="-88.39999999999998" y="-352.8" type="curve" smooth="yes"/>
      <point x="-150.5" y="-352.8"/>
      <point x="-192.5" y="-398.5"/>
      <point x="-192.5" y="-465.5" type="curve" smooth="yes"/>
      <point x="-192.5" y="-491.6"/>
      <point x="-174.39999999999998" y="-519.2"/>
    </contour>
    <contour>
      <point x="283.5" y="-519.2" type="curve" smooth="yes"/>
      <point x="340.6" y="-519.2"/>
      <point x="388.5" y="-480.0"/>
      <point x="388.5" y="-407.1" type="curve" smooth="yes"/>
      <point x="388.5" y="-381.4"/>
      <point x="370.1" y="-352.8"/>
      <point x="319.0" y="-352.8" type="curve" smooth="yes"/>
      <point x="254.4000000000001" y="-352.8"/>
      <point x="214.5" y="-400.6"/>
      <point x="214.5" y="-465.5" type="curve" smooth="yes"/>
      <point x="214.5" y="-491.6"/>
      <point x="233.30000000000007" y="-519.2"/>
    </contour>
  </outline>
</glyph>
<glyph name="hatafpatah-hb" format="2">
  <unicode hex="05B2"/>
  <note>
afii57800
</note>
  <anchor x="127.20000000000005" y="-85.2" name="_bottom"/>
  <outline>
    <contour>
      <point x="-236.5999999999999" y="-238.3" type="line"/>
      <point x="127.10000000000002" y="-238.3" type="line"/>
      <point x="148.4000000000001" y="-135.1" type="line"/>
      <point x="-215.29999999999995" y="-135.1" type="line"/>
    </contour>
    <contour>
      <point x="237.5" y="-519.2" type="curve" smooth="yes"/>
      <point x="294.30000000000007" y="-519.2"/>
      <point x="342.5" y="-480.0"/>
      <point x="342.5" y="-407.1" type="curve" smooth="yes"/>
      <point x="342.5" y="-381.4"/>
      <point x="323.4000000000001" y="-352.8"/>
      <point x="273.0" y="-352.8" type="curve" smooth="yes"/>
      <point x="210.9000000000001" y="-352.8"/>
      <point x="168.9000000000001" y="-398.5"/>
      <point x="168.9000000000001" y="-465.5" type="curve" smooth="yes"/>
      <point x="168.9000000000001" y="-491.6"/>
      <point x="187.0" y="-519.2"/>
    </contour>
    <contour>
      <point x="290.0" y="-271.3" type="curve" smooth="yes"/>
      <point x="346.80000000000007" y="-271.3"/>
      <point x="394.70000000000005" y="-232.7"/>
      <point x="394.70000000000005" y="-160.5" type="curve" smooth="yes"/>
      <point x="394.70000000000005" y="-133.8"/>
      <point x="375.6" y="-105.2"/>
      <point x="325.5" y="-105.2" type="curve" smooth="yes"/>
      <point x="262.70000000000005" y="-105.2"/>
      <point x="221.4000000000001" y="-150.6"/>
      <point x="221.4000000000001" y="-218.3" type="curve" smooth="yes"/>
      <point x="221.4000000000001" y="-243.7"/>
      <point x="239.5" y="-271.3"/>
    </contour>
  </outline>
</glyph>
<glyph name="hatafqamats-hb" format="2">
  <unicode hex="05B3"/>
  <note>
afii57802
</note>
  <anchor x="-114.9" y="-85.2" name="_bottom"/>
  <outline>
    <contour>
      <point x="-390.9" y="-440.3" type="line"/>
      <point x="-291.6" y="-440.3" type="line"/>
      <point x="-248.6" y="-238.3" type="line"/>
      <point x="-116.4" y="-238.3" type="line"/>
      <point x="-95.1" y="-135.1" type="line"/>
      <point x="-458.8" y="-135.1" type="line"/>
      <point x="-480.1" y="-238.3" type="line"/>
      <point x="-347.9" y="-238.3" type="line"/>
    </contour>
    <contour>
      <point x="-3.1999999999999993" y="-519.2" type="curve" smooth="yes"/>
      <point x="53.6" y="-519.2"/>
      <point x="101.8" y="-480.0"/>
      <point x="101.8" y="-407.1" type="curve" smooth="yes"/>
      <point x="101.8" y="-381.4"/>
      <point x="83.4" y="-352.8"/>
      <point x="32.3" y="-352.8" type="curve" smooth="yes"/>
      <point x="-32.6" y="-352.8"/>
      <point x="-72.5" y="-400.6"/>
      <point x="-72.5" y="-465.5" type="curve" smooth="yes"/>
      <point x="-72.5" y="-491.6"/>
      <point x="-53.7" y="-519.2"/>
    </contour>
    <contour>
      <point x="49.3" y="-271.3" type="curve" smooth="yes"/>
      <point x="106.1" y="-271.3"/>
      <point x="154.0" y="-232.7"/>
      <point x="154.0" y="-160.5" type="curve" smooth="yes"/>
      <point x="154.0" y="-133.8"/>
      <point x="135.6" y="-105.2"/>
      <point x="84.8" y="-105.2" type="curve" smooth="yes"/>
      <point x="22.700000000000003" y="-105.2"/>
      <point x="-20.0" y="-151.3"/>
      <point x="-20.0" y="-218.3" type="curve" smooth="yes"/>
      <point x="-20.0" y="-243.7"/>
      <point x="-1.1999999999999993" y="-271.3"/>
    </contour>
  </outline>
</glyph>
<glyph name="hiriq-hb" format="2">
  <unicode hex="05B4"/>
  <note>
afii57793
</note>
  <anchor x="-136.7" y="-81.7" name="_bottom"/>
  <outline>
    <contour>
      <point x="-177.2" y="-267.8" type="curve" smooth="yes"/>
      <point x="-119.7" y="-267.8"/>
      <point x="-71.1" y="-229.2"/>
      <point x="-71.1" y="-157.7" type="curve" smooth="yes"/>
      <point x="-71.1" y="-131.0"/>
      <point x="-90.9" y="-101.7"/>
      <point x="-141.7" y="-101.7" type="curve" smooth="yes"/>
      <point x="-204.5" y="-101.7"/>
      <point x="-246.5" y="-146.4"/>
      <point x="-246.5" y="-214.8" type="curve" smooth="yes"/>
      <point x="-246.5" y="-240.9"/>
      <point x="-228.4" y="-267.8"/>
    </contour>
  </outline>
</glyph>
<glyph name="tsere-hb" format="2">
  <unicode hex="05B5"/>
  <note>
afii57794
</note>
  <anchor x="86.0" y="-68.4" name="_bottom"/>
  <outline>
    <contour>
      <point x="192.30000000000007" y="-254.5" type="curve" smooth="yes"/>
      <point x="250.5" y="-254.5"/>
      <point x="298.8" y="-215.9"/>
      <point x="298.8" y="-144.1" type="curve" smooth="yes"/>
      <point x="298.8" y="-117.7"/>
      <point x="279.00000000000006" y="-88.4"/>
      <point x="227.80000000000007" y="-88.4" type="curve" smooth="yes"/>
      <point x="162.20000000000005" y="-88.4"/>
      <point x="122.30000000000007" y="-135.9"/>
      <point x="122.30000000000007" y="-200.8" type="curve" smooth="yes"/>
      <point x="122.30000000000007" y="-226.9"/>
      <point x="141.10000000000002" y="-254.5"/>
    </contour>
    <contour>
      <point x="-101.0" y="-254.5" type="curve" smooth="yes"/>
      <point x="-44.19999999999993" y="-254.5"/>
      <point x="2.7000000000000455" y="-215.9"/>
      <point x="2.7000000000000455" y="-143.4" type="curve" smooth="yes"/>
      <point x="2.7000000000000455" y="-117.0"/>
      <point x="-16.399999999999977" y="-88.4"/>
      <point x="-66.19999999999993" y="-88.4" type="curve" smooth="yes"/>
      <point x="-128.29999999999995" y="-88.4"/>
      <point x="-170.29999999999995" y="-133.8"/>
      <point x="-170.29999999999995" y="-200.8" type="curve" smooth="yes"/>
      <point x="-170.29999999999995" y="-226.9"/>
      <point x="-151.5" y="-254.5"/>
    </contour>
  </outline>
</glyph>
<glyph name="segol-hb" format="2">
  <unicode hex="05B6"/>
  <note>
afii57795
</note>
  <anchor x="-111.5" y="-85.2" name="_bottom"/>
  <outline>
    <contour>
      <point x="-325.1" y="-271.3" type="curve" smooth="yes"/>
      <point x="-268.3" y="-271.3"/>
      <point x="-220.7" y="-232.7"/>
      <point x="-220.7" y="-160.2" type="curve" smooth="yes"/>
      <point x="-220.7" y="-133.8"/>
      <point x="-239.8" y="-105.2"/>
      <point x="-289.6" y="-105.2" type="curve" smooth="yes"/>
      <point x="-351.7" y="-105.2"/>
      <point x="-393.7" y="-150.6"/>
      <point x="-393.7" y="-218.3" type="curve" smooth="yes"/>
      <point x="-393.7" y="-243.7"/>
      <point x="-375.6" y="-271.3"/>
    </contour>
    <contour>
      <point x="-31.799999999999997" y="-271.3" type="curve" smooth="yes"/>
      <point x="26.7" y="-271.3"/>
      <point x="75.7" y="-233.4"/>
      <point x="75.7" y="-160.9" type="curve" smooth="yes"/>
      <point x="75.7" y="-134.5"/>
      <point x="55.9" y="-105.2"/>
      <point x="4.7" y="-105.2" type="curve" smooth="yes"/>
      <point x="-59.099999999999994" y="-105.2"/>
      <point x="-101.1" y="-149.9"/>
      <point x="-101.1" y="-218.3" type="curve" smooth="yes"/>
      <point x="-101.1" y="-244.4"/>
      <point x="-83.0" y="-271.3"/>
    </contour>
    <contour>
      <point x="-228.6" y="-519.2" type="curve" smooth="yes"/>
      <point x="-171.5" y="-519.2"/>
      <point x="-123.6" y="-480.0"/>
      <point x="-123.6" y="-407.1" type="curve" smooth="yes"/>
      <point x="-123.6" y="-381.4"/>
      <point x="-142.0" y="-352.8"/>
      <point x="-193.1" y="-352.8" type="curve" smooth="yes"/>
      <point x="-258.0" y="-352.8"/>
      <point x="-297.9" y="-400.6"/>
      <point x="-297.9" y="-465.5" type="curve" smooth="yes"/>
      <point x="-297.9" y="-491.6"/>
      <point x="-279.1" y="-519.2"/>
    </contour>
  </outline>
</glyph>
<glyph name="patah-hb" format="2">
  <unicode hex="05B7"/>
  <note>
afii57798
</note>
  <anchor x="-139.2" y="-95.9" name="_bottom"/>
  <outline>
    <contour>
      <point x="-356.1" y="-218.7" type="line"/>
      <point x="26.1" y="-218.7" type="line"/>
      <point x="47.7" y="-115.9" type="line"/>
      <point x="-334.5" y="-115.9" type="line"/>
    </contour>
  </outline>
</glyph>
<glyph name="qamats-hb" format="2">
  <unicode hex="05B8"/>
  <note>
afii57797
</note>
  <anchor x="-121.0" y="-109.9" name="_bottom"/>
  <outline>
    <contour>
      <point x="-261.7" y="-435.1" type="line"/>
      <point x="-162.7" y="-435.1" type="line"/>
      <point x="-119.7" y="-233.4" type="line"/>
      <point x="18.7" y="-233.4" type="line"/>
      <point x="40.7" y="-129.9" type="line"/>
      <point x="-334.1" y="-129.9" type="line"/>
      <point x="-356.1" y="-233.4" type="line"/>
      <point x="-218.7" y="-233.4" type="line"/>
    </contour>
  </outline>
</glyph>
<glyph name="holam-hb" format="2">
  <unicode hex="05B9"/>
  <note>
afii57806
</note>
  <anchor x="271.6" y="1330.0" name="_topleft"/>
  <outline>
    <contour>
      <point x="167.6" y="1350.0" type="curve" smooth="yes"/>
      <point x="225.1" y="1350.0"/>
      <point x="273.7" y="1388.6"/>
      <point x="273.7" y="1460.1" type="curve" smooth="yes"/>
      <point x="273.7" y="1486.8"/>
      <point x="253.9" y="1516.1"/>
      <point x="203.1" y="1516.1" type="curve" smooth="yes"/>
      <point x="140.3" y="1516.1"/>
      <point x="98.3" y="1471.4"/>
      <point x="98.3" y="1403.0" type="curve" smooth="yes"/>
      <point x="98.3" y="1376.9"/>
      <point x="116.4" y="1350.0"/>
    </contour>
  </outline>
</glyph>
<glyph name="holamhaser-hb" format="2">
  <unicode hex="05BA"/>
  <note>
uni05BA
</note>
  <anchor x="271.3" y="1330.0" name="_topleft"/>
  <outline>
    <contour>
      <point x="167.3" y="1350.0" type="curve" smooth="yes"/>
      <point x="224.8" y="1350.0"/>
      <point x="273.4" y="1388.6"/>
      <point x="273.4" y="1460.1" type="curve" smooth="yes"/>
      <point x="273.4" y="1486.8"/>
      <point x="253.6" y="1516.1"/>
      <point x="202.8" y="1516.1" type="curve" smooth="yes"/>
      <point x="140.0" y="1516.1"/>
      <point x="98.3" y="1471.1"/>
      <point x="98.3" y="1402.7" type="curve" smooth="yes"/>
      <point x="98.3" y="1376.9"/>
      <point x="116.4" y="1350.0"/>
    </contour>
  </outline>
</glyph>
<glyph name="qubuts-hb" format="2">
  <unicode hex="05BB"/>
  <note>
afii57796
</note>
  <anchor x="-139.2" y="-92.9" name="_bottom"/>
  <outline>
    <contour>
      <point x="-351.0" y="-279.0" type="curve" smooth="yes"/>
      <point x="-294.2" y="-279.0"/>
      <point x="-247.3" y="-241.1"/>
      <point x="-247.3" y="-167.9" type="curve" smooth="yes"/>
      <point x="-247.3" y="-141.5"/>
      <point x="-265.7" y="-112.9"/>
      <point x="-315.5" y="-112.9" type="curve" smooth="yes"/>
      <point x="-377.6" y="-112.9"/>
      <point x="-419.6" y="-158.3"/>
      <point x="-419.6" y="-225.3" type="curve" smooth="yes"/>
      <point x="-419.6" y="-251.4"/>
      <point x="-401.5" y="-279.0"/>
    </contour>
    <contour>
      <point x="-215.3" y="-441.8" type="curve" smooth="yes"/>
      <point x="-158.2" y="-441.8"/>
      <point x="-111.0" y="-402.6"/>
      <point x="-111.0" y="-330.4" type="curve" smooth="yes"/>
      <point x="-111.0" y="-304.0"/>
      <point x="-129.4" y="-275.4"/>
      <point x="-180.5" y="-275.4" type="curve" smooth="yes"/>
      <point x="-243.3" y="-275.4"/>
      <point x="-285.3" y="-321.1"/>
      <point x="-285.3" y="-388.8" type="curve" smooth="yes"/>
      <point x="-285.3" y="-414.2"/>
      <point x="-265.8" y="-441.8"/>
    </contour>
    <contour>
      <point x="-78.0" y="-603.9" type="curve" smooth="yes"/>
      <point x="-20.2" y="-603.9"/>
      <point x="28.799999999999997" y="-564.4"/>
      <point x="28.799999999999997" y="-492.9" type="curve" smooth="yes"/>
      <point x="28.799999999999997" y="-466.8"/>
      <point x="9.0" y="-437.5"/>
      <point x="-41.8" y="-437.5" type="curve" smooth="yes"/>
      <point x="-105.3" y="-437.5"/>
      <point x="-146.3" y="-482.6"/>
      <point x="-146.3" y="-551.3" type="curve" smooth="yes"/>
      <point x="-146.3" y="-576.7"/>
      <point x="-128.9" y="-603.9"/>
    </contour>
  </outline>
</glyph>
<glyph name="dagesh-hb" format="2">
  <unicode hex="05BC"/>
  <note>
afii57807
</note>
  <anchor x="14.5" y="629.1" name="_center"/>
  <outline>
    <contour>
      <point x="-3.9000000000000004" y="545.7" type="curve" smooth="yes"/>
      <point x="53.6" y="545.7"/>
      <point x="102.19999999999999" y="584.3"/>
      <point x="102.19999999999999" y="655.8" type="curve" smooth="yes"/>
      <point x="102.19999999999999" y="682.5"/>
      <point x="82.4" y="711.8"/>
      <point x="31.6" y="711.8" type="curve" smooth="yes"/>
      <point x="-31.2" y="711.8"/>
      <point x="-73.2" y="667.1"/>
      <point x="-73.2" y="598.7" type="curve" smooth="yes"/>
      <point x="-73.2" y="572.6"/>
      <point x="-55.1" y="545.7"/>
    </contour>
  </outline>
</glyph>
<glyph name="siluqleft-hb" format="2">
  <unicode hex="05BD"/>
  <note>
afii57839
</note>
  <anchor x="-147.3" y="-131.0" name="_bottom"/>
  <outline>
    <contour>
      <point x="-272.5" y="-489.2" type="line"/>
      <point x="-173.7" y="-489.2" type="line"/>
      <point x="-102.1" y="-151.0" type="line"/>
      <point x="-200.9" y="-151.0" type="line"/>
    </contour>
  </outline>
</glyph>
<glyph name="maqaf-hb" format="2">
  <advance width="785.7"/>
  <unicode hex="05BE"/>
  <note>
afii57645
</note>
  <outline>
    <contour>
      <point x="104.80000000000001" y="1047.4" type="line"/>
      <point x="638.0" y="1047.4" type="line"/>
      <point x="689.0" y="1293.5" type="line"/>
      <point x="156.4" y="1293.5" type="line"/>
    </contour>
  </outline>
</glyph>
<glyph name="sindot-hb" format="2">
  <unicode hex="05C2"/>
  <note>
afii57803
</note>
  <anchor x="271.6" y="1330.0" name="_topleft"/>
  <outline>
    <contour>
      <point x="167.6" y="1350.0" type="curve" smooth="yes"/>
      <point x="225.1" y="1350.0"/>
      <point x="273.7" y="1388.6"/>
      <point x="273.7" y="1460.1" type="curve" smooth="yes"/>
      <point x="273.7" y="1486.8"/>
      <point x="253.9" y="1516.1"/>
      <point x="203.1" y="1516.1" type="curve" smooth="yes"/>
      <point x="140.3" y="1516.1"/>
      <point x="98.3" y="1471.4"/>
      <point x="98.3" y="1403.0" type="curve" smooth="yes"/>
      <point x="98.3" y="1376.9"/>
      <point x="116.4" y="1350.0"/>
    </contour>
  </outline>
</glyph>
<glyph name="qamatsqatan-hb" format="2">
  <unicode hex="05C7"/>
  <note>
uni05C7
</note>
  <anchor x="-114.1" y="-74.1" name="_bottom"/>
  <outline>
    <contour>
      <point x="-245.3" y="-384.6" type="line"/>
      <point x="-158.9" y="-384.6" type="line"/>
      <point x="-117.1" y="-185.7" type="line"/>
      <point x="28.299999999999997" y="-185.7" type="line"/>
      <point x="47.5" y="-94.1" type="line"/>
      <point x="-325.9" y="-94.1" type="line"/>
      <point x="-345.1" y="-185.7" type="line"/>
      <point x="-203.5" y="-185.7" type="line"/>
    </contour>
  </outline>
</glyph>
<glyph name="alef-hb" format="2">
  <advance width="1293.7"/>
  <unicode hex="05D0"/>
  <note>
afii57664
</note>
  <anchor x="528.2" y="0.0" name="bottom"/>
  <anchor x="-98.8" y="0.0" name="bottomleft"/>
  <anchor x="481.6" y="224.3" name="center"/>
  <anchor x="765.8" y="1119.2" name="top"/>
  <anchor x="138.8" y="1119.2" name="topleft"/>
  <outline>
    <contour>
      <point x="-28.0" y="0.0" type="line"/>
      <point x="272.29999999999995" y="0.0" type="line"/>
      <point x="371.5" y="466.2" type="line" smooth="yes"/>
      <point x="387.5" y="541.6"/>
      <point x="410.5" y="590.2"/>
      <point x="449.6" y="620.7" type="curve" smooth="yes"/>
      <point x="463.7" y="634.2"/>
      <point x="477.2" y="643.6"/>
      <point x="490.4" y="648.5" type="curve"/>
      <point x="742.5" y="0.0" type="line"/>
      <point x="1078.6" y="0.0" type="line"/>
      <point x="897.0" y="438.9" type="line"/>
      <point x="989.0" y="468.1"/>
      <point x="1064.3" y="518.8"/>
      <point x="1110.3" y="576.9" type="curve" smooth="yes"/>
      <point x="1162.2" y="641.9"/>
      <point x="1195.7" y="719.4"/>
      <point x="1217.1" y="822.2" type="curve" smooth="yes"/>
      <point x="1317.1" y="1293.5" type="line"/>
      <point x="1016.1" y="1293.5" type="line"/>
      <point x="915.4" y="820.4" type="line" smooth="yes"/>
      <point x="901.1" y="752.2"/>
      <point x="881.3" y="713.5"/>
      <point x="843.7" y="684.3" type="curve" smooth="yes"/>
      <point x="833.8" y="669.7"/>
      <point x="822.6" y="657.8"/>
      <point x="810.1" y="648.2" type="curve"/>
      <point x="558.3" y="1293.5" type="line"/>
      <point x="223.2" y="1293.5" type="line"/>
      <point x="404.2" y="857.4" type="line"/>
      <point x="297.8" y="824.7"/>
      <point x="215.8" y="769.9"/>
      <point x="164.1" y="695.1" type="curve" smooth="yes"/>
      <point x="114.7" y="623.2"/>
      <point x="89.6" y="553.1"/>
      <point x="70.5" y="464.4" type="curve" smooth="yes"/>
    </contour>
  </outline>
</glyph>
<glyph name="bet-hb" format="2">
  <advance width="1153.4"/>
  <unicode hex="05D1"/>
  <note>
afii57665
</note>
  <anchor x="457.9" y="0.0" name="bottom"/>
  <anchor x="-98.8" y="0.0" name="bottomleft"/>
  <anchor x="390.3" y="671.3" name="center"/>
  <anchor x="695.5" y="1119.2" name="top"/>
  <anchor x="138.8" y="1119.2" name="topleft"/>
  <outline>
    <contour>
      <point x="-50.8" y="0.0" type="line"/>
      <point x="980.3" y="0.0" type="line"/>
      <point x="1030.5" y="235.7" type="line"/>
      <point x="886.5" y="235.7" type="line"/>
      <point x="1021.9" y="871.1" type="line" smooth="yes"/>
      <point x="1035.5" y="933.3"/>
      <point x="1042.3" y="985.5"/>
      <point x="1042.3" y="1026.3" type="curve" smooth="yes"/>
      <point x="1042.3" y="1047.5"/>
      <point x="1040.4" y="1070.6"/>
      <point x="1037.6" y="1094.3" type="curve" smooth="yes"/>
      <point x="1030.0" y="1142.0"/>
      <point x="1006.7" y="1188.4"/>
      <point x="963.5" y="1226.3" type="curve" smooth="yes"/>
      <point x="887.5" y="1289.3"/>
      <point x="766.6" y="1313.5"/>
      <point x="586.1" y="1313.5" type="curve" smooth="yes"/>
      <point x="435.0" y="1313.5"/>
      <point x="314.5" y="1306.3"/>
      <point x="223.5" y="1292.3" type="curve"/>
      <point x="173.7" y="1057.1" type="line"/>
      <point x="218.1" y="1061.3" type="line"/>
      <point x="337.3" y="1071.1"/>
      <point x="435.0" y="1076.5"/>
      <point x="511.1" y="1076.5" type="curve" smooth="yes"/>
      <point x="575.2" y="1076.5"/>
      <point x="638.0" y="1069.6"/>
      <point x="671.1" y="1038.6" type="curve" smooth="yes"/>
      <point x="706.2" y="1015.5"/>
      <point x="724.8" y="979.4"/>
      <point x="724.8" y="926.8" type="curve" smooth="yes"/>
      <point x="724.8" y="906.3"/>
      <point x="722.5" y="883.9"/>
      <point x="716.9" y="859.2" type="curve" smooth="yes"/>
      <point x="584.3" y="235.7" type="line"/>
      <point x="-0.6000000000000014" y="235.7" type="line"/>
    </contour>
  </outline>
</glyph>
<glyph name="gimel-hb" format="2">
  <advance width="924.0"/>
  <unicode hex="05D2"/>
  <note>
afii57666
</note>
  <anchor x="343.2" y="0.0" name="bottom"/>
  <anchor x="-98.8" y="0.0" name="bottomleft"/>
  <anchor x="283.0" y="671.2" name="center"/>
  <anchor x="580.8" y="1119.2" name="top"/>
  <anchor x="138.8" y="1119.2" name="topleft"/>
  <outline>
    <contour>
      <point x="51.4" y="-15.2" type="curve" smooth="yes"/>
      <point x="188.3" y="-15.2"/>
      <point x="316.3" y="86.7"/>
      <point x="398.2" y="191.3" type="curve"/>
      <point x="412.2" y="191.3" type="line"/>
      <point x="417.1" y="0.0" type="line"/>
      <point x="646.9" y="0.0" type="line"/>
      <point x="846.1" y="935.9" type="line" smooth="yes"/>
      <point x="858.3" y="993.9"/>
      <point x="864.4" y="1043.1"/>
      <point x="864.4" y="1081.8" type="curve" smooth="yes"/>
      <point x="864.4" y="1261.8"/>
      <point x="737.5" y="1313.5"/>
      <point x="543.3" y="1313.5" type="curve" smooth="yes"/>
      <point x="480.5" y="1313.5"/>
      <point x="409.7" y="1304.3"/>
      <point x="331.5" y="1286.6" type="curve"/>
      <point x="281.0" y="1046.9" type="line"/>
      <point x="353.9" y="1064.2"/>
      <point x="411.2" y="1072.3"/>
      <point x="470.4" y="1072.3" type="curve" smooth="yes"/>
      <point x="523.8" y="1072.3"/>
      <point x="549.6" y="1043.9"/>
      <point x="549.6" y="993.6" type="curve" smooth="yes"/>
      <point x="549.6" y="973.7"/>
      <point x="547.0" y="950.3"/>
      <point x="541.1" y="923.3" type="curve" smooth="yes"/>
      <point x="459.3" y="537.6" type="line" smooth="yes"/>
      <point x="419.7" y="354.4"/>
      <point x="284.4" y="256.0"/>
      <point x="128.0" y="256.0" type="curve" smooth="yes"/>
      <point x="86.5" y="256.0"/>
      <point x="45.4" y="260.7"/>
      <point x="4.799999999999997" y="270.4" type="curve"/>
      <point x="-80.8" y="2.1000000000000005" type="line"/>
      <point x="-33.8" y="-9.1"/>
      <point x="9.600000000000001" y="-15.2"/>
    </contour>
  </outline>
</glyph>
<glyph name="dalet-hb" format="2">
  <advance width="1093.0"/>
  <unicode hex="05D3"/>
  <note>
afii57667
</note>
  <anchor x="428.2" y="0.0" name="bottom"/>
  <anchor x="-98.8" y="0.0" name="bottomleft"/>
  <anchor x="314.3" y="670.6" name="center"/>
  <anchor x="665.8" y="1119.2" name="top"/>
  <anchor x="138.8" y="1119.2" name="topleft"/>
  <outline>
    <contour>
      <point x="443.5" y="0.0" type="line"/>
      <point x="745.7" y="0.0" type="line"/>
      <point x="921.0" y="823.7" type="line" smooth="yes"/>
      <point x="938.2" y="902.1"/>
      <point x="963.6" y="955.8"/>
      <point x="1004.6" y="994.6" type="curve" smooth="yes"/>
      <point x="1044.2" y="1032.0"/>
      <point x="1089.7" y="1054.8"/>
      <point x="1157.5" y="1078.6" type="curve"/>
      <point x="1203.6" y="1293.5" type="line"/>
      <point x="172.9" y="1293.5" type="line"/>
      <point x="122.4" y="1057.8" type="line"/>
      <point x="775.8" y="1057.8" type="line"/>
      <point x="768.9" y="1054.0" type="line" smooth="yes"/>
      <point x="739.0" y="1034.0"/>
      <point x="711.5" y="1008.0"/>
      <point x="685.7" y="975.3" type="curve" smooth="yes"/>
      <point x="656.0" y="937.7"/>
      <point x="631.6" y="886.6"/>
      <point x="619.5" y="828.6" type="curve" smooth="yes"/>
    </contour>
  </outline>
</glyph>
<glyph name="he-hb" format="2">
  <advance width="1309.7"/>
  <unicode hex="05D4"/>
  <note>
afii57668
</note>
  <anchor x="536.4" y="0.0" name="bottom"/>
  <anchor x="-98.8" y="0.0" name="bottomleft"/>
  <anchor x="658.0" y="670.6" name="center"/>
  <anchor x="774.0" y="1119.2" name="top"/>
  <anchor x="138.8" y="1119.2" name="topleft"/>
  <outline>
    <contour>
      <point x="730.2" y="0.0" type="line"/>
      <point x="1033.4" y="0.0" type="line"/>
      <point x="1216.2" y="859.2" type="line" smooth="yes"/>
      <point x="1230.5" y="923.5"/>
      <point x="1237.3" y="975.7"/>
      <point x="1237.3" y="1016.5" type="curve" smooth="yes"/>
      <point x="1237.3" y="1038.4"/>
      <point x="1235.4" y="1061.5"/>
      <point x="1232.6" y="1085.9" type="curve" smooth="yes"/>
      <point x="1225.0" y="1133.6"/>
      <point x="1202.4" y="1182.8"/>
      <point x="1159.2" y="1222.1" type="curve" smooth="yes"/>
      <point x="1083.6" y="1288.2"/>
      <point x="960.6" y="1313.5"/>
      <point x="773.4" y="1313.5" type="curve" smooth="yes"/>
      <point x="615.9" y="1313.5"/>
      <point x="449.9" y="1302.3"/>
      <point x="276.0" y="1280.9" type="curve"/>
      <point x="225.9" y="1045.4" type="line"/>
      <point x="451.2" y="1067.4"/>
      <point x="590.0" y="1076.5"/>
      <point x="702.2" y="1076.5" type="curve" smooth="yes"/>
      <point x="760.1" y="1076.5"/>
      <point x="814.2" y="1069.3"/>
      <point x="849.5" y="1051.4" type="curve" smooth="yes"/>
      <point x="896.7" y="1028.0"/>
      <point x="920.9" y="988.7"/>
      <point x="920.9" y="926.8" type="curve" smooth="yes"/>
      <point x="920.9" y="906.3"/>
      <point x="918.6" y="883.9"/>
      <point x="913.0" y="859.2" type="curve" smooth="yes"/>
    </contour>
    <contour>
      <point x="4.100000000000001" y="0.0" type="line"/>
      <point x="305.6" y="0.0" type="line"/>
      <point x="470.2" y="772.4" type="line"/>
      <point x="168.7" y="772.4" type="line"/>
    </contour>
  </outline>
</glyph>
<glyph name="vav-hb" format="2">
  <advance width="587.2"/>
  <unicode hex="05D5"/>
  <note>
afii57669
</note>
  <anchor x="174.8" y="0.0" name="bottom"/>
  <anchor x="-98.8" y="0.0" name="bottomleft"/>
  <anchor x="2.799999999999999" y="670.6" name="center"/>
  <anchor x="412.4" y="1119.2" name="top"/>
  <anchor x="482.7" y="1372.4" name="topleft"/>
  <outline>
    <contour>
      <point x="5.400000000000002" y="0.0" type="line"/>
      <point x="307.6" y="0.0" type="line"/>
      <point x="583.0" y="1293.5" type="line"/>
      <point x="280.8" y="1293.5" type="line"/>
    </contour>
  </outline>
</glyph>
<glyph name="zayin-hb" format="2">
  <advance width="678.8"/>
  <unicode hex="05D6"/>
  <note>
afii57670
</note>
  <anchor x="221.1" y="0.0" name="bottom"/>
  <anchor x="-98.8" y="0.0" name="bottomleft"/>
  <anchor x="12.5" y="669.6" name="center"/>
  <anchor x="458.7" y="1119.2" name="top"/>
  <anchor x="138.8" y="1119.2" name="topleft"/>
  <outline>
    <contour>
      <point x="34.900000000000006" y="0.0" type="line"/>
      <point x="337.1" y="0.0" type="line"/>
      <point x="455.5" y="556.0" type="line" smooth="yes"/>
      <point x="471.4" y="630.2"/>
      <point x="489.9" y="698.2"/>
      <point x="511.7" y="759.7" type="curve" smooth="yes"/>
      <point x="526.6" y="801.8"/>
      <point x="544.5" y="841.2"/>
      <point x="565.5" y="877.0" type="curve" smooth="yes"/>
      <point x="606.8" y="947.6"/>
      <point x="671.3" y="1029.0"/>
      <point x="740.1" y="1075.1" type="curve"/>
      <point x="786.9" y="1293.5" type="line"/>
      <point x="236.3" y="1293.5" type="line"/>
      <point x="185.8" y="1057.8" type="line"/>
      <point x="452.4" y="1057.8" type="line"/>
      <point x="419.9" y="1034.1"/>
      <point x="387.1" y="1004.2"/>
      <point x="354.3" y="967.1" type="curve" smooth="yes"/>
      <point x="253.8" y="861.8"/>
      <point x="187.5" y="714.9"/>
      <point x="153.3" y="556.0" type="curve" smooth="yes"/>
    </contour>
  </outline>
</glyph>
<glyph name="het-hb" format="2">
  <advance width="1309.7"/>
  <unicode hex="05D7"/>
  <note>
afii57671
</note>
  <anchor x="536.4" y="0.0" name="bottom"/>
  <anchor x="-98.8" y="0.0" name="bottomleft"/>
  <anchor x="655.2" y="560.1" name="center"/>
  <anchor x="774.0" y="1119.2" name="top"/>
  <anchor x="138.8" y="1119.2" name="topleft"/>
  <outline>
    <contour>
      <point x="3.400000000000002" y="0.0" type="line"/>
      <point x="305.6" y="0.0" type="line"/>
      <point x="532.9" y="1069.9" type="line"/>
      <point x="599.6" y="1074.3"/>
      <point x="655.8" y="1076.5"/>
      <point x="702.2" y="1076.5" type="curve" smooth="yes"/>
      <point x="782.2" y="1076.5"/>
      <point x="855.6" y="1065.5"/>
      <point x="890.6" y="1021.8" type="curve" smooth="yes"/>
      <point x="910.3" y="998.7"/>
      <point x="920.9" y="967.5"/>
      <point x="920.9" y="926.8" type="curve" smooth="yes"/>
      <point x="920.9" y="906.3"/>
      <point x="918.6" y="883.9"/>
      <point x="913.0" y="859.2" type="curve" smooth="yes"/>
      <point x="730.2" y="0.0" type="line"/>
      <point x="1033.4" y="0.0" type="line"/>
      <point x="1216.2" y="859.2" type="line" smooth="yes"/>
      <point x="1231.2" y="921.4"/>
      <point x="1238.7" y="979.2"/>
      <point x="1238.7" y="1032.6" type="curve" smooth="yes"/>
      <point x="1238.7" y="1086.0"/>
      <point x="1227.0" y="1131.5"/>
      <point x="1204.6" y="1169.9" type="curve" smooth="yes"/>
      <point x="1187.9" y="1202.9"/>
      <point x="1161.8" y="1230.4"/>
      <point x="1125.6" y="1250.8" type="curve" smooth="yes"/>
      <point x="1045.5" y="1296.8"/>
      <point x="935.0" y="1313.5"/>
      <point x="782.6" y="1313.5" type="curve" smooth="yes"/>
      <point x="605.8" y="1313.5"/>
      <point x="396.5" y="1298.4"/>
      <point x="276.0" y="1280.9" type="curve"/>
    </contour>
  </outline>
</glyph>
<glyph name="tet-hb" format="2">
  <advance width="1311.1"/>
  <unicode hex="05D8"/>
  <note>
afii57672
</note>
  <anchor x="537.1" y="0.0" name="bottom"/>
  <anchor x="-98.8" y="0.0" name="bottomleft"/>
  <anchor x="679.1" y="671.3" name="center"/>
  <anchor x="774.7" y="1119.2" name="top"/>
  <anchor x="138.8" y="1119.2" name="topleft"/>
  <outline>
    <contour>
      <point x="530.4" y="-19.3" type="curve" smooth="yes"/>
      <point x="624.9" y="-19.3"/>
      <point x="712.4" y="-1.7"/>
      <point x="790.9" y="32.1" type="curve" smooth="yes"/>
      <point x="901.3" y="79.4"/>
      <point x="994.9" y="158.7"/>
      <point x="1069.0" y="268.6" type="curve" smooth="yes"/>
      <point x="1140.3" y="371.9"/>
      <point x="1193.0" y="503.3"/>
      <point x="1226.1" y="659.0" type="curve" smooth="yes"/>
      <point x="1249.9" y="773.4"/>
      <point x="1262.3" y="870.9"/>
      <point x="1262.3" y="952.1" type="curve" smooth="yes"/>
      <point x="1262.3" y="1053.1"/>
      <point x="1244.3" y="1152.6"/>
      <point x="1179.7" y="1219.1" type="curve" smooth="yes"/>
      <point x="1118.1" y="1282.7"/>
      <point x="1018.8" y="1313.5"/>
      <point x="904.8" y="1313.5" type="curve" smooth="yes"/>
      <point x="859.8" y="1313.5"/>
      <point x="812.0" y="1309.8"/>
      <point x="761.8" y="1302.0" type="curve"/>
      <point x="711.0" y="1065.1" type="line"/>
      <point x="732.5" y="1069.3"/>
      <point x="753.0" y="1071.6"/>
      <point x="774.2" y="1071.6" type="curve" smooth="yes"/>
      <point x="844.0" y="1071.6"/>
      <point x="889.3" y="1050.2"/>
      <point x="914.2" y="1016.1" type="curve" smooth="yes"/>
      <point x="943.7" y="979.1"/>
      <point x="948.5" y="922.9"/>
      <point x="948.5" y="862.1" type="curve" smooth="yes"/>
      <point x="948.5" y="794.3"/>
      <point x="928.7" y="694.6"/>
      <point x="905.7" y="603.2" type="curve" smooth="yes"/>
      <point x="879.2" y="497.79999999999995"/>
      <point x="843.9" y="410.6"/>
      <point x="801.2" y="350.2" type="curve" smooth="yes"/>
      <point x="746.6" y="266.0"/>
      <point x="674.9" y="224.7"/>
      <point x="588.3" y="224.7" type="curve" smooth="yes"/>
      <point x="519.9" y="224.7"/>
      <point x="471.79999999999995" y="252.39999999999998"/>
      <point x="445.6" y="302.6" type="curve" smooth="yes"/>
      <point x="426.29999999999995" y="338.1"/>
      <point x="417.0" y="385.9"/>
      <point x="417.0" y="446.0" type="curve" smooth="yes"/>
      <point x="417.0" y="503.9"/>
      <point x="425.9" y="574.7"/>
      <point x="444.1" y="659.0" type="curve" smooth="yes"/>
      <point x="579.0" y="1293.5" type="line"/>
      <point x="275.8" y="1293.5" type="line"/>
      <point x="140.9" y="659.0" type="line" smooth="yes"/>
      <point x="124.1" y="576.8"/>
      <point x="115.2" y="503.1"/>
      <point x="115.2" y="437.3" type="curve" smooth="yes"/>
      <point x="115.2" y="368.5"/>
      <point x="123.3" y="303.6"/>
      <point x="145.0" y="247.7" type="curve" smooth="yes"/>
      <point x="199.1" y="78.3"/>
      <point x="333.2" y="-19.3"/>
    </contour>
  </outline>
</glyph>
<glyph name="yod-hb" format="2">
  <advance width="561.2"/>
  <unicode hex="05D9"/>
  <note>
afii57673
</note>
  <anchor x="162.3" y="0.0" name="bottom"/>
  <anchor x="-98.8" y="0.0" name="bottomleft"/>
  <anchor x="43.9" y="917.2" name="center"/>
  <anchor x="399.9" y="1119.2" name="top"/>
  <anchor x="138.8" y="1119.2" name="topleft"/>
  <outline>
    <contour>
      <point x="88.9" y="437.9" type="line"/>
      <point x="212.7" y="437.9" type="line"/>
      <point x="438.9" y="662.5" type="line"/>
      <point x="572.9" y="1293.5" type="line"/>
      <point x="270.7" y="1293.5" type="line"/>
    </contour>
  </outline>
</glyph>
<glyph name="finalkaf-hb" format="2">
  <advance width="1065.7"/>
  <unicode hex="05DA"/>
  <note>
afii57674
</note>
  <anchor x="414.2" y="0.0" name="bottom"/>
  <anchor x="-98.8" y="0.0" name="bottomleft"/>
  <anchor x="324.4" y="671.6" name="center"/>
  <anchor x="651.8" y="1119.2" name="top"/>
  <anchor x="138.8" y="1119.2" name="topleft"/>
  <outline>
    <contour>
      <point x="393.9" y="-492.0" type="line"/>
      <point x="696.0" y="-492.0" type="line"/>
      <point x="954.4" y="725.4" type="line" smooth="yes"/>
      <point x="968.4" y="792.8"/>
      <point x="975.4" y="859.8"/>
      <point x="975.4" y="925.4" type="curve" smooth="yes"/>
      <point x="975.4" y="948.4"/>
      <point x="973.7" y="975.1"/>
      <point x="969.3" y="1007.2" type="curve" smooth="yes"/>
      <point x="955.8" y="1102.5"/>
      <point x="911.4" y="1183.5"/>
      <point x="831.2" y="1239.0" type="curve" smooth="yes"/>
      <point x="765.9" y="1285.5"/>
      <point x="669.8" y="1313.2"/>
      <point x="550.2" y="1313.2" type="curve" smooth="yes"/>
      <point x="404.7" y="1313.2"/>
      <point x="273.7" y="1302.5"/>
      <point x="175.5" y="1287.6" type="curve"/>
      <point x="124.0" y="1046.3" type="line"/>
      <point x="137.4" y="1048.0"/>
      <point x="153.1" y="1050.2"/>
      <point x="172.5" y="1054.0" type="curve" smooth="yes"/>
      <point x="266.1" y="1068.4"/>
      <point x="350.3" y="1075.1"/>
      <point x="437.9" y="1075.1" type="curve" smooth="yes"/>
      <point x="525.2" y="1075.1"/>
      <point x="587.2" y="1054.7"/>
      <point x="624.5" y="1013.9" type="curve" smooth="yes"/>
      <point x="660.6" y="975.0"/>
      <point x="670.8" y="918.6"/>
      <point x="670.8" y="854.9" type="curve" smooth="yes"/>
      <point x="670.8" y="823.6"/>
      <point x="665.2" y="780.7"/>
      <point x="653.0" y="726.8" type="curve" smooth="yes"/>
    </contour>
  </outline>
</glyph>
<glyph name="kaf-hb" format="2">
  <advance width="1051.5"/>
  <unicode hex="05DB"/>
  <note>
afii57675
</note>
  <anchor x="407.1" y="0.0" name="bottom"/>
  <anchor x="-98.8" y="0.0" name="bottomleft"/>
  <anchor x="357.4" y="670.9" name="center"/>
  <anchor x="644.7" y="1119.2" name="top"/>
  <anchor x="138.8" y="1119.2" name="topleft"/>
  <outline>
    <contour>
      <point x="300.2" y="-20.0" type="curve" smooth="yes"/>
      <point x="396.1" y="-20.0"/>
      <point x="487.8" y="-0.5999999999999979"/>
      <point x="560.3" y="31.400000000000006" type="curve" smooth="yes"/>
      <point x="682.5" y="77.80000000000001"/>
      <point x="763.8" y="151.7"/>
      <point x="825.2" y="245.3" type="curve" smooth="yes"/>
      <point x="888.4" y="342.2"/>
      <point x="921.4" y="437.6"/>
      <point x="946.6" y="556.3" type="curve" smooth="yes"/>
      <point x="982.5" y="725.4" type="line" smooth="yes"/>
      <point x="996.8" y="794.3"/>
      <point x="1003.8" y="860.4"/>
      <point x="1003.8" y="923.0" type="curve" smooth="yes"/>
      <point x="1003.8" y="948.7"/>
      <point x="1001.5" y="977.8"/>
      <point x="996.5" y="1011.1" type="curve" smooth="yes"/>
      <point x="985.5" y="1082.9"/>
      <point x="957.2" y="1148.4"/>
      <point x="907.6" y="1199.8" type="curve" smooth="yes"/>
      <point x="840.8" y="1269.2"/>
      <point x="728.3" y="1313.2"/>
      <point x="580.3" y="1313.2" type="curve" smooth="yes"/>
      <point x="440.8" y="1313.2"/>
      <point x="307.4" y="1305.5"/>
      <point x="202.5" y="1287.6" type="curve"/>
      <point x="151.7" y="1046.3" type="line"/>
      <point x="164.8" y="1048.0"/>
      <point x="180.5" y="1050.2"/>
      <point x="200.2" y="1054.0" type="curve" smooth="yes"/>
      <point x="294.1" y="1068.4"/>
      <point x="382.2" y="1075.1"/>
      <point x="464.9" y="1075.1" type="curve" smooth="yes"/>
      <point x="558.0" y="1075.1"/>
      <point x="621.8" y="1049.4"/>
      <point x="657.0" y="1008.5" type="curve" smooth="yes"/>
      <point x="688.8" y="969.9"/>
      <point x="698.2" y="915.0"/>
      <point x="698.2" y="854.2" type="curve" smooth="yes"/>
      <point x="698.2" y="822.9"/>
      <point x="692.6" y="780.0"/>
      <point x="680.4" y="726.8" type="curve" smooth="yes"/>
      <point x="643.8" y="556.3" type="line" smooth="yes"/>
      <point x="621.3" y="451.0"/>
      <point x="579.8" y="367.0"/>
      <point x="530.3" y="312.8" type="curve" smooth="yes"/>
      <point x="481.2" y="260.0"/>
      <point x="409.2056" y="225.39999999999998"/>
      <point x="325.0" y="225.39999999999998" type="curve" smooth="yes"/>
      <point x="203.7" y="225.39999999999998"/>
      <point x="95.0" y="237.0"/>
      <point x="21.499999999999996" y="246.89999999999998" type="curve" smooth="yes"/>
      <point x="7.199999999999996" y="249.39999999999998"/>
      <point x="-5.900000000000002" y="251.6"/>
      <point x="-17.1" y="254.2" type="curve"/>
      <point x="-68.8" y="9.7" type="line"/>
      <point x="24.2" y="-10.4"/>
      <point x="146.5" y="-20.0"/>
    </contour>
  </outline>
</glyph>
<glyph name="lamed-hb" format="2">
  <advance width="1071.6"/>
  <unicode hex="05DC"/>
  <note>
afii57676
</note>
  <anchor x="417.5" y="0.0" name="bottom"/>
  <anchor x="-98.8" y="0.0" name="bottomleft"/>
  <anchor x="328.8" y="671.6" name="center"/>
  <anchor x="655.1" y="1119.2" name="top"/>
  <anchor x="138.8" y="1119.2" name="topleft"/>
  <outline>
    <contour>
      <point x="314.4" y="0.0" type="line"/>
      <point x="613.0" y="0.0" type="line"/>
      <point x="819.7" y="488.8" type="line"/>
      <point x="1125.3" y="1095.2" type="line"/>
      <point x="1167.8" y="1295.3" type="line"/>
      <point x="501.1" y="1295.3" type="line"/>
      <point x="557.0" y="1556.4" type="line"/>
      <point x="254.8" y="1556.4" type="line"/>
      <point x="148.5" y="1057.2" type="line"/>
      <point x="810.3" y="1057.2" type="line"/>
      <point x="525.5" y="495.3" type="line"/>
    </contour>
  </outline>
</glyph>
<glyph name="finalmem-hb" format="2">
  <advance width="1310.0"/>
  <unicode hex="05DD"/>
  <note>
afii57677
</note>
  <anchor x="536.7" y="0.0" name="bottom"/>
  <anchor x="-98.8" y="0.0" name="bottomleft"/>
  <anchor x="655.5" y="560.1" name="center"/>
  <anchor x="774.3" y="1119.2" name="top"/>
  <anchor x="138.8" y="1119.2" name="topleft"/>
  <outline>
    <contour>
      <point x="3.700000000000003" y="0.0" type="line"/>
      <point x="1033.7" y="0.0" type="line"/>
      <point x="1225.6" y="901.9" type="line" smooth="yes"/>
      <point x="1235.7" y="947.3"/>
      <point x="1240.4" y="989.0"/>
      <point x="1240.4" y="1027.0" type="curve" smooth="yes"/>
      <point x="1240.4" y="1112.2"/>
      <point x="1214.6" y="1179.3"/>
      <point x="1163.0" y="1222.8" type="curve" smooth="yes"/>
      <point x="1086.4" y="1287.0"/>
      <point x="962.6" y="1312.8"/>
      <point x="781.5" y="1312.8" type="curve" smooth="yes"/>
      <point x="605.4" y="1312.8"/>
      <point x="396.8" y="1298.4"/>
      <point x="276.3" y="1280.9" type="curve"/>
    </contour>
    <contour>
      <point x="356.1" y="235.7" type="line"/>
      <point x="533.2" y="1068.5" type="line"/>
      <point x="597.8" y="1072.2"/>
      <point x="654.7" y="1075.1"/>
      <point x="702.5" y="1075.8" type="curve" smooth="yes"/>
      <point x="784.6" y="1075.8"/>
      <point x="860.1" y="1068.3"/>
      <point x="897.2" y="1033.0" type="curve" smooth="yes"/>
      <point x="918.3" y="1015.5"/>
      <point x="929.6" y="990.6"/>
      <point x="929.6" y="956.2" type="curve" smooth="yes"/>
      <point x="929.6" y="942.7"/>
      <point x="928.0" y="927.3"/>
      <point x="924.5" y="910.3" type="curve" smooth="yes"/>
      <point x="780.7" y="235.7" type="line"/>
    </contour>
  </outline>
</glyph>
<glyph name="mem-hb" format="2">
  <advance width="1354.2"/>
  <unicode hex="05DE"/>
  <note>
afii57678
</note>
  <anchor x="558.8" y="0.0" name="bottom"/>
  <anchor x="-98.8" y="0.0" name="bottomleft"/>
  <anchor x="684.3" y="671.3" name="center"/>
  <anchor x="796.4" y="1119.2" name="top"/>
  <anchor x="138.8" y="1119.2" name="topleft"/>
  <outline>
    <contour>
      <point x="-48.3" y="0.0" type="line"/>
      <point x="249.7" y="0.0" type="line"/>
      <point x="526.9" y="919.6" type="line"/>
      <point x="551.1" y="948.7" type="line" smooth="yes"/>
      <point x="583.3" y="988.8"/>
      <point x="657.5" y="1038.8"/>
      <point x="718.5" y="1050.5" type="curve" smooth="yes"/>
      <point x="778.9" y="1061.6"/>
      <point x="842.4" y="1066.7"/>
      <point x="889.7" y="1012.8" type="curve" smooth="yes"/>
      <point x="939.8" y="1005.8"/>
      <point x="954.6" y="961.0"/>
      <point x="954.6" y="917.7" type="curve" smooth="yes"/>
      <point x="954.6" y="882.6"/>
      <point x="948.5" y="835.4"/>
      <point x="936.0" y="776.1" type="curve" smooth="yes"/>
      <point x="821.3" y="235.7" type="line"/>
      <point x="574.4" y="235.7" type="line"/>
      <point x="524.2" y="0.0" type="line"/>
      <point x="1077.9" y="0.0" type="line"/>
      <point x="1242.8" y="776.1" type="line" smooth="yes"/>
      <point x="1260.8" y="858.7"/>
      <point x="1270.0" y="929.9"/>
      <point x="1270.0" y="988.4" type="curve" smooth="yes"/>
      <point x="1270.0" y="1100.2"/>
      <point x="1240.1" y="1199.4"/>
      <point x="1140.4" y="1237.2" type="curve" smooth="yes"/>
      <point x="1091.7" y="1284.1"/>
      <point x="1008.3" y="1311.7"/>
      <point x="917.5" y="1308.4" type="curve" smooth="yes"/>
      <point x="778.7" y="1300.3"/>
      <point x="649.7" y="1249.4"/>
      <point x="550.4" y="1160.6" type="curve"/>
      <point x="536.7" y="1160.6" type="line"/>
      <point x="537.4" y="1172.2"/>
      <point x="537.1" y="1183.7"/>
      <point x="536.5" y="1196.2" type="curve" smooth="yes"/>
      <point x="535.9" y="1229.8"/>
      <point x="530.6" y="1263.2"/>
      <point x="519.8" y="1295.3" type="curve"/>
      <point x="249.1" y="1295.3" type="line"/>
      <point x="255.5" y="1257.1"/>
      <point x="264.0" y="1183.6"/>
      <point x="264.0" y="1137.5" type="curve" smooth="yes"/>
      <point x="264.0" y="1057.2"/>
      <point x="248.3" y="964.5"/>
      <point x="218.7" y="874.1" type="curve" smooth="yes"/>
    </contour>
  </outline>
</glyph>
<glyph name="finalnun-hb" format="2">
  <advance width="552.1"/>
  <unicode hex="05DF"/>
  <note>
afii57679
</note>
  <anchor x="157.6" y="0.0" name="bottom"/>
  <anchor x="-98.8" y="0.0" name="bottomleft"/>
  <anchor x="276.4" y="560.1" name="center"/>
  <anchor x="395.2" y="1119.2" name="top"/>
  <anchor x="138.8" y="1119.2" name="topleft"/>
  <outline>
    <contour>
      <point x="-123.3" y="-478.7" type="line"/>
      <point x="179.6" y="-478.7" type="line"/>
      <point x="461.2" y="846.2" type="line" smooth="yes"/>
      <point x="492.9" y="993.9"/>
      <point x="495.4" y="1144.3"/>
      <point x="495.4" y="1205.2" type="curve" smooth="yes"/>
      <point x="495.4" y="1235.5"/>
      <point x="493.4" y="1264.7"/>
      <point x="489.79999999999995" y="1293.5" type="curve"/>
      <point x="186.6" y="1293.5" type="line"/>
      <point x="192.6" y="1233.3"/>
      <point x="194.2" y="1203.6"/>
      <point x="194.2" y="1167.6" type="curve" smooth="yes"/>
      <point x="194.2" y="1064.8"/>
      <point x="182.0" y="957.4"/>
      <point x="158.3" y="846.2" type="curve" smooth="yes"/>
    </contour>
  </outline>
</glyph>
<glyph name="nun-hb" format="2">
  <advance width="883.1"/>
  <unicode hex="05E0"/>
  <note>
afii57680
</note>
  <anchor x="323.1" y="0.0" name="bottom"/>
  <anchor x="-98.8" y="0.0" name="bottomleft"/>
  <anchor x="249.0" y="670.6" name="center"/>
  <anchor x="560.7" y="1119.2" name="top"/>
  <anchor x="138.8" y="1119.2" name="topleft"/>
  <outline>
    <contour>
      <point x="-60.2" y="0.0" type="line"/>
      <point x="564.2" y="0.0" type="line"/>
      <point x="586.3" y="52.8" type="line" smooth="yes"/>
      <point x="616.1" y="122.7"/>
      <point x="664.0" y="268.6"/>
      <point x="688.9" y="383.4" type="curve" smooth="yes"/>
      <point x="803.8" y="922.6" type="line" smooth="yes"/>
      <point x="814.0" y="971.1"/>
      <point x="819.1" y="1013.8"/>
      <point x="819.1" y="1051.7" type="curve" smooth="yes"/>
      <point x="819.1" y="1128.2"/>
      <point x="799.7" y="1190.9"/>
      <point x="757.7" y="1235.1" type="curve" smooth="yes"/>
      <point x="712.4" y="1282.9"/>
      <point x="636.6" y="1313.5"/>
      <point x="496.9" y="1313.5" type="curve" smooth="yes"/>
      <point x="420.0" y="1313.5"/>
      <point x="354.3" y="1308.5"/>
      <point x="299.5" y="1297.8" type="curve"/>
      <point x="248.7" y="1057.4" type="line"/>
      <point x="317.3" y="1067.0"/>
      <point x="366.7" y="1071.6"/>
      <point x="415.2" y="1071.6" type="curve" smooth="yes"/>
      <point x="456.9" y="1071.6"/>
      <point x="482.0" y="1054.8"/>
      <point x="492.6" y="1027.7" type="curve" smooth="yes"/>
      <point x="503.4" y="1013.5"/>
      <point x="507.20000000000005" y="994.9"/>
      <point x="507.20000000000005" y="974.0" type="curve" smooth="yes"/>
      <point x="507.20000000000005" y="958.4"/>
      <point x="505.20000000000005" y="941.6"/>
      <point x="501.6" y="922.6" type="curve" smooth="yes"/>
      <point x="386.7" y="383.4" type="line" smooth="yes"/>
      <point x="376.0" y="333.1"/>
      <point x="360.2" y="284.3"/>
      <point x="338.9" y="235.7" type="curve"/>
      <point x="-10.0" y="235.7" type="line"/>
    </contour>
  </outline>
</glyph>
<glyph name="samekh-hb" format="2">
  <advance width="1263.3"/>
  <unicode hex="05E1"/>
  <note>
afii57681
</note>
  <anchor x="513.0" y="0.0" name="bottom"/>
  <anchor x="-98.8" y="0.0" name="bottomleft"/>
  <anchor x="637.6" y="670.6" name="center"/>
  <anchor x="750.6" y="1119.2" name="top"/>
  <anchor x="138.8" y="1119.2" name="topleft"/>
  <outline>
    <contour>
      <point x="487.0" y="-19.3" type="curve" smooth="yes"/>
      <point x="830.4" y="-19.3"/>
      <point x="1083.5" y="218.4"/>
      <point x="1174.9" y="647.3" type="curve" smooth="yes"/>
      <point x="1192.8" y="732.3"/>
      <point x="1201.4" y="809.8"/>
      <point x="1201.4" y="878.1" type="curve" smooth="yes"/>
      <point x="1201.4" y="1093.7"/>
      <point x="1114.5" y="1313.5"/>
      <point x="772.5" y="1313.5" type="curve" smooth="yes"/>
      <point x="607.4" y="1313.5"/>
      <point x="430.4" y="1306.4"/>
      <point x="241.1" y="1293.2" type="curve"/>
      <point x="189.9" y="1051.4" type="line"/>
      <point x="219.9" y="1053.1"/>
      <point x="289.5" y="1057.0"/>
      <point x="315.9" y="1058.4" type="curve"/>
      <point x="203.2" y="964.1"/>
      <point x="127.8" y="827.5"/>
      <point x="89.0" y="647.3" type="curve" smooth="yes"/>
      <point x="70.8" y="560.6"/>
      <point x="61.2" y="481.3"/>
      <point x="61.2" y="408.3" type="curve" smooth="yes"/>
      <point x="61.2" y="203.9"/>
      <point x="143.6" y="-19.3"/>
    </contour>
    <contour>
      <point x="541.4" y="223.29999999999998" type="curve" smooth="yes"/>
      <point x="422.1" y="223.29999999999998"/>
      <point x="368.79999999999995" y="297.3"/>
      <point x="368.79999999999995" y="437.4" type="curve" smooth="yes"/>
      <point x="368.79999999999995" y="493.2"/>
      <point x="377.7" y="563.5"/>
      <point x="396.2" y="647.3" type="curve" smooth="yes"/>
      <point x="434.7" y="831.7"/>
      <point x="503.5" y="968.6"/>
      <point x="610.7" y="1071.2" type="curve"/>
      <point x="637.6" y="1073.8"/>
      <point x="689.5" y="1075.8"/>
      <point x="725.4" y="1075.8" type="curve" smooth="yes"/>
      <point x="775.1" y="1075.8"/>
      <point x="817.7" y="1059.5"/>
      <point x="844.6" y="1030.3" type="curve" smooth="yes"/>
      <point x="877.8" y="994.7"/>
      <point x="894.2" y="938.7"/>
      <point x="894.2" y="860.9" type="curve" smooth="yes"/>
      <point x="894.2" y="779.7"/>
      <point x="873.0" y="651.1"/>
      <point x="831.1" y="544.1" type="curve" smooth="yes"/>
      <point x="768.6" y="327.9"/>
      <point x="678.6" y="223.29999999999998"/>
    </contour>
  </outline>
</glyph>
